<?xml version="1.0" encoding="UTF-8"?>
<svg viewBox="0 0 768 768" xmlns="http://www.w3.org/2000/svg" xmlns:xlink="http://www.w3.org/1999/xlink">
 <defs>
  <clipPath id="f">
   <path d="m57.5.5h397a57,57 0 0,1 57,57v397a57,57 0 0,1 -57,57h-397a57,57 0 0,1 -57-57v-397a57,57 0 0,1 57-57"/>
  </clipPath>
  <clipPath id="g">
   <path d="m57,0h398a57,57 0 0,1 57,57v398a57,57 0 0,1 -57,57h-398a57,57 0 0,1 -57-57v-398a57,57 0 0,1 57-57"/>
  </clipPath>
  <filter id="e">
   <feGaussianBlur stdDeviation="5.12"/>
  </filter>
  <filter id="d">
   <feGaussianBlur stdDeviation="17.92"/>
  </filter>
  <linearGradient id="a">
   <stop stop-color="#dbe3db" offset="0"/>
   <stop stop-color="#dbe3db" stop-opacity="0" offset="1"/>
  </linearGradient>
  <linearGradient id="c" x1="342.19" x2="358.08" y1="705.76" y2="523.41" gradientTransform="matrix(1.1571 0 0 1.3167 -91.204 -253.99)" gradientUnits="userSpaceOnUse" xlink:href="#a"/>
  <linearGradient id="b" x1="405.26" x2="405.75" y1="118.06" y2="360.92" gradientTransform="matrix(.95303 0 0 .86647 11.575 -4.5016)" gradientUnits="userSpaceOnUse" xlink:href="#a"/>
 </defs>
&gt;
 <g transform="translate(90,90)">
  <path d="m95,56h398a57,57 0 0,1 57,57v398a57,57 0 0,1 -57,57h-398a57,57 0 0,1 -57-57v-398a57,57 0 0,1 57-57" filter="url(#d)" stroke="#a8a8a8" stroke-width="5"/>
 </g>
 <g transform="translate(128,128)" clip-path="url(#f)">
  <path d="m57,0h398a57,57 0 0,1 57,57v398a57,57 0 0,1 -57,57h-398a57,57 0 0,1 -57-57v-398a57,57 0 0,1 57-57" fill="#00f"/>
  <path d="m-114.94 0.06453h307.43v511.87h-307.43z" fill="#090"/>
  <path d="m191.82 0h461.15v512h-461.15z" fill="#f00" fill-rule="evenodd"/>
  <g transform="matrix(.10329 0 0 .10306 23.562 74.592)" fill-rule="evenodd" font-size="12">
   <g transform="matrix(-.0534 1.0792 .43966 -.04359 1384.9 -475.58)">
    <path d="m1528.3 376.91h171.54v2824.2h-171.54z"/>
    <path d="m1548.3 404.6h131.37v2768.8h-131.37z" fill="#efef00"/>
    <g transform="translate(9.3838 -3.0518e-5)">
     <path d="m1482.6 357.96h56.303v2852.7h-56.303z"/>
     <path d="m1502.8 383.29h15.952v2802h-15.952z" fill="#efef00"/>
    </g>
    <g transform="translate(197.06 -3.0518e-5)">
     <path d="m1482.6 357.96h56.303v2852.7h-56.303z"/>
     <path d="m1502.8 383.29h15.952v2802h-15.952z" fill="#efef00"/>
    </g>
   </g>
   <g transform="matrix(-.0534 1.0792 .43966 -.04359 1572.6 115.61)">
    <path d="m1528.3 376.91h171.54v2824.2h-171.54z"/>
    <path d="m1548.3 404.6h131.37v2768.8h-131.37z" fill="#efef00"/>
    <g transform="translate(9.3838 -3.0518e-5)">
     <path d="m1482.6 357.96h56.303v2852.7h-56.303z"/>
     <path d="m1502.8 383.29h15.952v2802h-15.952z" fill="#efef00"/>
    </g>
    <g transform="translate(197.06 -3.0518e-5)">
     <path d="m1482.6 357.96h56.303v2852.7h-56.303z"/>
     <path d="m1502.8 383.29h15.952v2802h-15.952z" fill="#efef00"/>
    </g>
   </g>
   <g transform="matrix(-.0534 1.0792 .43966 -.04359 1497.5 781.86)">
    <path d="m1528.3 376.91h171.54v2824.2h-171.54z"/>
    <path d="m1548.3 404.6h131.37v2768.8h-131.37z" fill="#efef00"/>
    <g transform="translate(9.3838 -3.0518e-5)">
     <path d="m1482.6 357.96h56.303v2852.7h-56.303z"/>
     <path d="m1502.8 383.29h15.952v2802h-15.952z" fill="#efef00"/>
    </g>
    <g transform="translate(197.06 -3.0518e-5)">
     <path d="m1482.6 357.96h56.303v2852.7h-56.303z"/>
     <path d="m1502.8 383.29h15.952v2802h-15.952z" fill="#efef00"/>
    </g>
   </g>
   <g transform="matrix(.0534 1.0792 -.43966 -.04359 1815 734.94)">
    <path d="m1528.3 376.91h171.54v2824.2h-171.54z"/>
    <path d="m1548.3 404.6h131.37v2768.8h-131.37z" fill="#efef00"/>
    <g transform="translate(9.3838 -3.0518e-5)">
     <path d="m1482.6 357.96h56.303v2852.7h-56.303z"/>
     <path d="m1502.8 383.29h15.952v2802h-15.952z" fill="#efef00"/>
    </g>
    <g transform="translate(197.06 -3.0518e-5)">
     <path d="m1482.6 357.96h56.303v2852.7h-56.303z"/>
     <path d="m1502.8 383.29h15.952v2802h-15.952z" fill="#efef00"/>
    </g>
   </g>
   <g transform="matrix(-.31851 .97312 -.46881 -.05 2307.7 363.88)">
    <path d="m1528.3 376.91h171.54v2824.2h-171.54z"/>
    <path d="m1548.3 404.6h131.37v2768.8h-131.37z" fill="#efef00"/>
    <g transform="translate(9.3838 -3.0518e-5)">
     <path d="m1482.6 357.96h56.303v2852.7h-56.303z"/>
     <path d="m1502.8 383.29h15.952v2802h-15.952z" fill="#efef00"/>
    </g>
    <g transform="translate(197.06 -3.0518e-5)">
     <path d="m1482.6 357.96h56.303v2852.7h-56.303z"/>
     <path d="m1502.8 383.29h15.952v2802h-15.952z" fill="#efef00"/>
    </g>
   </g>
   <g transform="matrix(-.78495 .83247 -.34476 -.23585 2811.1 622.21)">
    <path d="m1528.3 376.91h171.54v2824.2h-171.54z"/>
    <path d="m1548.3 404.6h131.37v2768.8h-131.37z" fill="#efef00"/>
    <g transform="translate(9.3838 -3.0518e-5)">
     <path d="m1482.6 357.96h56.303v2852.7h-56.303z"/>
     <path d="m1502.8 383.29h15.952v2802h-15.952z" fill="#efef00"/>
    </g>
    <g transform="translate(197.06 -3.0518e-5)">
     <path d="m1482.6 357.96h56.303v2852.7h-56.303z"/>
     <path d="m1502.8 383.29h15.952v2802h-15.952z" fill="#efef00"/>
    </g>
   </g>
   <path transform="translate(3294 2488.2)" d="m-576.02-680.03c0.472 617.58-500.34 1118.8-1117.9 1118.8-617.58 0.981-1119.2-499.44-1119.7-1117-1.49-617.6 498.53-1119.6 1116.1-1120.6 617.58-1.96 1120 497.67 1121.5 1115.2 0.026 1.253 0.026 2.31 0.026 3.564zm262.44-1e-3c0.582 762.45-617.7 1381.2-1380.1 1381.2-762.44 1.211-1381.8-616.6-1382.3-1379-1.85-762.47 615.47-1382.2 1377.9-1383.4 762.45-2.42 1382.7 614.41 1384.5 1376.8 0.032 1.547 0.032 2.852 0.032 4.399z" fill="#efef00" fill-opacity=".9997"/>
   <path transform="matrix(.98 0 0 .98 2662 -764.51)" d="m296.75 2625.1c0.582 762.45-617.7 1381.2-1380.1 1381.2-762.45 1.21-1381.8-616.6-1382.4-1379-1.84-762.46 615.48-1382.2 1378-1383.4 762.45-2.42 1382.7 614.41 1384.5 1376.8 0.032 1.55 0.032 2.86 0.032 4.4zm-27.624 0c0.57 747.2-605.35 1353.6-1352.5 1353.6-747.2 1.18-1354.1-604.27-1354.7-1351.5-1.81-747.21 603.16-1354.6 1350.4-1355.8 747.2-2.38 1355 602.11 1356.8 1349.3 0.032 1.52 0.032 2.8 0.032 4.31z"/>
   <path transform="matrix(.85016 0 0 .85016 2521.2 -423.66)" d="m296.75 2625.1c0.582 762.45-617.7 1381.2-1380.1 1381.2-762.45 1.21-1381.8-616.6-1382.4-1379-1.84-762.46 615.48-1382.2 1378-1383.4 762.45-2.42 1382.7 614.41 1384.5 1376.8 0.032 1.55 0.032 2.86 0.032 4.4zm-27.624 0c0.57 747.2-605.35 1353.6-1352.5 1353.6-747.2 1.18-1354.1-604.27-1354.7-1351.5-1.81-747.21 603.16-1354.6 1350.4-1355.8 747.2-2.38 1355 602.11 1356.8 1349.3 0.032 1.52 0.032 2.8 0.032 4.31z"/>
   <g transform="matrix(1 0 0 .98355 9.3838 52.807)">
    <path d="m1528.3 376.91h171.54v2824.2h-171.54z"/>
    <path d="m1548.3 404.6h131.37v2768.8h-131.37z" fill="#efef00"/>
    <g transform="translate(9.3838 -3.0518e-5)">
     <path d="m1482.6 357.96h56.303v2852.7h-56.303z"/>
     <path d="m1502.8 383.29h15.952v2802h-15.952z" fill="#efef00"/>
    </g>
    <g transform="translate(197.06 -3.0518e-5)">
     <path d="m1482.6 357.96h56.303v2852.7h-56.303z"/>
     <path d="m1502.8 383.29h15.952v2802h-15.952z" fill="#efef00"/>
    </g>
   </g>
   <g transform="matrix(.3714 1.0146 -.43278 .08892 1148.7 461.89)">
    <path d="m1528.3 376.91h171.54v2824.2h-171.54z"/>
    <path d="m1548.3 404.6h131.37v2768.8h-131.37z" fill="#efef00"/>
    <g transform="translate(9.3838 -3.0518e-5)">
     <path d="m1482.6 357.96h56.303v2852.7h-56.303z"/>
     <path d="m1502.8 383.29h15.952v2802h-15.952z" fill="#efef00"/>
    </g>
    <g transform="translate(197.06 -3.0518e-5)">
     <path d="m1482.6 357.96h56.303v2852.7h-56.303z"/>
     <path d="m1502.8 383.29h15.952v2802h-15.952z" fill="#efef00"/>
    </g>
   </g>
   <g transform="matrix(.04818 1.0353 -.45375 .04928 1585.8 -73.118)">
    <path d="m1528.3 376.91h171.54v2824.2h-171.54z"/>
    <path d="m1548.3 404.6h131.37v2768.8h-131.37z" fill="#efef00"/>
    <g transform="translate(9.3838 -3.0518e-5)">
     <path d="m1482.6 357.96h56.303v2852.7h-56.303z"/>
     <path d="m1502.8 383.29h15.952v2802h-15.952z" fill="#efef00"/>
    </g>
    <g transform="translate(197.06 -3.0518e-5)">
     <path d="m1482.6 357.96h56.303v2852.7h-56.303z"/>
     <path d="m1502.8 383.29h15.952v2802h-15.952z" fill="#efef00"/>
    </g>
   </g>
   <g transform="matrix(-.61913 .96221 -.38214 -.16868 2610.1 86.531)">
    <path d="m1528.3 376.91h171.54v2824.2h-171.54z"/>
    <path d="m1548.3 404.6h131.37v2768.8h-131.37z" fill="#efef00"/>
    <g transform="translate(9.3838 -3.0518e-5)">
     <path d="m1482.6 357.96h56.303v2852.7h-56.303z"/>
     <path d="m1502.8 383.29h15.952v2802h-15.952z" fill="#efef00"/>
    </g>
    <g transform="translate(197.06 -3.0518e-5)">
     <path d="m1482.6 357.96h56.303v2852.7h-56.303z"/>
     <path d="m1502.8 383.29h15.952v2802h-15.952z" fill="#efef00"/>
    </g>
   </g>
   <g transform="matrix(-.0134 1.0347 -.45603 -.02215 3190.7 -29.14)">
    <path d="m1528.3 376.91h171.54v2824.2h-171.54z"/>
    <path d="m1548.3 404.6h131.37v2768.8h-131.37z" fill="#efef00"/>
    <g transform="translate(9.3838 -3.0518e-5)">
     <path d="m1482.6 357.96h56.303v2852.7h-56.303z"/>
     <path d="m1502.8 383.29h15.952v2802h-15.952z" fill="#efef00"/>
    </g>
    <g transform="translate(197.06 -3.0518e-5)">
     <path d="m1482.6 357.96h56.303v2852.7h-56.303z"/>
     <path d="m1502.8 383.29h15.952v2802h-15.952z" fill="#efef00"/>
    </g>
   </g>
   <g transform="matrix(.29417 .92656 -.37653 -.01188 2458.6 -379.7)">
    <path d="m1528.3 376.91h171.54v2824.2h-171.54z"/>
    <path d="m1548.3 404.6h131.37v2768.8h-131.37z" fill="#efef00"/>
    <g transform="translate(9.3838 -3.0518e-5)">
     <path d="m1482.6 357.96h56.303v2852.7h-56.303z"/>
     <path d="m1502.8 383.29h15.952v2802h-15.952z" fill="#efef00"/>
    </g>
    <g transform="translate(197.06 -3.0518e-5)">
     <path d="m1482.6 357.96h56.303v2852.7h-56.303z"/>
     <path d="m1502.8 383.29h15.952v2802h-15.952z" fill="#efef00"/>
    </g>
   </g>
   <g transform="matrix(-.44645 .96157 -.41974 -.15349 3749.8 876.84)">
    <path d="m1528.3 376.91h171.54v2824.2h-171.54z"/>
    <path d="m1548.3 404.6h131.37v2768.8h-131.37z" fill="#efef00"/>
    <g transform="translate(9.3838 -3.0518e-5)">
     <path d="m1482.6 357.96h56.303v2852.7h-56.303z"/>
     <path d="m1502.8 383.29h15.952v2802h-15.952z" fill="#efef00"/>
    </g>
    <g transform="translate(197.06 -3.0518e-5)">
     <path d="m1482.6 357.96h56.303v2852.7h-56.303z"/>
     <path d="m1502.8 383.29h15.952v2802h-15.952z" fill="#efef00"/>
    </g>
   </g>
   <g transform="translate(1650.2 8043)" fill="#f6f6fb">
    <path d="m-850.89-7147h1590.9v1171.1h-1590.9z"/>
    <path transform="matrix(1.0746 0 0 1.0635 -3130.4 -10547)" d="m3601.6 4267.3a740.21 696.02 0 1 0 -1480.4 0 740.21 696.02 0 1 0 1480.4 0"/>
    <g transform="translate(-5963.8 -3463.6)">
     <path d="m5478.8-3340.7h859.09v632.38h-859.09z"/>
     <path transform="matrix(.5803 0 0 .57429 4247.9 -5088.5)" d="m3601.6 4267.3a740.21 696.02 0 1 0 -1480.4 0 740.21 696.02 0 1 0 1480.4 0"/>
    </g>
   </g>
   <g transform="matrix(.95 0 0 .95 1647.4 7732.6)" fill="#f00">
    <path d="m-850.89-7147h1590.9v1171.1h-1590.9z"/>
    <path transform="matrix(1.0746 0 0 1.0635 -3130.4 -10547)" d="m3601.6 4267.3a740.21 696.02 0 1 0 -1480.4 0 740.21 696.02 0 1 0 1480.4 0"/>
    <g transform="translate(-5963.8 -3463.6)">
     <path d="m5478.8-3340.7h859.09v632.38h-859.09z"/>
     <path transform="matrix(.5803 0 0 .57429 4247.9 -5088.5)" d="m3601.6 4267.3a740.21 696.02 0 1 0 -1480.4 0 740.21 696.02 0 1 0 1480.4 0"/>
    </g>
   </g>
   <g transform="matrix(.567 0 0 .567 1626.2 5355)" fill="#400">
    <path d="m-850.89-7147h1590.9v1171.1h-1590.9z"/>
    <path transform="matrix(1.0746 0 0 1.0635 -3130.4 -10547)" d="m3601.6 4267.3a740.21 696.02 0 1 0 -1480.4 0 740.21 696.02 0 1 0 1480.4 0"/>
    <g transform="translate(-5963.8 -3463.6)">
     <path d="m5478.8-3340.7h859.09v632.38h-859.09z"/>
     <path transform="matrix(.5803 0 0 .57429 4247.9 -5088.5)" d="m3601.6 4267.3a740.21 696.02 0 1 0 -1480.4 0 740.21 696.02 0 1 0 1480.4 0"/>
    </g>
   </g>
   <g transform="matrix(.51172 0 0 .51172 1623.1 5011.8)" fill="#fff">
    <path d="m-850.89-7147h1590.9v1171.1h-1590.9z"/>
    <path transform="matrix(1.0746 0 0 1.0635 -3130.4 -10547)" d="m3601.6 4267.3a740.21 696.02 0 1 0 -1480.4 0 740.21 696.02 0 1 0 1480.4 0"/>
    <g transform="translate(-5963.8 -3463.6)">
     <path d="m5478.8-3340.7h859.09v632.38h-859.09z"/>
     <path transform="matrix(.5803 0 0 .57429 4247.9 -5088.5)" d="m3601.6 4267.3a740.21 696.02 0 1 0 -1480.4 0 740.21 696.02 0 1 0 1480.4 0"/>
    </g>
   </g>
   <g fill="#3b3bff">
    <g transform="matrix(.15 0 0 .15 1609.2 3067.1)">
     <path d="m-850.89-7147h1590.9v1171.1h-1590.9z"/>
     <path transform="matrix(1.0746 0 0 1.0635 -3130.4 -10547)" d="m3601.6 4267.3a740.21 696.02 0 1 0 -1480.4 0 740.21 696.02 0 1 0 1480.4 0"/>
     <g transform="translate(-5963.8 -3463.6)">
      <path d="m5478.8-3340.7h859.09v632.38h-859.09z"/>
      <path transform="matrix(.5803 0 0 .57429 4247.9 -5088.5)" d="m3601.6 4267.3a740.21 696.02 0 1 0 -1480.4 0 740.21 696.02 0 1 0 1480.4 0"/>
     </g>
    </g>
    <g transform="matrix(.1425 0 0 .1425 1608.8 3020.6)">
     <path d="m-850.89-7147h1590.9v1171.1h-1590.9z"/>
     <path transform="matrix(1.0746 0 0 1.0635 -3130.4 -10547)" d="m3601.6 4267.3a740.21 696.02 0 1 0 -1480.4 0 740.21 696.02 0 1 0 1480.4 0"/>
     <g transform="translate(-5963.8 -3463.6)">
      <path d="m5478.8-3340.7h859.09v632.38h-859.09z"/>
      <path transform="matrix(.5803 0 0 .57429 4247.9 -5088.5)" d="m3601.6 4267.3a740.21 696.02 0 1 0 -1480.4 0 740.21 696.02 0 1 0 1480.4 0"/>
     </g>
    </g>
    <g transform="matrix(.08505 0 0 .08505 1605.6 2663.9)">
     <path d="m-850.89-7147h1590.9v1171.1h-1590.9z"/>
     <path transform="matrix(1.0746 0 0 1.0635 -3130.4 -10547)" d="m3601.6 4267.3a740.21 696.02 0 1 0 -1480.4 0 740.21 696.02 0 1 0 1480.4 0"/>
     <g transform="translate(-5963.8 -3463.6)">
      <path d="m5478.8-3340.7h859.09v632.38h-859.09z"/>
      <path transform="matrix(.5803 0 0 .57429 4247.9 -5088.5)" d="m3601.6 4267.3a740.21 696.02 0 1 0 -1480.4 0 740.21 696.02 0 1 0 1480.4 0"/>
     </g>
    </g>
    <g transform="matrix(.07676 0 0 .07676 1605.2 2612.5)">
     <path d="m-850.89-7147h1590.9v1171.1h-1590.9z"/>
     <path transform="matrix(1.0746 0 0 1.0635 -3130.4 -10547)" d="m3601.6 4267.3a740.21 696.02 0 1 0 -1480.4 0 740.21 696.02 0 1 0 1480.4 0"/>
     <g transform="translate(-5963.8 -3463.6)">
      <path d="m5478.8-3340.7h859.09v632.38h-859.09z"/>
      <path transform="matrix(.5803 0 0 .57429 4247.9 -5088.5)" d="m3601.6 4267.3a740.21 696.02 0 1 0 -1480.4 0 740.21 696.02 0 1 0 1480.4 0"/>
     </g>
    </g>
   </g>
   <path transform="translate(-1373.8 3899.7)" d="m2938.7-1854.9a35.688 35.688 0 1 0 -71.376 0 35.688 35.688 0 1 0 71.376 0" fill="#fff"/>
   <path transform="translate(-1240 3899.7)" d="m2938.7-1854.9a35.688 35.688 0 1 0 -71.376 0 35.688 35.688 0 1 0 71.376 0" fill="#fff"/>
   <path transform="translate(-1308.1 3974.9)" d="m2938.7-1854.9a35.688 35.688 0 1 0 -71.376 0 35.688 35.688 0 1 0 71.376 0" fill="#fff"/>
   <path transform="translate(-1368.6 4047.7)" d="m2938.7-1854.9a35.688 35.688 0 1 0 -71.376 0 35.688 35.688 0 1 0 71.376 0" fill="#fff"/>
   <path transform="translate(-1241.5 4050.1)" d="m2938.7-1854.9a35.688 35.688 0 1 0 -71.376 0 35.688 35.688 0 1 0 71.376 0" fill="#fff"/>
   <path transform="translate(1296.7 561.41)" d="m-433.9 545.04v22.689h302.52v-22.689h-302.52zm26.249-62.601v63.152h257.14v-63.152h-257.14zm-22.688 207.62v22.692h302.52v-22.692h-302.52zm81.069-7.017c-0.031-41.191 31.622-74.621 70.654-74.621 39.033-0.066 70.737 33.311 70.768 74.502 0 0.327-1e-3 0.602-4e-3 0.928m-149.28 3.292c-0.034-45.769 35.136-82.913 78.505-82.913 43.37-0.073 78.596 37.012 78.63 82.78 1e-3 0.363 0 0.669-4e-3 1.031m-207.65-114.09v113.44h257.14v-113.44h-257.14zm-26.25-113.15v21.46h302.52v-21.46h-302.52zm-0.027-30.268v30.484h23.308v-30.484h-23.308zm279.36 0v30.484h23.308v-30.484h-23.308zm-232.9 0.612v30.484h23.308v-30.484h-23.308zm185.22-0.618v30.484h23.308v-30.484h-23.308zm-139.99-28.725v30.484h23.308v-30.484h-23.308zm92.917-6e-3v30.484h23.308v-30.484h-23.308zm-45.236-0.612v30.484h23.308v-30.484h-23.308zm-47.745 31.32v29.144h116.15v-29.144h-116.15z" fill="#ff0"/>
   <g transform="translate(1302.4 561.96)" fill="#f00">
    <path d="m-348.96 477.6h23.308v30.484h-23.308z"/>
    <path d="m-244.43 476.98h23.308v30.484h-23.308z"/>
   </g>
   <path transform="translate(2457.9 565.04)" d="m-433.9 545.04v22.689h302.52v-22.689h-302.52zm26.249-62.601v63.152h257.14v-63.152h-257.14zm-22.688 207.62v22.692h302.52v-22.692h-302.52zm81.069-7.017c-0.031-41.191 31.622-74.621 70.654-74.621 39.033-0.066 70.737 33.311 70.768 74.502 0 0.327-1e-3 0.602-4e-3 0.928m-149.28 3.292c-0.034-45.769 35.136-82.913 78.505-82.913 43.37-0.073 78.596 37.012 78.63 82.78 1e-3 0.363 0 0.669-4e-3 1.031m-207.65-114.09v113.44h257.14v-113.44h-257.14zm-26.25-113.15v21.46h302.52v-21.46h-302.52zm-0.027-30.268v30.484h23.308v-30.484h-23.308zm279.36 0v30.484h23.308v-30.484h-23.308zm-232.9 0.612v30.484h23.308v-30.484h-23.308zm185.22-0.618v30.484h23.308v-30.484h-23.308zm-139.99-28.725v30.484h23.308v-30.484h-23.308zm92.917-6e-3v30.484h23.308v-30.484h-23.308zm-45.236-0.612v30.484h23.308v-30.484h-23.308zm-47.745 31.32v29.144h116.15v-29.144h-116.15z" fill="#ff0"/>
   <g transform="translate(2463.5 565.59)" fill="#f00">
    <path d="m-348.96 477.6h23.308v30.484h-23.308z"/>
    <path d="m-244.43 476.98h23.308v30.484h-23.308z"/>
   </g>
   <path transform="translate(1888.2 565.04)" d="m-433.9 545.04v22.689h302.52v-22.689h-302.52zm26.249-62.601v63.152h257.14v-63.152h-257.14zm-22.688 207.62v22.692h302.52v-22.692h-302.52zm81.069-7.017c-0.031-41.191 31.622-74.621 70.654-74.621 39.033-0.066 70.737 33.311 70.768 74.502 0 0.327-1e-3 0.602-4e-3 0.928m-149.28 3.292c-0.034-45.769 35.136-82.913 78.505-82.913 43.37-0.073 78.596 37.012 78.63 82.78 1e-3 0.363 0 0.669-4e-3 1.031m-207.65-114.09v113.44h257.14v-113.44h-257.14zm-26.25-113.15v21.46h302.52v-21.46h-302.52zm-0.027-30.268v30.484h23.308v-30.484h-23.308zm279.36 0v30.484h23.308v-30.484h-23.308zm-232.9 0.612v30.484h23.308v-30.484h-23.308zm185.22-0.618v30.484h23.308v-30.484h-23.308zm-139.99-28.725v30.484h23.308v-30.484h-23.308zm92.917-6e-3v30.484h23.308v-30.484h-23.308zm-45.236-0.612v30.484h23.308v-30.484h-23.308zm-47.745 31.32v29.144h116.15v-29.144h-116.15z" fill="#ff0"/>
   <g transform="translate(1893.8 565.59)" fill="#f00">
    <path d="m-348.96 477.6h23.308v30.484h-23.308z"/>
    <path d="m-244.43 476.98h23.308v30.484h-23.308z"/>
   </g>
   <path transform="translate(1271.3 1272.6)" d="m-433.9 545.04v22.689h302.52v-22.689h-302.52zm26.249-62.601v63.152h257.14v-63.152h-257.14zm-22.688 207.62v22.692h302.52v-22.692h-302.52zm81.069-7.017c-0.031-41.191 31.622-74.621 70.654-74.621 39.033-0.066 70.737 33.311 70.768 74.502 0 0.327-1e-3 0.602-4e-3 0.928m-149.28 3.292c-0.034-45.769 35.136-82.913 78.505-82.913 43.37-0.073 78.596 37.012 78.63 82.78 1e-3 0.363 0 0.669-4e-3 1.031m-207.65-114.09v113.44h257.14v-113.44h-257.14zm-26.25-113.15v21.46h302.52v-21.46h-302.52zm-0.027-30.268v30.484h23.308v-30.484h-23.308zm279.36 0v30.484h23.308v-30.484h-23.308zm-232.9 0.612v30.484h23.308v-30.484h-23.308zm185.22-0.618v30.484h23.308v-30.484h-23.308zm-139.99-28.725v30.484h23.308v-30.484h-23.308zm92.917-6e-3v30.484h23.308v-30.484h-23.308zm-45.236-0.612v30.484h23.308v-30.484h-23.308zm-47.745 31.32v29.144h116.15v-29.144h-116.15z" fill="#ff0"/>
   <g transform="translate(1277 1273.2)" fill="#f00">
    <path d="m-348.96 477.6h23.308v30.484h-23.308z"/>
    <path d="m-244.43 476.98h23.308v30.484h-23.308z"/>
   </g>
   <path transform="translate(2479.7 1265.4)" d="m-433.9 545.04v22.689h302.52v-22.689h-302.52zm26.249-62.601v63.152h257.14v-63.152h-257.14zm-22.688 207.62v22.692h302.52v-22.692h-302.52zm81.069-7.017c-0.031-41.191 31.622-74.621 70.654-74.621 39.033-0.066 70.737 33.311 70.768 74.502 0 0.327-1e-3 0.602-4e-3 0.928m-149.28 3.292c-0.034-45.769 35.136-82.913 78.505-82.913 43.37-0.073 78.596 37.012 78.63 82.78 1e-3 0.363 0 0.669-4e-3 1.031m-207.65-114.09v113.44h257.14v-113.44h-257.14zm-26.25-113.15v21.46h302.52v-21.46h-302.52zm-0.027-30.268v30.484h23.308v-30.484h-23.308zm279.36 0v30.484h23.308v-30.484h-23.308zm-232.9 0.612v30.484h23.308v-30.484h-23.308zm185.22-0.618v30.484h23.308v-30.484h-23.308zm-139.99-28.725v30.484h23.308v-30.484h-23.308zm92.917-6e-3v30.484h23.308v-30.484h-23.308zm-45.236-0.612v30.484h23.308v-30.484h-23.308zm-47.745 31.32v29.144h116.15v-29.144h-116.15z" fill="#ff0"/>
   <g transform="translate(2485.3 1265.9)" fill="#f00">
    <path d="m-348.96 477.6h23.308v30.484h-23.308z"/>
    <path d="m-244.43 476.98h23.308v30.484h-23.308z"/>
   </g>
   <path transform="matrix(.65276 -.75757 .75757 .65276 969.57 1819.3)" d="m-433.9 545.04v22.689h302.52v-22.689h-302.52zm26.249-62.601v63.152h257.14v-63.152h-257.14zm-22.688 207.62v22.692h302.52v-22.692h-302.52zm81.069-7.017c-0.031-41.191 31.622-74.621 70.654-74.621 39.033-0.066 70.737 33.311 70.768 74.502 0 0.327-1e-3 0.602-4e-3 0.928m-149.28 3.292c-0.034-45.769 35.136-82.913 78.505-82.913 43.37-0.073 78.596 37.012 78.63 82.78 1e-3 0.363 0 0.669-4e-3 1.031m-207.65-114.09v113.44h257.14v-113.44h-257.14zm-26.25-113.15v21.46h302.52v-21.46h-302.52zm-0.027-30.268v30.484h23.308v-30.484h-23.308zm279.36 0v30.484h23.308v-30.484h-23.308zm-232.9 0.612v30.484h23.308v-30.484h-23.308zm185.22-0.618v30.484h23.308v-30.484h-23.308zm-139.99-28.725v30.484h23.308v-30.484h-23.308zm92.917-6e-3v30.484h23.308v-30.484h-23.308zm-45.236-0.612v30.484h23.308v-30.484h-23.308zm-47.745 31.32v29.144h116.15v-29.144h-116.15z" fill="#ff0"/>
   <g transform="matrix(.65276 -.75757 .75757 .65276 973.66 1815.4)" fill="#f00">
    <path d="m-348.96 477.6h23.308v30.484h-23.308z"/>
    <path d="m-244.43 476.98h23.308v30.484h-23.308z"/>
   </g>
   <path transform="matrix(-.65276 -.75757 -.75757 .65276 2231 1815.7)" d="m-433.9 545.04v22.689h302.52v-22.689h-302.52zm26.249-62.601v63.152h257.14v-63.152h-257.14zm-22.688 207.62v22.692h302.52v-22.692h-302.52zm81.069-7.017c-0.031-41.191 31.622-74.621 70.654-74.621 39.033-0.066 70.737 33.311 70.768 74.502 0 0.327-1e-3 0.602-4e-3 0.928m-149.28 3.292c-0.034-45.769 35.136-82.913 78.505-82.913 43.37-0.073 78.596 37.012 78.63 82.78 1e-3 0.363 0 0.669-4e-3 1.031m-207.65-114.09v113.44h257.14v-113.44h-257.14zm-26.25-113.15v21.46h302.52v-21.46h-302.52zm-0.027-30.268v30.484h23.308v-30.484h-23.308zm279.36 0v30.484h23.308v-30.484h-23.308zm-232.9 0.612v30.484h23.308v-30.484h-23.308zm185.22-0.618v30.484h23.308v-30.484h-23.308zm-139.99-28.725v30.484h23.308v-30.484h-23.308zm92.917-6e-3v30.484h23.308v-30.484h-23.308zm-45.236-0.612v30.484h23.308v-30.484h-23.308zm-47.745 31.32v29.144h116.15v-29.144h-116.15z" fill="#ff0"/>
   <g transform="matrix(-.65276 -.75757 -.75757 .65276 2226.9 1811.8)" fill="#f00">
    <path d="m-348.96 477.6h23.308v30.484h-23.308z"/>
    <path d="m-244.43 476.98h23.308v30.484h-23.308z"/>
   </g>
   <g fill="#3b3bff">
    <g transform="matrix(.15 0 0 .15 1605.4 2443.2)">
     <path d="m-850.89-7147h1590.9v1171.1h-1590.9z"/>
     <path transform="matrix(1.0746 0 0 1.0635 -3130.4 -10547)" d="m3601.6 4267.3a740.21 696.02 0 1 0 -1480.4 0 740.21 696.02 0 1 0 1480.4 0"/>
     <g transform="translate(-5963.8 -3463.6)">
      <path d="m5478.8-3340.7h859.09v632.38h-859.09z"/>
      <path transform="matrix(.5803 0 0 .57429 4247.9 -5088.5)" d="m3601.6 4267.3a740.21 696.02 0 1 0 -1480.4 0 740.21 696.02 0 1 0 1480.4 0"/>
     </g>
    </g>
    <g transform="matrix(.1425 0 0 .1425 1605 2396.6)">
     <path d="m-850.89-7147h1590.9v1171.1h-1590.9z"/>
     <path transform="matrix(1.0746 0 0 1.0635 -3130.4 -10547)" d="m3601.6 4267.3a740.21 696.02 0 1 0 -1480.4 0 740.21 696.02 0 1 0 1480.4 0"/>
     <g transform="translate(-5963.8 -3463.6)">
      <path d="m5478.8-3340.7h859.09v632.38h-859.09z"/>
      <path transform="matrix(.5803 0 0 .57429 4247.9 -5088.5)" d="m3601.6 4267.3a740.21 696.02 0 1 0 -1480.4 0 740.21 696.02 0 1 0 1480.4 0"/>
     </g>
    </g>
    <g transform="matrix(.08505 0 0 .08505 1601.8 2040)">
     <path d="m-850.89-7147h1590.9v1171.1h-1590.9z"/>
     <path transform="matrix(1.0746 0 0 1.0635 -3130.4 -10547)" d="m3601.6 4267.3a740.21 696.02 0 1 0 -1480.4 0 740.21 696.02 0 1 0 1480.4 0"/>
     <g transform="translate(-5963.8 -3463.6)">
      <path d="m5478.8-3340.7h859.09v632.38h-859.09z"/>
      <path transform="matrix(.5803 0 0 .57429 4247.9 -5088.5)" d="m3601.6 4267.3a740.21 696.02 0 1 0 -1480.4 0 740.21 696.02 0 1 0 1480.4 0"/>
     </g>
    </g>
    <g transform="matrix(.07676 0 0 .07676 1601.4 1988.5)">
     <path d="m-850.89-7147h1590.9v1171.1h-1590.9z"/>
     <path transform="matrix(1.0746 0 0 1.0635 -3130.4 -10547)" d="m3601.6 4267.3a740.21 696.02 0 1 0 -1480.4 0 740.21 696.02 0 1 0 1480.4 0"/>
     <g transform="translate(-5963.8 -3463.6)">
      <path d="m5478.8-3340.7h859.09v632.38h-859.09z"/>
      <path transform="matrix(.5803 0 0 .57429 4247.9 -5088.5)" d="m3601.6 4267.3a740.21 696.02 0 1 0 -1480.4 0 740.21 696.02 0 1 0 1480.4 0"/>
     </g>
    </g>
   </g>
   <path transform="translate(-1377.6 3275.8)" d="m2938.7-1854.9a35.688 35.688 0 1 0 -71.376 0 35.688 35.688 0 1 0 71.376 0" fill="#fff"/>
   <path transform="translate(-1243.8 3275.8)" d="m2938.7-1854.9a35.688 35.688 0 1 0 -71.376 0 35.688 35.688 0 1 0 71.376 0" fill="#fff"/>
   <path transform="translate(-1311.9 3351)" d="m2938.7-1854.9a35.688 35.688 0 1 0 -71.376 0 35.688 35.688 0 1 0 71.376 0" fill="#fff"/>
   <path transform="translate(-1372.4 3423.7)" d="m2938.7-1854.9a35.688 35.688 0 1 0 -71.376 0 35.688 35.688 0 1 0 71.376 0" fill="#fff"/>
   <path transform="translate(-1245.2 3426.1)" d="m2938.7-1854.9a35.688 35.688 0 1 0 -71.376 0 35.688 35.688 0 1 0 71.376 0" fill="#fff"/>
   <g fill="#3b3bff">
    <g transform="matrix(.15 0 0 .15 1605.4 2753.3)">
     <path d="m-850.89-7147h1590.9v1171.1h-1590.9z"/>
     <path transform="matrix(1.0746 0 0 1.0635 -3130.4 -10547)" d="m3601.6 4267.3a740.21 696.02 0 1 0 -1480.4 0 740.21 696.02 0 1 0 1480.4 0"/>
     <g transform="translate(-5963.8 -3463.6)">
      <path d="m5478.8-3340.7h859.09v632.38h-859.09z"/>
      <path transform="matrix(.5803 0 0 .57429 4247.9 -5088.5)" d="m3601.6 4267.3a740.21 696.02 0 1 0 -1480.4 0 740.21 696.02 0 1 0 1480.4 0"/>
     </g>
    </g>
    <g transform="matrix(.1425 0 0 .1425 1605 2706.7)">
     <path d="m-850.89-7147h1590.9v1171.1h-1590.9z"/>
     <path transform="matrix(1.0746 0 0 1.0635 -3130.4 -10547)" d="m3601.6 4267.3a740.21 696.02 0 1 0 -1480.4 0 740.21 696.02 0 1 0 1480.4 0"/>
     <g transform="translate(-5963.8 -3463.6)">
      <path d="m5478.8-3340.7h859.09v632.38h-859.09z"/>
      <path transform="matrix(.5803 0 0 .57429 4247.9 -5088.5)" d="m3601.6 4267.3a740.21 696.02 0 1 0 -1480.4 0 740.21 696.02 0 1 0 1480.4 0"/>
     </g>
    </g>
    <g transform="matrix(.08505 0 0 .08505 1601.8 2350.1)">
     <path d="m-850.89-7147h1590.9v1171.1h-1590.9z"/>
     <path transform="matrix(1.0746 0 0 1.0635 -3130.4 -10547)" d="m3601.6 4267.3a740.21 696.02 0 1 0 -1480.4 0 740.21 696.02 0 1 0 1480.4 0"/>
     <g transform="translate(-5963.8 -3463.6)">
      <path d="m5478.8-3340.7h859.09v632.38h-859.09z"/>
      <path transform="matrix(.5803 0 0 .57429 4247.9 -5088.5)" d="m3601.6 4267.3a740.21 696.02 0 1 0 -1480.4 0 740.21 696.02 0 1 0 1480.4 0"/>
     </g>
    </g>
    <g transform="matrix(.07676 0 0 .07676 1601.4 2298.6)">
     <path d="m-850.89-7147h1590.9v1171.1h-1590.9z"/>
     <path transform="matrix(1.0746 0 0 1.0635 -3130.4 -10547)" d="m3601.6 4267.3a740.21 696.02 0 1 0 -1480.4 0 740.21 696.02 0 1 0 1480.4 0"/>
     <g transform="translate(-5963.8 -3463.6)">
      <path d="m5478.8-3340.7h859.09v632.38h-859.09z"/>
      <path transform="matrix(.5803 0 0 .57429 4247.9 -5088.5)" d="m3601.6 4267.3a740.21 696.02 0 1 0 -1480.4 0 740.21 696.02 0 1 0 1480.4 0"/>
     </g>
    </g>
   </g>
   <path transform="translate(-1377.6 3585.9)" d="m2938.7-1854.9a35.688 35.688 0 1 0 -71.376 0 35.688 35.688 0 1 0 71.376 0" fill="#fff"/>
   <path transform="translate(-1243.8 3585.9)" d="m2938.7-1854.9a35.688 35.688 0 1 0 -71.376 0 35.688 35.688 0 1 0 71.376 0" fill="#fff"/>
   <path transform="translate(-1311.9 3661)" d="m2938.7-1854.9a35.688 35.688 0 1 0 -71.376 0 35.688 35.688 0 1 0 71.376 0" fill="#fff"/>
   <path transform="translate(-1372.4 3733.8)" d="m2938.7-1854.9a35.688 35.688 0 1 0 -71.376 0 35.688 35.688 0 1 0 71.376 0" fill="#fff"/>
   <path transform="translate(-1245.2 3736.2)" d="m2938.7-1854.9a35.688 35.688 0 1 0 -71.376 0 35.688 35.688 0 1 0 71.376 0" fill="#fff"/>
   <g fill="#3b3bff">
    <g transform="matrix(.15 0 0 .15 1870.1 2753.3)">
     <path d="m-850.89-7147h1590.9v1171.1h-1590.9z"/>
     <path transform="matrix(1.0746 0 0 1.0635 -3130.4 -10547)" d="m3601.6 4267.3a740.21 696.02 0 1 0 -1480.4 0 740.21 696.02 0 1 0 1480.4 0"/>
     <g transform="translate(-5963.8 -3463.6)">
      <path d="m5478.8-3340.7h859.09v632.38h-859.09z"/>
      <path transform="matrix(.5803 0 0 .57429 4247.9 -5088.5)" d="m3601.6 4267.3a740.21 696.02 0 1 0 -1480.4 0 740.21 696.02 0 1 0 1480.4 0"/>
     </g>
    </g>
    <g transform="matrix(.1425 0 0 .1425 1869.7 2706.7)">
     <path d="m-850.89-7147h1590.9v1171.1h-1590.9z"/>
     <path transform="matrix(1.0746 0 0 1.0635 -3130.4 -10547)" d="m3601.6 4267.3a740.21 696.02 0 1 0 -1480.4 0 740.21 696.02 0 1 0 1480.4 0"/>
     <g transform="translate(-5963.8 -3463.6)">
      <path d="m5478.8-3340.7h859.09v632.38h-859.09z"/>
      <path transform="matrix(.5803 0 0 .57429 4247.9 -5088.5)" d="m3601.6 4267.3a740.21 696.02 0 1 0 -1480.4 0 740.21 696.02 0 1 0 1480.4 0"/>
     </g>
    </g>
    <g transform="matrix(.08505 0 0 .08505 1866.5 2350.1)">
     <path d="m-850.89-7147h1590.9v1171.1h-1590.9z"/>
     <path transform="matrix(1.0746 0 0 1.0635 -3130.4 -10547)" d="m3601.6 4267.3a740.21 696.02 0 1 0 -1480.4 0 740.21 696.02 0 1 0 1480.4 0"/>
     <g transform="translate(-5963.8 -3463.6)">
      <path d="m5478.8-3340.7h859.09v632.38h-859.09z"/>
      <path transform="matrix(.5803 0 0 .57429 4247.9 -5088.5)" d="m3601.6 4267.3a740.21 696.02 0 1 0 -1480.4 0 740.21 696.02 0 1 0 1480.4 0"/>
     </g>
    </g>
    <g transform="matrix(.07676 0 0 .07676 1866.1 2298.6)">
     <path d="m-850.89-7147h1590.9v1171.1h-1590.9z"/>
     <path transform="matrix(1.0746 0 0 1.0635 -3130.4 -10547)" d="m3601.6 4267.3a740.21 696.02 0 1 0 -1480.4 0 740.21 696.02 0 1 0 1480.4 0"/>
     <g transform="translate(-5963.8 -3463.6)">
      <path d="m5478.8-3340.7h859.09v632.38h-859.09z"/>
      <path transform="matrix(.5803 0 0 .57429 4247.9 -5088.5)" d="m3601.6 4267.3a740.21 696.02 0 1 0 -1480.4 0 740.21 696.02 0 1 0 1480.4 0"/>
     </g>
    </g>
   </g>
   <path transform="translate(-1112.9 3585.9)" d="m2938.7-1854.9a35.688 35.688 0 1 0 -71.376 0 35.688 35.688 0 1 0 71.376 0" fill="#fff"/>
   <path transform="translate(-979.12 3585.9)" d="m2938.7-1854.9a35.688 35.688 0 1 0 -71.376 0 35.688 35.688 0 1 0 71.376 0" fill="#fff"/>
   <path transform="translate(-1047.2 3661)" d="m2938.7-1854.9a35.688 35.688 0 1 0 -71.376 0 35.688 35.688 0 1 0 71.376 0" fill="#fff"/>
   <path transform="translate(-1107.7 3733.8)" d="m2938.7-1854.9a35.688 35.688 0 1 0 -71.376 0 35.688 35.688 0 1 0 71.376 0" fill="#fff"/>
   <path transform="translate(-980.53 3736.2)" d="m2938.7-1854.9a35.688 35.688 0 1 0 -71.376 0 35.688 35.688 0 1 0 71.376 0" fill="#fff"/>
   <g fill="#3b3bff">
    <g transform="matrix(.15 0 0 .15 1340.7 2753.3)">
     <path d="m-850.89-7147h1590.9v1171.1h-1590.9z"/>
     <path transform="matrix(1.0746 0 0 1.0635 -3130.4 -10547)" d="m3601.6 4267.3a740.21 696.02 0 1 0 -1480.4 0 740.21 696.02 0 1 0 1480.4 0"/>
     <g transform="translate(-5963.8 -3463.6)">
      <path d="m5478.8-3340.7h859.09v632.38h-859.09z"/>
      <path transform="matrix(.5803 0 0 .57429 4247.9 -5088.5)" d="m3601.6 4267.3a740.21 696.02 0 1 0 -1480.4 0 740.21 696.02 0 1 0 1480.4 0"/>
     </g>
    </g>
    <g transform="matrix(.1425 0 0 .1425 1340.3 2706.7)">
     <path d="m-850.89-7147h1590.9v1171.1h-1590.9z"/>
     <path transform="matrix(1.0746 0 0 1.0635 -3130.4 -10547)" d="m3601.6 4267.3a740.21 696.02 0 1 0 -1480.4 0 740.21 696.02 0 1 0 1480.4 0"/>
     <g transform="translate(-5963.8 -3463.6)">
      <path d="m5478.8-3340.7h859.09v632.38h-859.09z"/>
      <path transform="matrix(.5803 0 0 .57429 4247.9 -5088.5)" d="m3601.6 4267.3a740.21 696.02 0 1 0 -1480.4 0 740.21 696.02 0 1 0 1480.4 0"/>
     </g>
    </g>
    <g transform="matrix(.08505 0 0 .08505 1337.1 2350.1)">
     <path d="m-850.89-7147h1590.9v1171.1h-1590.9z"/>
     <path transform="matrix(1.0746 0 0 1.0635 -3130.4 -10547)" d="m3601.6 4267.3a740.21 696.02 0 1 0 -1480.4 0 740.21 696.02 0 1 0 1480.4 0"/>
     <g transform="translate(-5963.8 -3463.6)">
      <path d="m5478.8-3340.7h859.09v632.38h-859.09z"/>
      <path transform="matrix(.5803 0 0 .57429 4247.9 -5088.5)" d="m3601.6 4267.3a740.21 696.02 0 1 0 -1480.4 0 740.21 696.02 0 1 0 1480.4 0"/>
     </g>
    </g>
    <g transform="matrix(.07676 0 0 .07676 1336.7 2298.6)">
     <path d="m-850.89-7147h1590.9v1171.1h-1590.9z"/>
     <path transform="matrix(1.0746 0 0 1.0635 -3130.4 -10547)" d="m3601.6 4267.3a740.21 696.02 0 1 0 -1480.4 0 740.21 696.02 0 1 0 1480.4 0"/>
     <g transform="translate(-5963.8 -3463.6)">
      <path d="m5478.8-3340.7h859.09v632.38h-859.09z"/>
      <path transform="matrix(.5803 0 0 .57429 4247.9 -5088.5)" d="m3601.6 4267.3a740.21 696.02 0 1 0 -1480.4 0 740.21 696.02 0 1 0 1480.4 0"/>
     </g>
    </g>
   </g>
   <path transform="translate(-1642.3 3585.9)" d="m2938.7-1854.9a35.688 35.688 0 1 0 -71.376 0 35.688 35.688 0 1 0 71.376 0" fill="#fff"/>
   <path transform="translate(-1508.5 3585.9)" d="m2938.7-1854.9a35.688 35.688 0 1 0 -71.376 0 35.688 35.688 0 1 0 71.376 0" fill="#fff"/>
   <path transform="translate(-1576.6 3661)" d="m2938.7-1854.9a35.688 35.688 0 1 0 -71.376 0 35.688 35.688 0 1 0 71.376 0" fill="#fff"/>
   <path transform="translate(-1637.1 3733.8)" d="m2938.7-1854.9a35.688 35.688 0 1 0 -71.376 0 35.688 35.688 0 1 0 71.376 0" fill="#fff"/>
   <path transform="translate(-1509.9 3736.2)" d="m2938.7-1854.9a35.688 35.688 0 1 0 -71.376 0 35.688 35.688 0 1 0 71.376 0" fill="#fff"/>
  </g>
 </g>
 <g transform="translate(0,38)">
  <path d="m214.21 111.21c-45.245 0.18809-68.716 7.7308-64.094 83.553l2.8252 46.345c47.474 5.5124 56.664 18.445 104.36 21.914 68.073 4.9513 67.937 5.4209 130.56-14.384s5.8248-65.247 207.32-57.82c4.6033 0.16968 17.314-3.0527 27.462-12.15 5.5817-46.524-2.7842-69.143-66.934-68.876z" fill="url(#b)"/>
  <path d="m531.03 495.17c-31.605 19.022-27.601 31.26-37.913 32.573-94.704 12.053-145.98-0.72701-165.8-12.061-59.588-34.078-68.468-13.014-100.22-16.574-20.115-2.2551-59.245 12.984-73.388 44.344 3.4722 27.608 18.111 32.098 44.281 31.986l356.06-1.5268c69.692-0.29885 56.335-8.4926 65.543-56.039-14.772-21.671-13.157 9.109-44.224-30.717z" fill="url(#c)"/>
  <path transform="translate(128,90)" d="m57,0h398a57,57 0 0,1 57,57v398a57,57 0 0,1 -57,57h-398a57,57 0 0,1 -57-57v-398a57,57 0 0,1 57-57" clip-path="url(#g)" fill="none" filter="url(#e)" stroke="#000" stroke-width="20"/>
 </g>
</svg>
