<?xml version="1.0" encoding="UTF-8"?>
<svg width="960" height="481.15" version="1.1" viewBox="0 0 960.00004 481.1463" xmlns="http://www.w3.org/2000/svg" xmlns:xlink="http://www.w3.org/1999/xlink">
 <defs>
  <linearGradient id="u">
   <stop stop-opacity="0" offset="0"/>
   <stop offset="1"/>
  </linearGradient>
  <linearGradient id="t">
   <stop stop-opacity="0" offset="0"/>
   <stop stop-opacity="0" offset=".5"/>
   <stop offset="1"/>
  </linearGradient>
  <radialGradient id="ac" cx="1070" cy="700" r="40" gradientTransform="matrix(-1 0 0 1 -170 -99.999)" gradientUnits="userSpaceOnUse" xlink:href="#t"/>
  <linearGradient id="x" x1="780" x2="800" y1="373.33" y2="373.33" gradientTransform="translate(-2e3)" gradientUnits="userSpaceOnUse" xlink:href="#u"/>
  <linearGradient id="y" x1="410" x2="410" y1="620" y2="640" gradientTransform="translate(-2e3)" gradientUnits="userSpaceOnUse" xlink:href="#u"/>
  <radialGradient id="ad" cx="1070" cy="700" r="40" gradientTransform="translate(-3030 -99.999)" gradientUnits="userSpaceOnUse" xlink:href="#t"/>
  <linearGradient id="z" x1="780" x2="800" y1="373.33" y2="373.33" gradientTransform="translate(1200)" gradientUnits="userSpaceOnUse" xlink:href="#u"/>
  <linearGradient id="aa" x1="410" x2="410" y1="620" y2="640" gradientTransform="translate(-2e3 -880)" gradientUnits="userSpaceOnUse" xlink:href="#u"/>
  <radialGradient id="ae" cx="1070" cy="700" r="40" gradientTransform="matrix(-1 0 0 -1 -170 980)" gradientUnits="userSpaceOnUse" xlink:href="#t"/>
  <radialGradient id="af" cx="1070" cy="700" r="40" gradientTransform="matrix(1 0 0 -1 -3030 980)" gradientUnits="userSpaceOnUse" xlink:href="#t"/>
  <linearGradient id="ab" x1="2050" x2="2560" y1="-120" y2="-630" gradientTransform="matrix(1 0 0 .73469 -4e3 -164.49)" gradientUnits="userSpaceOnUse">
   <stop stop-color="#fff" offset="0"/>
   <stop stop-color="#fff" stop-opacity="0" offset="1"/>
  </linearGradient>
  <filter id="ai" color-interpolation-filters="sRGB">
   <feGaussianBlur result="blur" stdDeviation="2 2"/>
  </filter>
  <clipPath id="ah">
   <rect transform="scale(1,-1)" y="-90" width="180" height="90" ry="9" fill="#d70000"/>
  </clipPath>
 </defs>
 <g transform="translate(80 -41.096)">
  <rect transform="matrix(1 0 0 -1 1e3 2)" x="-1e3" y="-480.15" width="800" height="400.96" ry="40.955" filter="url(#ai)"/>
  <g transform="matrix(4.4444 0 0 4.4444 0 81.146)" clip-path="url(#ah)">
   <rect width="180" height="90" fill="#0038a8"/>
   <rect y="45" width="180" height="45" fill="#ce1126"/>
   <path d="M 77.942286,45 0,90 0,0" fill="#fff"/>
   <g transform="translate(28,45)" fill="#fcd116">
    <circle r="9"/>
    <g id="w">
     <g id="al">
      <g id="ak">
       <path transform="scale(19)" d="m-1 0 0.061512 0.061512 0.93849-0.061512-0.93849-0.061512z"/>
       <path id="aj" transform="scale(19.238)" d="m-0.88366 0.11634 0.049574 0.049574l0.83409-0.16591z"/>
       <use transform="scale(1,-1)" width="100%" height="100%" xlink:href="#aj"/>
      </g>
      <use transform="matrix(.70711 .70711 -.70711 .70711 0 0)" width="100%" height="100%" xlink:href="#ak"/>
     </g>
     <use transform="rotate(90)" width="100%" height="100%" xlink:href="#al"/>
    </g>
    <use transform="scale(-1)" width="100%" height="100%" xlink:href="#w"/>
    <g transform="translate(-2.0192)">
     <g id="v" transform="translate(37.962)">
      <path id="ag" d="m5 0-3.382 1.1756-0.072949 3.5797-2.1631-2.8532-3.4271 1.0368 2.0451-2.9389z"/>
      <use transform="scale(1,-1)" width="100%" height="100%" xlink:href="#ag"/>
     </g>
     <use transform="matrix(-.5 .86603 -.86603 -.5 0 0)" width="100%" height="100%" xlink:href="#v"/>
     <use transform="matrix(-.5 -.86603 .86603 -.5 0 0)" width="100%" height="100%" xlink:href="#v"/>
    </g>
   </g>
  </g>
  <g transform="translate(2e3 -158.85)">
   <path d="m-1200 600a40 40 0 0 1 -40 40v-20a20 20 0 0 0 20 -20h20z" fill="url(#ac)" opacity=".603"/>
   <rect x="-1220" y="280" width="20.001" height="320" ry="0" fill="url(#x)" opacity=".603"/>
   <rect x="-1960" y="620" width="720" height="20" fill="url(#y)" opacity=".603"/>
   <path d="m-2e3 600a40 40 0 0 0 40 40v-20a20 20 0 0 1 -20 -20h-20z" fill="url(#ad)" opacity=".603"/>
   <rect transform="scale(-1,1)" x="1980" y="280" width="19.999" height="320" ry="0" fill="url(#z)" opacity=".603"/>
   <rect transform="scale(1,-1)" x="-1960" y="-260" width="720" height="20" fill="url(#aa)" opacity=".603"/>
   <path d="m-1200 280a40 40 0 0 0 -40 -40v20a20 20 0 0 1 20 20h20z" fill="url(#ae)" opacity=".603"/>
   <path d="m-2e3 280a40 40 0 0 1 40 -40v20a20 20 0 0 0 -20 20h-20z" fill="url(#af)" opacity=".603"/>
   <rect transform="scale(1,-1)" x="-1980" y="-620" width="760" height="360" ry="20" fill="url(#ab)" opacity=".3"/>
  </g>
 </g>
</svg>
