<?xml version="1.0" encoding="UTF-8"?>
<svg viewBox="0 0 246 300" xmlns="http://www.w3.org/2000/svg">
 <path d="m71.595 296.86c-0.5225-0.50768-2.3-1.1153-3.95-1.3502-2.7948-0.3979-2.7519-0.43736 0.62756-0.57695 2.1628-0.08933 4.1302 0.45585 4.8724 1.3502 1.34 1.6146 0.02261 2.105-1.55 0.57695zm56.982-0.18716c-0.41126-0.66542-2.1376-0.88404-4.309-0.54567-3.3422 0.5208-3.4725 0.45185-1.6817-0.88979 2.4685-1.8495 4.9814-1.855 6.509-0.01436 0.65728 0.79198 2.1749 1.6307 3.3724 1.8638 1.8187 0.35404 1.7341 0.44629-0.5136 0.56004-1.48 0.0749-2.9998-0.36342-3.3771-0.97403zm7.5686-0.63979c-2.9e-4 -0.1375 0.11197-0.54215 0.24947-0.89922s-0.65-1.016-1.75-1.4644c-2.4657-1.005 5.4607-0.22387 10.5 1.0347 3.0058 0.75073 3.147 0.90432 1 1.0878-4.2718 0.3651-9.9989 0.50316-9.9995 0.24106zm-90.001-1.4022c0-0.4663 1.35-0.84782 3-0.84782s3 0.4199 3 0.93312-1.35 0.89473-3 0.84782-3-0.46682-3-0.93312zm104.19-3.3478c0.38103-3.2637 0.21966-3.5-2.3906-3.5-1.5396 0-2.7992-0.45-2.7992-1s1.575-1 3.5-1c3.0134 0 3.5-0.32879 3.5-2.3651 0-1.3008 0.9-3.5093 2-4.9077 2.2732-2.89 2.5908-4.2001 0.75-3.0942-0.8271 0.4969-0.77889 0.17037 0.1425-0.96515 0.76588-0.94387 1.1353-1.9734 0.82088-2.2877s0.3051-2.1325 1.3766-4.0403 1.7196-3.8387 1.4401-4.2909 0.15695-1.3742 0.96984-2.0488 1.2629-1.5746 1-2 0.19762-1.3341 1.0233-2.0194c1.0855-0.90088 1.2077-1.5998 0.44132-2.5232-0.77729-0.93658-0.56298-1.6346 0.80352-2.6173 2.5577-1.8393 3.614-4.9807 2.0157-5.9948-0.87422-0.5547-0.53935-0.81952 1.0495-0.82995 1.4202-0.00932 2.1685-0.50451 1.9122-1.2653-0.2316-0.6875 0.2934-1.7982 1.1667-2.4682 1.364-1.0465 1.3764-1.2248 0.08777-1.2653-1.3333-0.04188-1.3333-0.15686 0-1.0348 1.1699-0.77035 0.94984-0.93203-1-0.73469-1.668 0.16882-2.5-0.24616-2.5-1.247 0-1.0172 1.0181-1.5 3.1633-1.5 1.7398 0 3.4456-0.28078 3.7906-0.62396s-0.17842-3.9432-1.1633-8c-1.357-5.5899-1.7855-11.374-1.7695-23.888 0.0195-15.214 0.19299-16.79 2.207-20.048 2.3177-3.7501 8.2719-19.768 8.2719-22.253 0-0.81018 0.675-1.7321 1.5-2.0487s1.5-1.0663 1.5-1.666-0.45-0.81229-1-0.47237-1-0.05697-1-0.88197 0.45734-1.7826 1.0163-2.1281 0.73683-1.0803 0.39523-1.633 0.26395-1.9841 1.3457-3.1809c2.6916-2.978 3.1984-5.7474 2.043-11.165-0.81005-3.7981-1.2291-4.4001-2.3914-3.4355-1.1539 0.95765-1.1333 0.50909 0.11396-2.4759 1.1507-2.754 1.2575-4.1418 0.43697-5.675-0.59741-1.1163-0.92111-2.7935-0.71934-3.7272 0.50146-2.3205 4.0557 4.5979 6.3357 12.333 1.2641 4.2883 1.6951 8.7867 1.53 15.97-0.12639 5.5-0.29064 13.488-0.36502 17.75s-0.49655 7.75-0.93816 7.75c-1.6601 0-0.72101 1.8912 1.2497 2.5167 1.5717 0.49885 1.7946 0.96236 0.95144 1.9784-0.77409 0.93273-0.78489 1.5224-0.03634 1.985 0.58568 0.36197 0.80598 1.077 0.48954 1.589s-0.19641 0.9309 0.26671 0.9309 0.7885 1.223 0.72307 2.7178c-0.17499 3.9973 1.5743 5.5042 3.992 3.4387 1.5626-1.335 1.4799-0.9771-0.42616 1.8435-1.3009 1.925-2.5354 3.712-2.7434 3.971s-0.77928-0.1779-1.2695-0.97104-1.1698-1.1636-1.5102-0.82314 0.80519 3.2524 2.5458 6.471c2.5123 4.6457 3.0249 5.1834 2.4865 2.6085-0.56472-2.7007-0.16767-3.863 2.3722-6.9443 1.6777-2.0354 2.7887-3.9507 2.4688-4.2564s-1.2624 0.45681-2.0943 1.6943-1.9307 2.25-2.4416 2.25 0.17748-1.4625 1.5298-3.25c1.9705-2.6048 2.2052-3.4817 1.1821-4.4169-0.98228-0.89787-1.6886-0.78259-3.0635 0.5-1.2369 1.1538-1.1024 0.66659 0.43691-1.5831 1.2231-1.7875 1.7687-3.25 1.2124-3.25s-1.7119 1.0001-2.5681 2.2225-1.5567 1.8139-1.5567 1.3144 1.0007-1.9733 2.2238-3.2752c1.7492-1.862 1.9398-2.5426 0.89323-3.1894-0.93095-0.57536-0.99816-1.0278-0.22379-1.5064 0.60872-0.37621 1.0924-1.445 1.075-2.375-0.02778-1.4768-0.21836-1.4443-1.5047 0.25656-0.81009 1.0712-1.2275 2.7208-0.92752 3.6658s5.9e-4 2.055-0.66525 2.4665c-0.84008 0.5192-1.0091 0.22299-0.55213-0.96778 0.39113-1.0193 0.25712-1.4679-0.33006-1.105-1.941 1.1996-0.93914-1.2942 2.0114-5.0071 1.65-2.0763 3-4.1631 3-4.6375 0-1.7264-1.6948-0.80129-3 1.6375-0.73588 1.375-1.726 2.5-2.2004 2.5-1.6937 0-1.9185-2.9086-0.82304-10.647 1.6255-11.482 1.3482-28.149-0.59715-35.893-1.3131-5.2276-1.4112-7.0945-0.48004-9.1382 1.1529-2.5303 1.2015-2.5406 3.2806-0.69491 1.1607 1.0304 3.0052 3.8743 4.0988 6.3198 1.8247 4.0802 1.977 6.4747 1.8487 29.081-0.07684 13.549 0.31144 27.014 0.86286 29.922s1.2404 8.271 1.531 11.919c0.8049 10.101 1.9754 14.984 5.7847 24.132 1.1384 2.7338 1.3532 6.7744 0.98136 18.457-0.26185 8.2266-0.18012 17.721 0.18164 21.099 0.64458 6.019 0.71144 6.1308 3.3443 5.5923 1.8865-0.38588 2.1654-0.6606 0.93656-0.92252-0.9625-0.20515-1.75-0.79-1.75-1.2997 0-2.6023 23.241-0.08593 26.159 2.8324 1.2617 1.2617-0.30083 2.0984-7.7847 4.1686-6.4927 1.7961-7.2184 2.7221-3.3655 4.2943l3.3755 1.3774-3.9422 2.3907c-2.1682 1.3149-5.2651 3.655-6.882 5.2003-3.0574 2.922-4.5602 3.5183-4.5602 1.8096 0-0.55-1.2375-1.0069-2.75-1.0153-2.0094-0.01119-2.369-0.25652-1.3351-0.91094 1.2116-0.76691 1.1805-1.6629-0.21636-6.2347-0.8972-2.9365-1.9095-8.2641-2.2496-11.839-0.66329-6.973-2.3081-13.474-3.1866-12.596-0.29608 0.29608-0.03863 2.4637 0.5721 4.817 1.1143 4.2936 2.103 23.052 1.1656 22.114-0.275-0.27507-0.73431-3.2756-1.0207-6.6679l-0.5207-6.1678-1.1953 6c-0.65743 3.3-1.4881 7.0125-1.8459 8.25-0.48398 1.6738-0.23658 2.25 0.96603 2.25 0.88915 0 1.6166 0.45 1.6166 1s-0.64844 1-1.441 1c-1.3986 0-3.1176 1.7748-2.4071 2.4852 0.19371 0.1937 1.6628 0.68111 3.2646 1.0831 2.4337 0.61083 2.8104 0.4651 2.2916-0.88669-0.34141-0.88971-0.19041-1.8836 0.33557-2.2087s0.95633 0.33551 0.95633 1.468c0 2.667 3.0133 2.7241 3.7073 0.07027 0.79943-3.057 2.0168-1.4917 1.5125 1.9447-0.52636 3.5863-1.0667 3.6586-8.1107 1.0839-6.4711-2.3653-6.7284-2.5887-5.1592-4.4795 1.0758-1.2963 0.54675-1.4122-4.1075-0.89927-2.9383 0.32379-6.6924 1.1525-8.3424 1.8416-3.4733 1.4505-30.868 5.4224-37.859 5.4892-0.47267 0.00451-0.67553-1.5668-0.4508-3.4918zm3.8102-3.059c0-0.24254-0.45-0.44098-1-0.44098s-1 0.47656-1 1.059 0.45 0.7809 1 0.44098 1-0.81648 1-1.059zm7.731-1.134c-0.97297-0.25354-2.323-0.23687-3 0.03705s0.11903 0.48137 1.769 0.46099 2.2039-0.2445 1.231-0.49804zm10.019-0.02326c-1.5125-0.22913-3.9875-0.22913-5.5 0s-0.275 0.41659 2.75 0.41659 4.2625-0.18747 2.75-0.41659zm20.25-0.29456c1.0486-0.68521-0.3521-0.90631-4.6542-0.73469-3.3848 0.13502-5.9458 0.583-5.691 0.9955 0.67318 1.09 8.5832 0.89054 10.345-0.26081zm-14.812-3.6723c-0.72188-0.28887-1.5844-0.25335-1.9167 0.07894s0.25834 0.56864 1.3125 0.52522c1.165-0.04798 1.4019-0.28494 0.60417-0.60416zm-22.203-3.1259c-0.0132-1.4573-0.14929-1.4837-0.98469-0.19098-1.2656 1.9584-1.2656 3.2822 0 2.5 0.55-0.33992 0.99311-1.379 0.98469-2.309zm13.247-1.9157c-1.7974-0.22256-4.4974-0.21797-6 0.0102s-0.03209 0.41027 3.2679 0.40466 4.5294-0.1923 2.7321-0.41486zm12.268-1.2753c0.731-1.1828-0.24752-1.1828-3 0-1.9282 0.82859-1.9214 0.86195 0.19098 0.92971 1.205 0.03866 2.4691-0.37971 2.809-0.92971zm-16.244-1.7675c2.066-0.24409 4.005-0.84626 4.309-1.3382s1.8762-0.89437 3.4937-0.89437c3.6101 0 3.8664-1.5509 0.40008-2.4209-5.5915-1.4034-0.67144-2.3838 15.428-3.0742l16.911-0.72525-0.33057-7.6398c-0.40447-9.3478-1.325-14.797-3.0936-18.312-3.1356-6.2325-4.4761-11.961-3.8212-16.328 0.77664-5.1791-1.2056-13.014-5.566-22-1.6013-3.3-3.5939-8.8118-4.4278-12.249-1.7595-7.2506-4.4727-12.962-7.4266-15.633-2.0555-1.8589-2.095-1.8467-3.2244 1-0.62886 1.5851-1.5091 4.232-1.956 5.882s-1.5391 5.475-2.427 8.5c-2.6509 9.0313-2.078 24.556 1.501 40.676 0.86341 3.8887 0.54414 4.988-4.6468 16-3.0656 6.5034-6.8129 15.199-8.3272 19.324s-3.1235 8.3656-3.576 9.4236c-0.69837 1.6331-0.53207 1.7974 1.101 1.0882 1.058-0.4595 3.6139-1.0352 5.6799-1.2792zm17.796-14.179c-0.93678-0.59265 0.12241-0.7152 3-0.3471 2.4464 0.31295 4.6355 0.73208 4.8647 0.93141 0.93802 0.81588-6.5283 0.26117-7.8647-0.58431zm-5.321-56.709c0.67703-0.27392 2.027-0.29059 3-0.03705s0.41903 0.47766-1.231 0.49804-2.4461-0.18706-1.769-0.46099zm5.4565 65.973c-0.72188-0.28887-1.5844-0.25335-1.9167 0.07894s0.25834 0.56864 1.3125 0.52522c1.165-0.04798 1.4019-0.28494 0.60417-0.60416zm38-1c-0.72188-0.28887-1.5844-0.25335-1.9167 0.07894s0.25834 0.56864 1.3125 0.52522c1.165-0.04798 1.4019-0.28494 0.60417-0.60416zm15.812-0.37591c0-0.58246-0.45-0.7809-1-0.44098s-1 0.81648-1 1.059 0.45 0.44098 1 0.44098 1-0.47656 1-1.059zm-28.337-22.322c0.03957-3.5095 0.38318-6.8845 0.76358-7.5 0.38886-0.6292 0.056-1.1191-0.76039-1.1191-1.4945 0-2.666 2.0393-2.666 4.6408 0 0.84073 0.48536 1.1773 1.1264 0.78105 0.78755-0.48673 0.84845-0.19942 0.20244 0.95495-1.0012 1.789-0.54471 8.6232 0.57595 8.6232 0.37732 0 0.71841-2.8714 0.75798-6.3809zm-4.1628-12.619c-0.79917-4.7302-0.00682-5.1923 1.7471-1.0189 0.96955 2.307 1.5921 2.7627 2.7529 2.0153 1.2814-0.82505 1.2449-0.96806-0.25-0.98114-0.9625-0.00842-1.75-0.5098-1.75-1.1142 0-1.5767-3.1921-8.163-4.7121-9.7226-1.5858-1.627-1.639-2.2566-0.16294-1.9286 0.61875 0.1375 1.3521-0.37514 1.6297-1.1392 0.30912-0.85081 0.06691-1.1186-0.625-0.69098-0.67294 0.4159-1.1297 4.5e-4 -1.1297-1.0275 0-3.5054-1.3837-0.19727-2.0379 4.8721-0.43817 3.3955-0.22355 6.4656 0.61067 8.7355 0.90893 2.4732 1.3334 2.9133 1.4469 1.5 0.10932-1.361 0.46044-0.96171 1.099 1.25 1.311 4.5405 2.194 4.061 1.3812-0.75zm4.8938-7.8035c-0.8736-2.0331-2.056-5.0465-2.6276-6.6965-1.3187-3.8069-2.3588-4.9683-3.2124-3.5871-0.36954 0.59792-0.13908 1.0871 0.51213 1.0871 0.78224 0 0.98042 1.018 0.58402 3-0.34552 1.7276-0.17738 3 0.39644 3 0.93086 0 2.0024 2.0102 3.3651 6.3134 0.31586 0.99736 1.0234 1.5358 1.5724 1.1965 0.63205-0.39063 0.41557-1.9726-0.59022-4.3134zm-6.2882-14.999c-0.50589-0.94526-0.73454-3.0639-0.50812-4.708s0.14086-2.4081-0.19016-1.6976c-0.48764 1.0466-0.89269 1.0504-2.1346 0.01962-1.3483-1.119-1.4337-0.85324-0.70921 2.2083 0.45298 1.9142 0.849 4.4485 0.88005 5.6318 0.04565 1.7395 0.39395 1.9708 1.8192 1.208 1.2934-0.69222 1.5178-1.4009 0.84292-2.662zm-2.3842-9.9474c1.3732-1.6667 1.4157-1.6667 0.89163 0-0.30264 0.9625-0.14447 1.75 0.35148 1.75s0.8634-1.3483 0.81654-2.9962c-0.06975-2.4533-0.33934-2.7853-1.4877-1.8322-1.7214 1.4286-3.6146 4.8285-2.6888 4.8285 0.37122 0 1.3238-0.7875 2.1168-1.75zm-0.72139-31.56c0-0.55-0.9-0.18551-2 0.80998s-2 2.26-2 2.81 0.9 0.18551 2-0.80998 2-2.26 2-2.81zm0.56259-4.4608c-0.71756-0.71756-2.4861 0.75575-3.6929 3.0764-1.0879 2.092-1.0184 2.0815 1.4907-0.2263 1.4475-1.3313 2.4385-2.6139 2.2022-2.8501zm-0.62983-16.729c2e-3 -0.55-0.65706-0.12649-1.4646 0.94113s-1.4522 2.6426-1.4328 3.5c0.03857 1.697 2.8909-2.6751 2.8973-4.4411zm-1.7643-4.7316c-0.74207-0.74207-0.87221-0.35164-0.43724 1.3117 0.35361 1.3522 0.8069 1.8055 1.0566 1.0566 0.24048-0.72144-0.03821-1.7872-0.61931-2.3683zm1.4982-9.8018c0-1.8762-0.35578-2.6776-0.93267-2.1007-0.51297 0.51297-0.63265 1.878-0.26595 3.0333 0.90961 2.8659 1.1986 2.641 1.1986-0.93267zm-0.73028-5.4667c0-0.55-0.70723-0.1-1.5716 1-1.5352 1.9536-1.5552 1.945-0.86106-0.37523 0.51853-1.7333 0.3824-2.1724-0.50371-1.6248-0.88007 0.54391-1.034 0.09673-0.55938-1.6248 0.52106-1.8899 0.44343-2.0405-0.37989-0.73722-0.71808 1.1367-0.69861 2.6023 0.06361 4.7888 1.0166 2.9161 1.1995 3.0176 2.4552 1.362 0.74626-0.98386 1.3568-2.2388 1.3568-2.7888zm-5.3128 163.3c0.27193-0.44 1.5663-0.8 2.8764-0.8s2.6045 0.36 2.8764 0.8-1.0224 0.8-2.8764 0.8-3.1483-0.36-2.8764-0.8zm-62.624-1.0208c0-0.91619 1.0001-2.3663 2.2225-3.2225 2.4553-1.7197 8.2712-2.1646 7.2775-0.5567-0.33992 0.55-1.916 1-3.5023 1-1.8469 0-3.4442 0.79935-4.441 2.2225-1.2298 1.7558-1.5567 1.8727-1.5567 0.5567zm-47.5-3.9566c-2.2-0.53707-6.5264-0.76508-9.6143-0.50668s-6.2228 0.09377-6.9665-0.36585c-0.79468-0.49114-1.9484-0.3439-2.7983 0.35713-1.1603 0.95702-1.345 0.89629-0.93442-0.3072 0.39204-1.1491 1.815-1.423 6.0836-1.171 4.6541 0.27481 5.9305-0.02958 7.7488-1.8479 2.5616-2.5616 8.3397-4.5677 7.7204-2.6804-0.21644 0.65958-1.623 1.3442-3.1257 1.5214-1.5558 0.18344-2.5609 0.82929-2.3343 1.5 0.24771 0.73337 2.7237 1.1779 6.5611 1.1779 3.3898 0 6.1624 0.0757 6.1614 0.16821s-0.27497 0.88002-0.60881 1.75c-0.67623 1.7622-2.0439 1.8323-7.893 0.40439zm13.702-0.30077c0.38631-0.41796 0.04881-1.4135-0.75-2.2123-1.7021-1.7021-1.7619-2.2914-0.43707-4.3095 0.70879-1.0797 1.1948-1.1767 1.7347-0.3462 0.4125 0.63459 3.7677 1.3096 7.456 1.5 6.1754 0.31881 6.788 0.16596 7.7414-1.9319 0.56943-1.2529 1.7142-2.5386 2.544-2.857s1.5086-1.7712 1.5086-3.2285 0.48556-4.2216 1.079-6.143c2.614-8.4631 0.35647-32.523-3.7798-40.283-2.7491-5.1576-3.0008-9.1254-2.1701-34.21 0.29138-8.8 0.32435-16.806 0.07325-17.79-0.58035-2.2754-5.237-4.71-9.0092-4.71-2.482 0-2.9192 0.40132-2.9954 2.75-0.04907 1.5125-0.45917 5-0.91132 7.75-0.85965 5.2283 0.09832 14.719 1.7962 17.795 0.54499 0.98745 0.70941 3.2957 0.3654 5.1295-0.35502 1.8924 0.05125 5.9758 0.93952 9.443 1.5598 6.0885 1.0723 13.338-1.2042 17.909-0.49457 0.99306-0.23814 10.587 0.60525 22.644 1.3994 20.006 1.3839 20.979-0.35376 22.25-2.4819 1.8148-6.4349 1.7096-6.4349-0.17125 0-0.825-0.47656-1.5-1.059-1.5s-0.77877-0.45345-0.43624-1.0077c0.3837-0.62084 1.2236-0.40682 2.188 0.55751 0.86085 0.86085 2.219 1.3143 3.018 1.0077s1.8864-0.55751 2.4164-0.55751 0.73642-1.4625 0.45886-3.25-0.78422-6.2916-1.1259-10.009-1.0032-6.5232-1.47-6.2346-0.61942-2.0698-0.33912-5.2408c0.36083-4.0819 0.21198-5.3389-0.50977-4.3049-0.774 1.1089-1.0024 0.62743-0.94864-2 0.03892-1.9033 0.52564-4.0338 1.0816-4.7346s0.71707-1.5679 0.35801-1.927-1.3089 0.21432-2.1107 1.2742c-1.031 1.3628-1.4706 4.7086-1.5015 11.427-0.02402 5.225-0.64067 11.75-1.3703 14.5s-1.1506 5.5213-0.93534 6.1584-0.08243 1.4512-0.66147 1.809-1.0528 1.6591-1.0528 2.8916c0 2.2968-1.6782 4.641-3.3224 4.641-0.50734 0-0.45957-0.5625 0.10617-1.25s2.2235-5.6452 3.6839-11.017c2.4678-9.0777 2.62-10.807 2.1562-24.5-0.32901-9.7113-1.0352-16.234-2.072-19.139-1.069-2.9942-1.5426-7.6397-1.4782-14.5 0.08806-9.3822-0.19914-10.941-4.0714-22.094-2.2914-6.6-4.6319-13.8-5.2011-16-1.6125-6.2326-1.9645-6.6002-8.6323-9.0146-3.4518-1.2498-7.1089-3.0263-8.127-3.9476-1.6113-1.4582-2.3898-1.5138-6.0108-0.4289-3.3467 1.0027-4.8802 0.99507-7.8453-0.03905-7.8132-2.7249-12.113-5.9934-14.762-11.221-3.8785-7.6538-8.4412-23.458-8.2921-28.721l0.13112-4.627 0.74129 5.5c0.67448 5.0043 3.5118 15.185 6.2123 22.291 3.4264 9.016 12.607 15.719 21.501 15.698l4.7832-0.01109-3.3245-2.6197c-1.8284-1.4408-3.7848-3.7983-4.3473-5.2389-2.2416-5.7401-3.5872-11.119-2.7814-11.119 0.46807 0 1.6312 2.475 2.5848 5.5s2.0293 5.5 2.3906 5.5c0.65087 0 2.9779-4.4909 2.9779-5.747 0-0.35912-0.54-0.11295-1.2 0.54705-2.3002 2.3002-2.6679 1.1686-1.1079-3.4098 1.1339-3.3278 1.2582-4.8029 0.447-5.3043-1.4381-0.88878-2.7587-10.086-1.4482-10.086 0.5295 0 0.78378 1.4625 0.56507 3.25-0.32003 2.6155-0.17166 2.9572 0.75994 1.75 0.9582-1.2416 1.0727-1.1126 0.66474 0.749-0.27108 1.237-0.08511 2.501 0.41325 2.809s0.90612 1.6646 0.90612 3.0146c0 2.3416 1.7118 6.3323 3.1972 7.4538 0.38347 0.28952 0.27786 1.1895-0.23469 2-0.62996 0.99616-0.93686 1.0686-0.94721 0.22361-0.00842-0.6875-0.46531-1.25-1.0153-1.25s-1 0.87344-1 1.941-0.45 2.2191-1 2.559c-1.6032 0.99086-1.16 1.9186 1.5078 3.1559 2.181 1.0116 2.4922 0.92187 2.4922-0.71861 0-1.2617-0.49413-1.6849-1.5113-1.2946-1.0121 0.38839-1.3343 0.11849-0.97524-0.8171 0.29485-0.76838 1.459-1.3971 2.587-1.3971 1.617 0 1.9552 0.50019 1.5988 2.3645-0.67564 3.5344 1.845 3.8219 4.833 0.55118 3.6562-4.002 9.2983-16.441 10.271-22.643l0.81904-5.223-4.5611 0.13955c-3.4777 0.1064-4.179-0.10612-2.9525-0.89466 1.3189-0.84795 1.4238-1.6365 0.58222-4.3785-0.93692-3.0528-2.6908-4.6341-2.6908-2.4261 0 0.50502-0.27314 1.63-0.60699 2.5-0.41563 1.0831-0.02155 1.6018 1.25 1.6452 1.476 0.05038 1.3656 0.25992-0.5382 1.0215-2.9996 1.1999-3.576 0.66409-2.1506-1.9992 1.512-2.8253-0.39911-2.7162-2.3975 0.13686-0.85619 1.2224-1.5567 1.8394-1.5567 1.3712s1.575-2.5946 3.5-4.7254c3.7934-4.1988 3.9471-4.6189 2.5132-6.8683-1.0154-1.5928-0.84921-1.6612-7.1602 2.9499-3.1458 2.2984-3.0903 2.1608 0.897-2.2277 5.8331-6.4198 5.3348-7.7742-1-2.7184-4.9873 3.9804-4.9313 3.8858 1.1204-1.892 5.1228-4.891 6.0402-6.2089 4.6841-6.7292-1.1004-0.42225-2.7928 0.37259-4.8704 2.2873-1.7512 1.614-4.0841 3.5298-5.1841 4.2574s0.82283-1.3208 4.273-4.5522c7.5092-7.033 8.4653-10.573 1.0565-3.9118-4.7751 4.2933-8.8295 7.149-8.8295 6.2193 0-0.21322 2.7-2.5089 6-5.1015s6-5.1718 6-5.7316c0-0.96577-4.4729 2.3011-10.054 7.3431-1.4046 1.269-3.5418 4.3322-4.7492 6.8072s-2.1957 3.9079-2.1961 3.1843 0.51374-2.2772 1.1426-3.4522c0.85656-1.6005 0.85699-2.2319 0.00172-2.517-0.67403-0.22468-0.89317-1.3707-0.53499-2.7978 0.74437-2.9658-1.083-3.2341-2.8422-0.41724-1.5544 2.489-3.4075 2.5088-9.7368 0.10382-4.8993-1.8616-4.9718-1.8616-3.9755 0 0.55814 1.0429 1.3365 1.9306 1.7296 1.9727s1.6148 0.28618 2.7148 0.54244 3.61 0.54967 5.5778 0.65204l3.5778 0.18611 0.14345 5.0214c0.0789 2.7618 0.14751 9.0244 0.15246 13.917 0.00634 6.2617 0.45897 9.5821 1.5288 11.215 1.795 2.7396 1.8849 3.3898 0.46875 3.3898-1.749 0-4.1571-7.0706-3.5461-10.412 0.52175-2.8529-1.1193-9.6381-2.7175-11.236-0.37694-0.37693-0.68534-1.6453-0.68534-2.8187s-0.5625-2.7296-1.25-3.4583c-1-1.06-1-1.4167 0-1.7833 2.5862-0.94827 1.0896-2.1261-3.5044-2.7579-3.7956-0.52203-5-1.1743-5.9722-3.2343-0.66976-1.4192-0.93489-3.0381-0.58918-3.5975 0.38663-0.62558-0.20143-0.8-1.5278-0.45315-1.186 0.31015-2.1564 0.16759-2.1564-0.3168 0-1.6374-5.8747-3.9321-10.067-3.9321-3.6733 0-4.1044-0.23655-3.6435-1.999 0.28751-1.0994 0.115-2.251-0.38337-2.559-1.5715-0.97124-0.9203-3.8366 1.5621-6.8734 2.5368-3.1033 5.5318-4.2505 5.5318-2.1188 0 1.4282 4.6595 0.94604 6.739-0.69731 3.0034-2.3734-2.8286-3.8453-6.8047-1.7173-1.2975 0.69439-1.9343 0.70066-1.9343 0.01905 0-1.3098 2.8609-1.9332 11.385-2.4809 3.7865-0.2433 7.364-0.92183 7.95-1.5078s2.213-1.0609 3.6155-1.0553 5.25-0.93205 8.55-2.0836c5.1831-1.8087 6.4085-1.9199 9-0.8172l3 1.2765-2.8915 0.38715c-1.5903 0.21293-3.2181-0.14132-3.6173-0.78723-0.53947-0.87289-1.5173-0.76508-3.8088 0.41992-1.6957 0.87687-3.8664 1.5943-4.8238 1.5943-1.5634 0-1.543 0.1496 0.20034 1.4682 2.3269 1.76 0.90775 1.939-3.4176 0.43122-2.6098-0.9098-3.8058-0.77005-6.8992 0.80611-2.0582 1.0487-3.8053 2.3314-3.8825 2.8506s-0.44998 2.4041-0.82835 4.1889c-0.60702 2.8633-0.38467 3.3603 1.8904 4.2252 3.4282 1.3034 3.2562 2.0298-0.48067 2.0298-1.7847 0-2.8016-0.41658-2.441-1 0.33992-0.55-0.08352-1-0.94098-1-1.0149 0-1.5866 0.95971-1.638 2.75-0.04342 1.5125-0.30592 2.1875-0.58333 1.5s-1.2279-1.25-2.1122-1.25c-1.3257 0-1.2672 0.2576 0.33333 1.4682 1.0676 0.80751 3.756 1.4825 5.9741 1.5 3.8742 0.03055 6.7284 1.5707 11.642 6.2818 1.7382 1.6667 1.9106 1.6667 3.6186 0 0.98638-0.9625 3.0114-2.6443 4.5-3.7374s2.7066-2.2992 2.7066-2.6804-2.1375-0.67683-4.75-0.65696c-7.3941 0.05624-11.549-0.57157-11.961-1.8074-0.25555-0.76663 1.1703-1.0259 4.4167-0.80316 4.149 0.2847 4.3231 0.22807 1.294-0.42091l-3.5-0.74988 4-0.53512c2.2-0.29432 4.7696-0.87423 5.7102-1.2887 1.359-0.59879 1.6275-0.32393 1.3074 1.3382-0.22156 1.1504-0.22484 2.0917-0.0073 2.0917 1.2622 0 5.4896-2.4609 5.4896-3.1957 0-0.48107-0.87042-0.40884-1.9343 0.16052-2.6228 1.4037-2.9343 1.3182-2.6071-0.71482 0.15491-0.9625-0.10166-2.4925-0.57017-3.4-0.59263-1.148-0.37281-1.8338 0.7224-2.2541 1.0309-0.39559 1.7489 0.06375 2.0802 1.3309 1.0055 3.8452 6.6636 3.5637 6.1118-0.30398-0.24247-1.6994-0.99753-2.1227-3.7863-2.1227-2.3844 0-3.5807-0.5005-3.7918-1.5864-0.2296-1.1811 0.56505-1.6192 3.1102-1.7149 3.8772-0.14576 7.165 2.6827 7.165 6.1639 0 1.4809 0.53752 2.0472 1.75 1.8436 2.5428-0.42695 2.1446 0.52318-0.88422 2.1102-2.5166 1.3186-2.5405 1.4047-0.53419 1.9294 1.2461 0.32587 2.0123 0.10109 1.8842-0.55281-0.1187-0.60609 0.42136-1.1224 1.2001-1.1474 1.6409-0.05268 2.6099-5.1024 1.152-6.0034-0.53934-0.33333-0.72859-1.2628-0.42054-2.0656s-0.1332-1.7256-0.98053-2.0507-1.2959-1.229-0.99677-2.0084c0.33519-0.87349-0.09535-1.4172-1.1222-1.4172-0.9163 0-1.3871-0.45122-1.0463-1.0027 0.83171-1.3457 4.4983 0.62349 4.4983 2.4159 0 0.73856 0.94494 1.9703 2.0999 2.7371 1.9274 1.2798 2.0047 1.7477 0.9409 5.6983-0.71638 2.6604-0.807 4.7522-0.2373 5.4777 1.5145 1.9286 2.2092 11.261 0.93323 12.537-0.62518 0.62518-0.76994 1.1367-0.32169 1.1367s0.0353 1.19-0.91767 2.6444c-1.5862 2.4208-1.5959 2.721-0.11501 3.5497 0.88972 0.49791 1.6177 2.1285 1.6177 3.6235 0 2.48 4.2762 10.182 5.6531 10.182 1.1481 0 11.347-11.399 11.347-12.683 0-0.36291 0.72448-1.4604 1.61-2.4388 1.5214-1.6812 1.3723-1.768-2.713-1.5787-3.2432 0.15023-4.4047-0.19428-4.6505-1.3793-0.22645-1.0921 0.89564-1.946 3.6358-2.767 5.6276-1.686 10.934-6.7236 14.135-13.419 1.9269-4.03 2.9408-5.2852 3.3685-4.1705 0.74615 1.9444-0.27505 6.4357-1.4633 6.4357-0.47312 0-0.57286 0.74882-0.22166 1.664 0.41091 1.0708 0.2461 1.4215-0.46228 0.98369-0.60547-0.3742-1.4265-0.15349-1.8244 0.49046-0.48506 0.78484-0.28698 0.90097 0.60084 0.35227 0.96167-0.59435 1.1495-0.36276 0.68589 0.84549-0.3512 0.91522-0.40237 1.664-0.11371 1.664 1.2764 0 4.5432-9.3692 3.9573-11.349-3.746-12.658-3.7423-12.603-1.1594-17.225 2.1133-3.781 2.2993-4.8826 1.4575-8.6293-0.89344-3.9764-0.77092-4.4619 1.6518-6.5458 1.4392-1.238 3.2667-2.2509 4.061-2.2509s1.4442-0.60526 1.4442-1.345c0-1.9654 3.3289-4.655 5.7614-4.655 1.3143 0 2.3583-0.84446 2.7818-2.25 0.37286-1.2375 2.4696-4.4049 4.6595-7.0387 4.1828-5.0306 4.6706-8.7842 0.8779-6.7544-3.4944 1.8701-4.3833 1.2962-3.7773-2.4386 0.321-1.978 0.11174-3.7618-0.48452-4.1303-0.60502-0.37392-0.84017-2.506-0.55521-5.0341 0.27187-2.412 0.07144-4.6468-0.4454-4.9663-1.351-0.83497 7.1845-5.491 12.36-6.7421 2.1574-0.52155 3.3722 0.00758 6.2512 2.7228 2.9481 2.7804 3.4765 3.8742 3.02 6.2509-0.47413 2.4682 0.29248 3.8119 5.3517 9.3808 7.6471 8.4174 10.508 13.993 10.777 21 0.28186 7.3423 1.984 17.757 3.5434 21.68 0.94821 2.3853 0.9873 3.7866 0.15652 5.61-1.0704 2.3492-0.93026 2.4701 4.1944 3.6169 6.0427 1.3523 8.0054 3.1145 9.0145 8.0936 0.39013 1.925 1.7646 5.3365 3.0544 7.5811s2.6653 6.495 3.0567 9.4453c0.58389 4.4016 1.4091 6.0688 4.5983 9.29 4.0471 4.0878 8.5367 11.684 6.9057 11.684-0.51632 0-1.9614-1.6547-3.2113-3.677s-2.4578-3.1213-2.6842-2.4421 0.30954 2.0318 1.191 3.0058 1.6026 2.298 1.6026 2.9421 0.43588 1.1713 0.96862 1.1713 0.67213 0.77261 0.30977 1.7169c-0.53238 1.3874-0.90481 1.1141-1.9402-1.4234-0.70477-1.7272-1.7442-3.4264-2.3098-3.7759s-1.0284-1.5641-1.0284-2.699c0-1.7577-0.23158-1.8712-1.5629-0.76635-1.3691 1.1363-1.48 0.96667-0.89393-1.3682 0.51857-2.0662 0.25172-2.813-1.1871-3.3225-1.0208-0.36146-3.2061-1.6497-4.8561-2.8627s-5.1843-2.5311-7.854-2.929c-4.1532-0.61903-5.1278-0.42965-6.75 1.3116-2.4068 2.5834-2.3862 3.0596 0.10405 2.4084 1.1182-0.29241 2-0.03068 2 0.59362 0 0.61415 0.9 2.0166 2 3.1166 2 2 2 2 0 2-1.1 0-2 0.45-2 1 0 1.6343 3.2856 1.1288 6.5-1 3.9236-2.5985 5.8247-2.5985 5 0-0.45807 1.4433-0.1797 2 1 2 1.1454 0 1.456 0.56325 1.0376 1.8816-0.68528 2.1591 1.493 3.4092 4.2124 2.4175 1.6092-0.58683 1.6019-0.46939-0.09013 1.4597-1.2418 1.4158-1.6134 2.8122-1.1429 4.2948 0.50055 1.5771 0.35836 1.9874-0.50404 1.4544-0.66071-0.40834-0.99633-1.8147-0.7458-3.1252 0.38077-1.9919 0.04896-2.3828-2.0225-2.3828-2.0215 0-2.3772-0.38513-1.9312-2.0909 0.47277-1.8079 0.21209-2.0069-1.9259-1.4703-2.4448 0.6136-2.4537 0.59172-0.79468-1.9403 2.397-3.6582 1.1958-4.0377-2.3364-0.73817-1.6599 1.5506-3.5368 2.6462-4.1709 2.4349s-1.7774 0.13395-2.5406 0.76738c-1.134 0.94116-1.279 0.72994-0.79296-1.1555 0.55239-2.1429 0.46056-2.2003-1.2896-0.80715-1.5654 1.2461-1.5101 0.96602 0.32659-1.6544 1.216-1.7349 2.2109-3.4224 2.2109-3.75 0-1.4541-2.3919-0.35756-5.0769 2.3274-3.3706 3.3706-4.0036 2.856-0.74877-0.60863 2.1235-2.2603 2.1274-2.3144 0.16898-2.3144-1.1029 0-2.5823 1.078-3.2874 2.3955s-2.6937 3.4259-4.419 4.6853c-1.9227 1.4034-0.47525-0.70082 3.7392-5.436 7.1692-8.0551 8.2866-10.714 2.4994-5.9464-2.2129 1.8229-2.8739 2.0953-1.9191 0.7911 0.80105-1.0942-0.12853-0.51908-2.0658 1.2781s-3.7534 3.0364-4.0359 2.754c-0.84763-0.84763-4.8766 3.9953-5.3444 6.424-0.23922 1.2422-0.84999 2.7751-1.3572 3.4065s-1.2282 2.5794-1.602 4.3289c-0.58045 2.7162-3.5512 6.8206-3.5512 4.9064 0-0.36169-0.88324-0.18493-1.9628 0.39281s-1.7644 1.6061-1.5219 2.2852-0.18651 3.7098-0.9533 6.7348l-1.3942 5.5 0.55416-6.75c0.38619-4.704 0.20919-6.75-0.58394-6.75-0.62595 0-1.2101 1.6875-1.2981 3.75-0.15756 3.6921-0.16626 3.6998-0.56336 0.5-0.63549-5.1209-2.2766-3.7898-2.2766 1.8465v5.0965l-9.5009-0.34653c-5.7245-0.20879-9.6679 0.05094-9.921 0.65347-0.23111 0.55-0.42409-0.575-0.42886-2.5-0.00503-2.0325 0.27633-2.8711 0.67106-2 0.37384 0.825 1.4031 1.6175 2.2872 1.7611 1.2023 0.19531 1.8752-1.0649 2.6695-5l1.062-5.2611-0.53472 5.75c-0.36104 3.8824-0.17249 5.75 0.58051 5.75 0.61337 0 1.1468-1.6875 1.1855-3.75s0.47954-4.65 0.97974-5.75c0.65761-1.4461 0.84584-0.51237 0.67972 3.3718-0.2217 5.1836-0.13339 5.3827 2.5202 5.6818 2.6663 0.30054 2.7556 0.15226 2.935-4.8718l0.18498-5.1818 0.36728 5.25c0.24918 3.5619 0.80176 5.25 1.7185 5.25 0.91166 0 1.4837-1.7078 1.7585-5.25 0.224-2.8875 0.37993-5.2979 0.34652-5.3564s-1.5233-0.38475-3.3108-0.725l-3.25-0.61864-0.18025 4.725-0.18025 4.725-0.37454-4.75c-0.34481-4.3729-0.58851-4.7568-3.0698-4.8359-5.0041-0.15954-8.6864-0.64984-10.445-1.3908-1.0568-0.44518-1.75-0.29871-1.75 0.36975 0 0.60885 0.50246 1.107 1.1166 1.107 0.69356 0 0.89443 1.0418 0.53021 2.75-2.1042 9.8686-2.7647 16.532-1.7403 17.556 0.79139 0.79139 1.0935 0.76197 1.0935-0.10646 0-0.66 0.675-1.2 1.5-1.2s1.5-0.38059 1.5-0.84574 3.2625-0.18553 7.25 0.6214 9.05 1.7576 11.25 2.1126c3.8438 0.62029 3.9958 0.78784 3.8936 4.2921-0.0784 2.6869 0.25057 3.5096 1.25 3.1261 0.74601-0.28627 1.3606 0.09015 1.3658 0.83649s1.1557-0.55551 2.5567-2.893c2.6627-4.4428 3.803-5.4773 2.7553-2.5-0.75566 2.1475 0.19837 1.2161 4.5006-4.3939 3.2053-4.1796 4.019-5.994 2.1779-4.8561-0.55 0.33992-1 0.16803-1-0.38197s0.45-1.2781 1-1.618 1-1.1275 1-1.7502-0.6983-0.2586-1.5518 0.80902c-1.4913 1.8655-1.5259 1.8437-0.8876-0.55887 0.85424-3.2154 2.5271-4.9426 3.1477-3.25 0.25209 0.6875 0.8597 1.25 1.3502 1.25 1.1696 0-0.75545-5.0076-2.7887-7.2543-0.87501-0.96688-1.2599-2.089-0.85539-2.4935s1.2259 0.14075 1.8253 1.2118c1.0792 1.9284 1.0967 1.9283 1.8031-0.00833 0.6558-1.7979 0.81566-1.7363 1.9814 0.76299 0.69746 1.4953 1.7218 2.4382 2.2764 2.0955 1.1255-0.69558 0.43757 0.64584-2.5271 4.9278-1.668 2.4092-1.7273 2.9862-0.48836 4.755 1.3528 1.9313 1.4134 1.8938 1.4935-0.9231 0.04591-1.6149 0.90196-3.7942 1.9023-4.8428s2.4066-2.7671 3.125-3.8188 0.4099-0.2482-0.68552 1.7856c-1.2576 2.335-2.0838 6.0206-2.2417 10-0.25207 6.3538-2.4043 12.333-5.3058 14.741-0.8652 0.71805-1.5662 1.813-1.5578 2.4331s0.45153 0.45256 0.98469-0.37244c0.75035-1.1611 0.99536-0.82217 1.0844 1.5 0.11172 2.9147 0.13578 2.9289 0.84587 0.5 0.65431-2.2381 0.86604-1.9761 2.0209 2.5 0.7095 2.75 1.2445 6.7087 1.1889 8.797-0.05991 2.249 0.29863 3.5499 0.87943 3.191 0.53932-0.33332 0.98058-1.3935 0.98058-2.3559s0.66611-2.6234 1.4802-3.691c1.2349-1.6194 1.2137-1.1372-0.1282 2.9093-1.2986 3.9159-1.3911 5.5759-0.48024 8.616 0.62052 2.0711 1.1282 6.8942 1.1282 10.718 0 7.8146 1.9192 15.577 5.551 22.451 2.5945 4.9107 3.1575 10.672 1.3692 14.014-0.77982 1.4571-0.75691 3.3633 0.08247 6.8623 1.0407 4.338 0.88848 5.7422-1.4553 13.426-1.4397 4.7199-2.9032 9.3261-3.2524 10.236-0.46356 1.208-0.25175 1.4552 0.78509 0.91619 0.78097-0.40601 0.58738-0.05977-0.4302 0.76942s-1.5727 1.9565-1.2337 2.5051 0.15056 1.2854-0.41887 1.6373-2.1672 2.8735-3.5506 5.6034-4.2191 6.6356-6.3016 8.6792-4.1163 4.603-4.5195 5.6876c-0.44855 1.2065-1.0034 1.5574-1.4294 0.90398-0.38292-0.5874-1.8743-1.356-3.3142-1.7079-2.6099-0.63792-27.887 0.6779-37.382 1.946-2.75 0.36725-4.6839 0.32577-4.2976-0.09219zm27.467-5.6839c0.84632 2.1052 1.0726 2.178 2.2733 0.73125 1.1259-1.3566 1.0573-1.9117-0.44072-3.5671-1.5069-1.6651-1.5521-2.0456-0.30019-2.526 2.2972-0.88151 2.0555-7.404-0.7076-19.098-1.3718-5.8055-2.4941-13.178-2.4941-16.383s-0.42621-5.978-0.94714-6.1613c-0.89946-0.31655-1.6828-3.4716-2.6013-10.477-0.25986-1.9821 0.13485-3.5979 1.0681-4.3724 0.81416-0.67569 1.4803-1.6932 1.4803-2.2611s-0.9-0.21806-2 0.77743-2 1.3453-2 0.77743 0.675-1.5927 1.5-2.2774 1.4857-1.9773 1.4682-2.8724c-0.02672-1.3673-0.26656-1.3172-1.5 0.31357-0.80751 1.0676-1.4682 1.5604-1.4682 1.095s-0.9-0.03163-2 0.96386c-2.3741 2.1486-2.5783 5.0646-0.5 7.1429 0.825 0.825 1.5 2.5709 1.5 3.8798s0.6799 4.9892 1.5109 8.1786c2.0983 8.0531 2.896 23.538 1.6101 31.254-0.72279 4.3367-0.74396 6.66-0.06453 7.08 1.4251 0.88074-0.03994 4.1854-1.5915 3.59-1.3816-0.53017-4.4649 2.3331-4.4649 4.1463 0 0.61257 1.9125 1.2521 4.25 1.4213 3.5285 0.2553 4.3544-0.03204 4.8647-1.6925 0.58582-1.9059 0.65895-1.89 1.5546 0.33791zm6.3307-1.3969c0-0.24254-0.45-0.44098-1-0.44098s-1 0.47656-1 1.059 0.45 0.7809 1 0.44098 1-0.81648 1-1.059zm20.149-5.191c3.2829-5.0983 4.5401-8.076 8.3906-19.873 3.0948-9.4817 3.2786-10.817 2.9-21.084-0.32097-8.705-0.94174-12.384-3.0161-17.877-1.9166-5.0749-2.8192-9.9053-3.3903-18.145-0.65897-9.5066-1.227-12.114-3.7041-17-1.6092-3.1742-3.354-5.7041-3.8774-5.6219-6.0057 0.94335-13.931 1.1934-14.388 0.45397-0.33659-0.5446-1.9163-0.36442-3.819 0.4356-2.9392 1.2358-3.2468 1.7694-3.2649 5.6627-0.01098 2.364-1.0967 10.081-2.4128 17.149-1.855 9.9626-2.1587 13.522-1.3513 15.839 0.60084 1.7236 0.74367 5.1717 0.33756 8.149-0.38719 2.8387-0.66838 5.6112-0.62486 6.1612 0.40258 5.0875 3.2427 21.826 4.6195 27.226 1.9811 7.7697 2.7497 18.972 1.3605 19.83-2.5177 1.556 1.1208 2.4436 10.017 2.4436h9.8081l2.4147-3.75zm-10.917-70.965c1.5026-0.22817 4.2026-0.23276 6-0.0102s0.56791 0.40925-2.7321 0.41486-4.7706-0.17648-3.2679-0.40466zm-10.968-1.003c1.5201-0.22986 3.7701-0.22371 5 0.01365s-0.01375 0.42542-2.7638 0.41792-3.7563-0.20172-2.2362-0.43157zm11.986-5.9987c1.5125-0.22913 3.9875-0.22913 5.5 0s0.275 0.41659-2.75 0.41659-4.2625-0.18747-2.75-0.41659zm-5.9792-0.88792c0.3323-0.33229 1.1948-0.36781 1.9167-0.07894 0.79773 0.31922 0.56078 0.55618-0.60417 0.60416-1.0542 0.04342-1.6448-0.19292-1.3125-0.52522zm-36.271 37.074c0-0.3931-0.63806-0.18518-1.4179 0.46204-1.1692 0.97035-1.3681 0.72297-1.1339-1.4103 0.15619-1.4229 0.64094-2.9098 1.0772-3.3043s0.5017 0.09362 0.14537 1.0847c-0.36067 1.0031-0.23884 1.5491 0.27483 1.2317 0.50749-0.31364 0.6571-2.207 0.33247-4.2074-0.42295-2.6064-0.2638-3.4354 0.56159-2.9253 1.9656 1.2148 3.6891-3.945 2.3208-6.948-0.63828-1.4009-1.1748-3.5384-1.1923-4.75-0.03068-2.1249-0.08249-2.136-1.4618-0.31402-0.95982 1.2678-1.2722 3.4051-0.94994 6.5 0.33563 3.2236 0.2096 4.0093-0.41884 2.6111-0.49441-1.1-0.79357-3.6481-0.66481-5.6624 0.1776-2.7782-0.10182-3.5335-1.1573-3.1284-0.9432 0.36194-0.70309-0.63275 0.74532-3.0876 2.2336-3.7856 3.7971-5.093 1.9392-1.6216-0.60373 1.1281-0.66571 2-0.14217 2 1.4815 0 2.1511-2.8017 1.251-5.2348-0.77134-2.0851-0.97758-1.9429-3.038 2.0958-1.2157 2.383-2.4499 4.0933-2.7427 3.8006s0.18866-1.5615 1.0698-2.8194c1.8035-2.5749 2.1096-4.2739 0.602-3.3422-1.4207 0.87803-1.2415-0.85852 0.24164-2.3416 0.95227-0.95227 0.96457-1.4129 0.05279-1.9764-0.78324-0.48407-0.87091-1.2375-0.25696-2.2084 0.76423-1.2085 0.96317-1.1138 1.1057 0.52639 0.09557 1.1 0.10819 2.9 0.02805 4-0.12869 1.7664-0.02975 1.8048 0.84692 0.32921 0.62204-1.047 0.65073-2.5701 0.07683-4.0795-0.50369-1.3248-0.82846-5.1804-0.72172-8.568 0.11092-3.52-0.24884-6.3115-0.83956-6.5146-0.56851-0.19545 0.09533-1.9551 1.4752-3.9104 2.475-3.5072 2.4958-3.7012 1.5427-14.406-0.5314-5.968-1.1416-9.9508-1.3559-8.8508-0.8303 4.2608-1.8608 3.3195-1.8807-1.7179-0.0115-2.9052-0.37058-7.4196-0.79794-10.032-0.54357-3.3228-0.43751-4.75 0.35302-4.75 0.62153 0 1.13 1.5252 1.13 3.3892 0 1.985 0.85055 4.3674 2.0529 5.75l2.0528 2.3608-0.67707-2.5-0.67706-2.5 2.6242 2.4243c2.7034 2.4974 3.3098 2.2254 1.7086-0.76659-0.55375-1.0347-0.55473-6.0475-0.00248-12.684 0.77811-9.351 0.67106-11.524-0.72399-14.696-0.90041-2.0475-2.0243-3.4834-2.4975-3.191-1.5894 0.98233-0.87933-5.9079 0.80013-7.7637 2.7768-3.0683 0.93864-2.9628-2.4598 0.14125-1.8854 1.722-2.9572 3.507-2.6253 4.372 0.30852 0.804 0.12742 1.7298-0.40244 2.0572s-1.2304-0.10038-1.5567-0.95079c-0.39759-1.0361-0.18474-1.3157 0.64521-0.84755 0.94357 0.53225 0.9638 0.40085 0.08492-0.55169-0.78084-0.8463-1.6982-0.94559-2.8388-0.30728-1.9088 1.0682-12.637 22.494-11.649 23.264 0.35286 0.275 0.66122 0.95 0.68524 1.5 0.10107 2.3143 2.5871 9.4628 3.4835 10.017 1.6008 0.98933 1.1056 2.0476-1.0334 2.2087-2.1058 0.15862-4.963-4.0602-5.0292-7.4259-0.02802-1.4233-0.33432-1.2768-1.4646 0.70034-2.0251 3.5426-1.9254 6.1223 0.13523 3.5 1.5461-1.9675 1.5607-1.9634 0.90081 0.25-0.36895 1.2375-0.24509 2.25 0.27525 2.25s1.5209 1.3879 2.2236 3.0841 2.3593 3.4954 3.6815 3.9981c2.7967 1.0633 2.0494 3.2956-0.8005 2.391-1.6918-0.53695-1.9158-0.08786-1.9158 3.84 0 6.5924 9.511 32.096 11.044 29.615 0.36788-0.59525 0.53198 1.9899 0.36465 5.7447-0.83067 18.641-0.78396 22.163 0.34915 26.327 0.6735 2.475 1.4842 6.659 1.8016 9.2978l0.5771 4.7978 1.9316-2.4556c1.0624-1.3506 1.9316-2.7772 1.9316-3.1703zm-9.8114-47.019c-1.2037-2.4776-2.1627-5.0553-2.131-5.7281s1.162 1.209 2.5118 4.1816c2.9868 6.5779 2.6763 7.8388-0.38076 1.5464zm2.2188-8.9641c-0.34687-1.382-0.34793-3.9695-0.00235-5.75s0.6958-3.7997 0.77829-4.4872c0.1739-1.4495 1.8166-1.7181 1.8166-0.29705 0 0.52412-0.49043 2.0293-1.0898 3.3449-0.7572 1.6619-0.7818 3.5075-0.08061 6.0471 0.57608 2.0864 0.62281 3.6551 0.10889 3.6551-0.49519 0-1.1841-1.1308-1.531-2.5128zm3.7505-4.4872c0-1.375 0.22698-1.9375 0.50439-1.25s0.27741 1.8125 0 2.5-0.50439 0.125-0.50439-1.25zm-6.7562-40.191c0.26395-2.1489 0.00179-3.8414-0.62754-4.0511-0.67449-0.22483-0.37174-1.469 0.80521-3.3092 1.8373-2.8726 1.8376-2.9103 0.00912-1.4567-1.7554 1.3955-1.8273 1.3307-1.1104-1 0.97908-3.1828 2.5196-5.1116 3.5661-4.4648 0.44968 0.27792 1.1432-0.02157 1.5412-0.66552 0.45192-0.73122 0.29014-0.90292-0.4309-0.45729-0.63498 0.39244-1.1545 0.31197-1.1545-0.17883 0-1.8392 1.2227-2.005 2.8944-0.39235 1.6318 1.5742 1.5466 1.8816-1.5339 5.5389-2.4489 2.9074-3.1324 4.527-2.7431 6.5 0.28518 1.4453 0.02631 3.7528-0.57527 5.1278-0.99848 2.2822-1.0543 2.1784-0.64043-1.1908zm33.329 90.26c-0.07999-1.0619-0.48237-1.7225-0.89418-1.468s-0.49525 1.1233-0.18543 1.9307c0.78123 2.0358 1.2526 1.8338 1.0796-0.46275zm-6.1892-7.1358c1.0763-1.7414-0.14952-2.1102-1.5211-0.45764-0.78875 0.95039-0.86462 1.5242-0.20152 1.5242 0.58488 0 1.36-0.47994 1.7226-1.0665zm0.45888-4.115c0-1.3946-2.2004-2.018-3.2871-0.93134-0.81716 0.81716-0.76147 1.1129 0.20957 1.1129 1.0765 0 1.0672 0.30882-0.05 1.6607-1.2562 1.52-1.1819 1.542 0.87756 0.25945 1.2375-0.77066 2.25-1.7164 2.25-2.1016zm3.9847-1.1755c0.00842-0.47134-0.64528-0.6035-1.4527-0.29367-2.1802 0.83661-2.7647-0.91616-0.82906-2.486 1.1561-0.93764 1.4465-0.97302 0.92997-0.11331-0.42937 0.71468-0.25163 1.25 0.41503 1.25 0.6413 0 0.91252-0.66059 0.60269-1.468s-0.1714-1.7102 0.3076-2.0062 1.0885 0.02705 1.3544 0.71798 0.43716 0.29115 0.38054-0.8884c-0.10197-2.1243-0.13412-2.1208-3.3981 0.36869-3.8438 2.9318-3.7609 2.6354-1.641 5.8708 1.2485 1.9055 1.8578 2.2034 2.4847 1.2148 0.45682-0.72032 0.83748-1.6953 0.8459-2.1667zm0.24688-9.143c1.0274-1.9395 0.9983-1.9458-0.96251-0.20683-1.8132 1.608-2.0852 1.6284-2.6342 0.19761-0.70084-1.8264 1.7984-6.1367 5.1101-8.8134 2.1249-1.7174 3.3061-5.445 1.3405-4.2302-0.50302 0.31089-1.1739-5e-5 -1.4908-0.69098s-0.35431-0.33605-0.08314 0.7886c0.34978 1.4507-0.66987 3.1804-3.5092 5.953-2.2012 2.1495-4.0023 4.7434-4.0023 5.7642s0.40285 1.6071 0.89522 1.3028 1.1444 0.09623 1.4491 0.89006c0.36945 0.96277 0.07139 1.2582-0.89522 0.88726-0.79699-0.30583-1.4491-0.03135-1.4491 0.60995s0.45 0.88789 1 0.54797 1-0.18962 1 0.33399-0.675 1.211-1.5 1.5276-1.5 1.1239-1.5 1.7941c0 1.4582 5.7243-3.8103 7.2316-6.6557zm3.7684-7.8421c0-1.3105-3.9303 2.3252-5.2222 4.8309-0.74027 1.4357-0.1415 1.1708 2.0926-0.9259 1.7213-1.6154 3.1296-3.3726 3.1296-3.905zm-4.1241-4.1153c-0.28491-0.2849-1.5575 0.93896-2.828 2.7197l-2.31 3.2377 2.828-2.7197c1.5554-1.4958 2.5949-2.9528 2.31-3.2377zm7.4993-15.543c1.9287 0 3.7848-0.45 4.1248-1 0.34414-0.55684-0.40524-0.99753-1.691-0.99442-3.553 0.00858-9.809 1.9708-9.809 3.0766 0 0.6347 0.69189 0.61789 1.9343-0.04701 1.0638-0.56935 3.5123-1.0352 5.441-1.0352zm23.897-4.0671c-0.31952-1.2218-0.90708-1.698-1.4389-1.1662-1.0612 1.0612 0.00929 4.4486 1.1776 3.7266 0.44074-0.27239 0.55832-1.4245 0.26131-2.5603zm-35.779 1.0785c0.35034-0.56686-0.05106-0.7345-0.94098-0.39301-1.7324 0.66479-2.0494 1.3816-0.61096 1.3816 0.51754 0 1.2159-0.44485 1.5519-0.98855zm12.757-0.57237c2.0506-0.48908 2.75-1.2642 2.75-3.0475 0-1.3154-0.52295-2.3916-1.1621-2.3916-2.3923 0-11.73 3.3657-11.294 4.0709 0.24953 0.40375 2.5723 0.09648 5.1617-0.68282s5.1775-1.2487 5.7512-1.0431-0.86929 0.9583-3.2068 1.6727-4.25 1.708-4.25 2.208 0.7875 0.67514 1.75 0.3892 2.9875-0.81506 4.5-1.1758zm13.75-2.1292c0-0.20911-0.9 0.10147-2 0.69017s-2 1.5743-2 2.1902 0.9 0.30532 2-0.69017 2-1.9811 2-2.1902zm-2-1.6198c0-0.55-0.9-0.18551-2 0.80998s-2 2.26-2 2.81 0.9 0.18551 2-0.80998 2-2.26 2-2.81zm-1.4994-4.6882c-0.30015-0.9457 0.13943-2.2881 0.97685-2.9831 1.2374-1.027 1.5288-1.0066 1.5558 0.10882 0.03491 1.44 3.9667-2.6733 3.9667-4.1499 0-2.6208-6.4796 1.8074-7.5419 5.1542-0.3261 1.0275-1.2534 1.8681-2.0607 1.8681-1.1629 0-1.2432 0.41971-0.38637 2.0207 0.59479 1.1114 0.80133 2.5739 0.459 3.25s0.32227 0.15411 1.4769-1.16c1.1863-1.3502 1.862-3.1372 1.5536-4.1088zm-2.5006 2.0572c0-0.51754 0.44485-1.2159 0.98855-1.5519 0.56686-0.35034 0.7345 0.05106 0.39301 0.94098-0.66479 1.7324-1.3816 2.0494-1.3816 0.61096zm5-6.941c0-0.55 0.45-1.2781 1-1.618s1-0.16803 1 0.38197-0.45 1.2781-1 1.618-1 0.16803-1-0.38197zm-17.026 7.9271c3.0107-1.0392 5.6389-2.384 5.8403-2.9884 0.313-0.93901-3.259 0.21673-12.314 3.9843-3.9775 1.6549 1.0232 0.8856 6.4741-0.99594zm8.7317-4.2952c-0.23835-1.2375-0.43337-0.225-0.43337 2.25s0.19502 3.4875 0.43337 2.25 0.23836-3.2625 0-4.5zm-2.911-1.9775c0.22001-1.1016-1.1749-0.77001-5.5 1.3075-7.0362 3.3797-10.295 4.3657-10.295 3.1152 0-0.51677 1.6875-1.2218 3.75-1.5668 5.2056-0.87063 7.1007-2.1778 5.491-3.7874-0.97745-0.97745-1.9502-0.98632-4.5626-0.04164-4.5219 1.6351-6.895 1.4386-3.1784-0.26324l3-1.3737-3.231-0.08122c-2.6469-0.06654-3.3447 0.37199-3.8602 2.4261-0.39269 1.5646-0.02234 3.4336 0.98503 4.9711l1.6143 2.4638 7.7459-2.8468c4.301-1.5807 7.877-3.5032 8.0407-4.3228zm-24.81 0.97747c0.00842-0.4125-0.43469-0.75-0.98469-0.75s-0.99311 1.0125-0.98469 2.25c0.01238 1.8194 0.20082 1.963 0.98469 0.75 0.53316-0.825 0.97627-1.8375 0.98469-2.25zm-5.3805-0.47917c-0.3323-0.33229-0.56864 0.25834-0.52522 1.3125 0.04798 1.165 0.28494 1.4019 0.60416 0.60417 0.28887-0.72188 0.25335-1.5844-0.07894-1.9167zm10.462-3.2708c0.51347 0 0.93358-0.70156 0.93358-1.559 0-0.91699-0.47188-1.2674-1.1458-0.85084-0.80641 0.49838-0.94888-0.0766-0.48095-1.941 0.87162-3.4728-0.13316-3.4107-1.4643 0.09044-0.60057 1.5796-0.71798 4.226-0.27729 6.25 0.73495 3.3756 0.77844 3.4048 1.1328 0.76041 0.20266-1.5125 0.78857-2.75 1.302-2.75zm-6.0664 1c0-0.55-0.45-1-1-1s-1 0.45-1 1 0.45 1 1 1 1-0.45 1-1zm-31.076-7.6504c1.7111-3.6565 2.9341-6.8253 2.7177-7.0416-0.57769-0.57769-4.5236 6.3748-5.2415 9.2353-0.33913 1.3512-1.0037 2.4567-1.4768 2.4567s-0.59396-0.7875-0.26855-1.75c0.37191-1.1-0.06053-0.8739-1.1643 0.60883-1.4236 1.9124-1.5033 2.515-0.42079 3.184 1.9395 1.1987 2.4163 0.65355 5.8543-6.6932zm57.341 6.0526c0.80112-0.80111-0.24738-3.4022-1.3714-3.4022-0.49115 0-0.89301 0.9-0.89301 2 0 1.9492 1.0607 2.606 2.2644 1.4022zm-4.6603-3.1314c-1.0165-1.0165-1.8552 0.51389-1.0212 1.8634 0.63003 1.0194 0.86558 1.0202 1.2043 0.00404 0.2316-0.69479 0.14921-1.5351-0.18308-1.8674zm-23.604 1.3362c0-0.21616-0.69837-0.661-1.5519-0.98855-0.88992-0.34149-1.2913-0.17385-0.94098 0.39301 0.58726 0.95021 2.4929 1.4054 2.4929 0.59554zm14.985-1.857c-0.01239-1.8194-0.20082-1.963-0.98469-0.75-1.2529 1.9388-1.2529 3 0 3 0.55 0 0.99311-1.0125 0.98469-2.25zm3.0153 0.75c0-0.825-0.45-1.5-1-1.5s-1 0.675-1 1.5 0.45 1.5 1 1.5 1-0.675 1-1.5zm-45-1c0-0.825-0.45-1.5-1-1.5s-1 0.675-1 1.5 0.45 1.5 1 1.5 1-0.675 1-1.5zm75.161-0.90036c0.7943 0.49091-0.44744-2.8384-1.6177-4.3373-0.10207-0.13074-1.2521 1.2193-2.5557 3-1.3514 1.8461-1.6432 2.6478-0.67897 1.8653 1.4742-1.1964 1.695-1.1322 1.7216 0.5 0.02866 1.7651 0.08952 1.7709 1.0615 0.10141 0.56708-0.97407 1.4983-1.4823 2.0694-1.1293zm-36.161 0.40036c0-0.55-0.7875-0.99311-1.75-0.98469-1.4956 0.01309-1.5319 0.15626-0.25 0.98469 1.8872 1.2196 2 1.2196 2 0zm-30.599-25.428c3.0796-6.2853 5.5992-11.91 5.5992-12.5s0.56675-1.0722 1.2594-1.0722 1.8814-1.0125 2.6416-2.25c1.3452-2.1897 1.3294-2.2031-0.58819-0.5-1.0837 0.9625-2.4729 1.75-3.0871 1.75s-1.7057 1.2375-2.4257 2.75-2.2748 3.175-3.4553 3.6944c-1.2563 0.55279-2.3902 2.2114-2.7347 4-1.4145 7.3459-2.516 12.179-3.1462 13.806-0.37292 0.9625-0.44956 1.75-0.1703 1.75s3.0274-5.1425 6.107-11.428zm68.599 8.4868c0-0.51754-0.45-1.2191-1-1.559s-1 0.08352-1 0.94098 0.45 1.559 1 1.559 1-0.42344 1-0.94098zm-20.142-8.0378c-0.57112-1.6383-0.84622-3.5508-0.61134-4.25s0.98547 0.41625 1.668 2.4788 1.8968 3.75 2.6986 3.75c1.1295 0 1.2254-0.43393 0.42603-1.9276-1.002-1.8722-0.449-5.0482 1.059-6.0825 1.3109-0.89906 2.3401-6.3786 1.0481-5.5801-1.3753 0.84996-1.4648 0.05996-0.25234-2.2256 1.087-2.0491-0.44561-3.6333-3.6832-3.8073-1.2593-0.06766-2.0661 0.10056-1.7928 0.37382s-0.42985 2.3133-1.5625 4.5334c-2.1232 4.1617-2.0393 9.6343 0.21203 13.841 1.5236 2.8469 1.9569 2.2418 0.79053-1.104zm-0.56313-7.8393c-0.78324-0.48407-0.87091-1.2375-0.25696-2.2084 0.81676-1.2915 0.93569-1.2883 0.96253 0.02639 0.02722 1.3333 0.13833 1.3333 1 0 1.2686-1.963 1.2646-3.2816-0.00759-2.4953-0.55777 0.34472-0.46304-0.57242 0.2122-2.0544 0.67087-1.4724 1.3877-2.1733 1.593-1.5575s0.80789 0.85101 1.3392 0.52268c1.0048-0.62101-1.7067 6.5485-2.9473 7.7929-0.38841 0.3896-1.2412 0.37772-1.895-0.02639zm-6.7944 4.818c-0.33992-0.55-0.81648-1-1.059-1s-0.44098 0.45-0.44098 1 0.47656 1 1.059 1 0.7809-0.45 0.44098-1zm3.1042-1.7292c-0.3323-0.33229-0.56864 0.25834-0.52522 1.3125 0.04798 1.165 0.28494 1.4019 0.60416 0.60417 0.28887-0.72187 0.25335-1.5844-0.07894-1.9167zm-11.604 0.72917c0-0.55-0.47656-1-1.059-1s-0.7809 0.45-0.44098 1 0.81648 1 1.059 1 0.44098-0.45 0.44098-1zm-6.9865-2.4646c-1.0518-2.7666-0.02153-3.9561 2.7455-3.1697 4.2747 1.2149 13.41 1.7167 12.783 0.70212-0.3576-0.57861-0.14184-1.8431 0.47945-2.8099 1.0682-1.6623 1.1-1.6627 0.58551-0.00792-0.74912 2.4093 0.08314 2.1977 1.4577-0.37068 0.88221-1.6484 0.86116-1.9515-0.09454-1.3608-0.80135 0.49526-1.0537 0.2761-0.72477-0.62932 0.2776-0.76406 0.95804-1.2944 1.5121-1.1784s0.9478-0.55906 0.875-1.5 0.41396-1.6037 1.0817-1.4728c0.70157 0.13754 0.97299-0.39009 0.64301-1.25-0.31405-0.8184-0.75767-1.488-0.98582-1.488s-2.2542 2.8125-4.5024 6.25-3.7901 5.125-3.4264 3.75c0.60823-2.2997 0.54636-2.3574-0.7723-0.72061-1.2722 1.5791-1.5018 1.6014-2.0403 0.19806-0.33375-0.86973-0.18732-1.3221 0.3254-1.0052 1.0292 0.6361 6.6174-8.2331 5.7401-9.1104-0.30127-0.30127-1.2675 0.84406-2.1472 2.5452-1.6472 3.1852-2.932 4.257-1.9097 1.5929 1.2877-3.3557-0.76335-1.1863-3.0726 3.25-1.3599 2.6125-2.4936 4.3946-2.5192 3.9602s0.88483-2.6155 2.0232-4.8469 1.824-4.3029 1.5235-4.6033-0.82996 0.19318-1.1768 1.0969-1.5305 1.6431-2.6305 1.6431c-1.3669 0-1.8178-0.4748-1.4244-1.5 0.77509-2.0198-2.7012-2.0007-4.3817 0.02417-0.69572 0.83829-1.5207 1.2684-1.8334 0.95574s0.76399-1.6332 2.3925-2.9345 2.6216-2.7082 2.207-3.1264-1.976 0.32902-3.4697 1.6604-2.1118 1.6331-1.3736 0.67061c0.74389-0.96992 0.88953-1.75 0.32672-1.75-1.2176 0-2.6344 2.9617-2.3203 4.8504 0.12353 0.7427-0.2423 1.0618-0.81296 0.7091-1.6753-1.0354-2.4326 4.2142-1.0793 7.4814 1.2574 3.0355 3.4658 5.3808 2.3646 2.5111-0.32755-0.85357-0.31125-1.5519 0.0362-1.5519s1.0595 1.125 1.5822 2.5 1.4005 2.5 1.9505 2.5c0.64963 0 0.67169-0.86351 0.06296-2.4646zm-63.707-7.2839c-0.31059-2.3156-0.93705-3.9801-1.3921-3.6988s-0.65966 1.0595-0.45462 1.7294 0.65729 2.5086 1.005 4.086c0.92687 4.2048 1.4973 2.7706 0.84176-2.1165zm81.295-5.5015c0.79721-1.5125 1.0713-2.75 0.609-2.75-0.72808 0-4.0068 5.5765-4.9976 8.5-0.55855 1.6481 2.8278-2.7888 4.3886-5.75zm-28.099 1.2446c1.1556-1.8698-1.1898-0.99859-3.0983 1.1509-1.8918 2.1306-1.8898 2.1375 0.28932 0.99462 1.2069-0.63299 2.4709-1.5985 2.809-2.1455zm50.497 0.41432c0-0.19039-0.675-0.08715-1.5 0.22943s-1.5 1.0326-1.5 1.5911c0 0.58531 0.63541 0.48812 1.5-0.22943 0.825-0.68469 1.5-1.4007 1.5-1.5911zm-8.408-5.6589-0.56696-3.25 1.4424 3 1.4424 3 0.17675-4 0.17674-4 0.80084 3.5c0.79675 3.4822 0.79976 3.4782 0.58983-0.772-0.15404-3.1188 0.13414-4.1396 1.0675-3.7814 0.70318 0.26984 1.3318-0.05776 1.3968-0.728s0.46184 0.13138 0.88169 1.7814c0.74923 2.9444 0.76819 2.9259 1.0236-1l0.26022-4 0.71619 4 0.71619 4 0.15722-5c0.10917-3.4719 0.43811-4.556 1.0763-3.5471 0.50551 0.7991 0.66737 2.7116 0.35969 4.25-0.34735 1.7368-0.13295 2.7971 0.56558 2.7971 0.65092 0 1.1986-2.0017 1.2997-4.75l0.1747-4.75 0.38391 4.2728c0.4729 5.2633 2.2667 4.5934 2.2667-0.84651 0-3.3897-0.46503-4.2392-3.25-5.9372-4.6347-2.8258-7.8277-2.4736-12.936 1.4269-5.6552 4.318-7.642 7.3492-7.4407 11.352 0.20736 4.1231 1.6265 5.371 6.9562 6.1163 0.4562 0.0638 0.57432-1.3465 0.26249-3.134zm-25.23 0.75c0.31658-0.825 0.18787-1.5-0.28603-1.5s-1.1206 0.675-1.4372 1.5-0.18787 1.5 0.28603 1.5 1.1206-0.675 1.4372-1.5zm41.791 0.38451c0.19099 0.53239 1.6098-0.12383 3.153-1.4583 1.6978-1.4681 2.2398-2.4262 1.3724-2.4262-0.78833 0-1.9894 0.67005-2.6691 1.489s-1.5838 1.2739-2.0091 1.011-1.3869 0.30457-2.1367 1.261c-1.2162 1.5514-1.185 1.5996 0.28944 0.44725 0.95372-0.74539 1.7996-0.88232 2-0.32375zm-25.354-4.6223c-0.12392-3.2962 0.52403-4.2738 6.5319-9.8548 3.6682-3.4076 6.6695-6.4683 6.6695-6.8015 0-1.5128-5.4861-0.38248-7.9796 1.6441-1.5226 1.2375-4.175 3.0166-5.8944 3.9535-3.5013 1.908-3.8667 3.9694-2.0104 11.341 1.3018 5.1701 2.8817 5.0038 2.683-0.28252zm-39.682 2.2713c0.9882 0.15301 2.2449-1.0679 3.2338-3.1416 0.88961-1.8655 1.1833-3.3919 0.65271-3.3919s-1.2524 1.146-1.6039 2.5466-0.86928 2.3164-1.1505 2.0352c-0.81996-0.81996-4.2499 1.3705-4.2331 2.7034 0.0108 0.8571 0.23165 0.88845 0.75 0.10646 0.40408-0.60959 1.462-0.99574 2.351-0.8581zm30.843-5.9706c0.02235-0.5154-1.3094 0.35629-2.9594 1.9371s-3 3.5605-3 4.3993c0 1.614 5.886-4.6444 5.9594-6.3364zm-22.959 4.0447c0-0.70087-0.61326-1.2743-1.3628-1.2743-0.82611 0-1.1752 0.71756-0.88631 1.8221 0.51432 1.9667 2.2491 1.5442 2.2491-0.54777zm71.5 1.3924c0.33992-0.55 0.14148-1-0.44098-1s-1.059-1.0984-1.059-2.441c0-3.1538-1.4083-3.9871-3.1367-1.856-0.74982 0.92452-0.86661 1.3837-0.25954 1.0204 0.61268-0.36669 1.5913 0.40945 2.1996 1.7444 0.90952 1.9962 0.80688 2.4811-0.60377 2.8526-1.2512 0.32953-1.1216 0.47821 0.4914 0.56361 1.205 0.0638 2.4691-0.334 2.809-0.884zm-62.5-1.559c0-0.24254-0.45-0.44099-1-0.44099s-1 0.47656-1 1.059 0.45 0.7809 1 0.44098 1-0.81647 1-1.059zm8.7715-3.0028c-0.3352-0.3352-1.1485 0.44158-1.8073 1.7262-1.1451 2.2328-1.1183 2.2597 0.60945 0.60945 0.99401-0.9494 1.533-2.0004 1.1978-2.3356zm48.416 2.8787c-0.72188-0.28887-1.5844-0.25334-1.9167 0.07895s0.25834 0.56864 1.3125 0.52522c1.165-0.04799 1.4019-0.28494 0.60417-0.60417zm-128.19-1.7003c0-0.21085-0.9-0.61872-2-0.90638s-2-0.11514-2 0.38337 0.9 0.90638 2 0.90638 2-0.17251 2-0.38337zm77.25-2.325c-1.7557-0.64374-1.5605-2.2917 0.27144-2.2917 0.83679 0 2.0276-1.1109 2.6462-2.4686s1.6215-2.1917 2.2286-1.8533 0.51324-0.01317-0.20851-0.78136c-1.1166-1.1884-1.4724-1.1126-2.3865 0.50844-0.99962 1.7728-1.161 1.7033-2.3228-1l-1.2486-2.9052-1.6149 3.7179c-2 4.6044-2.0194 5.6897-0.11492 6.4205 0.825 0.31658 1.5 1.2925 1.5 2.1686 0 1.3144 0.21861 1.3613 1.25 0.26801 1-1.06 1-1.4167 0-1.7833zm-3.1791-1.7917c0-0.55 0.64311-2.125 1.4291-3.5s1.4291-2.05 1.4291-1.5-0.64311 2.125-1.4291 3.5-1.4291 2.05-1.4291 1.5zm65.629 0.05655c-2.0989-2.0989-2.8541-0.76005-0.87503 1.5513 0.91304 1.0664 1.8122 1.4823 1.9982 0.92442s-0.31946-1.672-1.1232-2.4757zm-144.7 1.4434c0-0.55-0.45-1-1-1s-1 0.45-1 1 0.45 1 1 1 1-0.45 1-1zm90.491-1.2522c0.45604 0.4137 0.52468 0.22078 0.15253-0.42872s-0.21929-1.4636 0.33968-1.809 1.03 0.18595 1.0467 1.1809c0.02921 1.7378 0.07156 1.7383 1.076 0.01197 1.5293-2.6284 2.253-10.703 0.95926-10.703-0.58613 0-1.0657 1.8-1.0657 4 0 2.6341-0.44801 4-1.3119 4-0.72157 0-2.3729 1.4625-3.6697 3.25-1.9144 2.6388-1.9815 2.9205-0.3569 1.4978 1.1005-0.9637 2.374-1.4137 2.83-1zm37.097-2.4928c-1.0755-1.0755-1.6464 0.43075-0.89148 2.3518 0.7082 1.8021 0.76169 1.8052 1.1119 0.06485 0.20237-1.0055 0.10317-2.093-0.22045-2.4167zm-39.998 0.0023c-0.6935-0.6935-2.5907 0.71554-2.5907 1.9241 0 0.66309 0.57378 0.58723 1.5242-0.20152 0.83829-0.69572 1.3182-1.4709 1.0665-1.7226zm43.409-1.6559c0-2.5449 0.57111-3.5407 2.547-4.441 3.8049-1.7336 4.453-1.4573 4.453 1.8985 0 1.6825 0.3579 2.8378 0.79534 2.5675 1.1534-0.71285 0.8894-10.065-0.29534-10.462-0.55-0.18427-1.45-0.69211-2-1.1285s-4.4669-1.6006-8.7041-2.587c-6.2727-1.4602-8.4094-1.5813-11.5-0.65162-4.5713 1.3751-7.3667 4.9261-4.5685 5.8033 5.4451 1.7072 12.043 5.0221 13.904 6.9863 1.5924 1.6801 2.4194 1.9614 3.2688 1.1121s0.96629-0.28335 0.46217 2.2372c-0.48645 2.4323-0.3521 3.1748 0.48125 2.6597 0.63586-0.39298 1.1561-2.1907 1.1561-3.995zm-8.2855-10.654c1.4971-1.3782 5.2855-2.1059 5.2855-1.0153 0 0.58706-0.3375 1.1049-0.75 1.1507l-3.0355 0.3355c-1.257 0.13869-1.932-0.07323-1.5-0.47094zm-93.214 13.052c0.33992-0.55 0.16803-1-0.38197-1s-1.2781 0.45-1.618 1-0.16803 1 0.38197 1 1.2781-0.45 1.618-1zm106.85-1.532c-0.79323-2.0671-1.3493-1.8235-1.3493 0.59104 0 1.1325 0.43035 1.793 0.95633 1.468s0.70283-1.2516 0.39301-2.059zm-151.47-0.21798c0.53864-0.9625 1.236-1.6375 1.5497-1.5 1.5872 0.69571 2.9014 0.18111 1.9549-0.76543-1.2375-1.2375-7.7042 1.6893-6.8361 3.0939 0.88541 1.4326 2.257 1.0915 3.3315-0.82849zm157.3-1.4667c-0.71756-0.71756-1.1833-0.7766-1.1833-0.15 0 1.3348 1.1826 2.5174 1.85 1.85 0.28417-0.28417-0.01583-1.0492-0.66667-1.7zm-61.225-6.0924c0.02306-0.44496-0.40293-0.53409-0.94663-0.19806-0.54759 0.33843-0.74497-0.02379-0.44249-0.81204 0.30034-0.78265-0.08375-2.0528-0.85351-2.8226-3.3103-3.3103-3.8753-5.7192-2.1796-9.2926 0.89025-1.8761 2.2589-3.6567 3.0414-3.957 1.8787-0.72093 1.826-2.2754-0.07724-2.2754-0.825 0-1.5 0.28899-1.5 0.6422s-0.6761 1.5157-1.5024 2.5833c-1.48 1.9122-1.4936 1.9113-0.90567-0.05887 0.4683-1.5694 0.37539-1.6873-0.43156-0.54775-0.5656 0.79874-0.81224 1.8019-0.54809 2.2293s0.01333 1.6495-0.55736 2.7159c-1.2522 2.3398-0.22656 8.9799 1.071 6.9332 0.46395-0.73186 0.8974-1.1057 0.9632-0.83066 0.29116 1.2167 1.0082 8.73 1.0498 11 0.04267 2.3276 0.17453 2.2586 1.9116-1 1.0262-1.925 1.8846-3.8641 1.9076-4.309zm-53.958 2.5641c0-0.275-0.675 0.0602-1.5 0.74489s-1.5 1.4699-1.5 1.7449 0.675-0.0602 1.5-0.74489 1.5-1.4699 1.5-1.7449zm-41.2 0.54489c0.93333-0.93333 1.4667-0.93333 2.4 0 0.66 0.66 1.9321 1.2 2.8268 1.2 1.2478 0 1.5216-0.71689 1.1752-3.0771-0.40543-2.7624-0.72011-3.0079-3.0768-2.4009-1.4438 0.37188-3.6889 0.8003-4.9889 0.95205-2.4465 0.28557-4.3741 2.3322-3.5113 3.7282 0.74059 1.1983 3.8133 0.95946 5.175-0.40225zm104.76-8.6638c-1.4197-1.4197-1.5526-1.0582-1.4332 3.8995 0.12011 4.9857 0.19617 5.1577 0.86836 1.9643l0.73672-3.5 0.30635 4 0.30634 4 0.3901-4.3995c0.27241-3.0722-0.08199-4.8716-1.1747-5.9643zm-95.329 4.7094c0.41813-2.8489 0.33228-2.9757-0.8865-1.3089-1.5359 2.1004-1.781 4.4632-0.46296 4.4632 0.48757 0 1.0948-1.4195 1.3495-3.1544zm92.412-4.0956c-0.63764-8.9478-0.78322-9.75-1.7694-9.75-0.4337 0-0.6962 2.9219-0.58333 6.4932s0.50058 6.4962 0.86159 6.5 0.42103 0.90684 0.13337 2.0068c-0.3082 1.1786-0.03068 2 0.67568 2 0.86887 0 1.0565-1.9948 0.68204-7.25zm-3.6475 4.691c0-0.24254-0.45-0.44098-1-0.44098s-1 0.47656-1 1.059 0.45 0.7809 1 0.44098 1-0.81648 1-1.059zm22-3c0-0.24254-0.45-0.44098-1-0.44098s-1 0.47656-1 1.059 0.45 0.7809 1 0.44098 1-0.81648 1-1.059zm-2.2927-3.4297c0.28604-1.0938 0.88782-1.7615 1.3373-1.4837s1.0877 0.06738 1.4183-0.46757 1.2272-0.73239 1.9924-0.43875c0.7791 0.29897 1.8835-0.38586 2.51-1.5564 0.92248-1.7237 1.4733-1.9005 3.1406-1.0082 1.4594 0.78106 2.3944 0.77299 3.3608-0.02903 0.99313-0.82423 1.4458-0.79032 1.753 0.13135 0.31917 0.9575 0.58437 0.96707 1.1563 0.04174 0.40816-0.66041 0.24932-1.2008-0.35296-1.2008s0.04615-1.6795 1.441-3.7321c3.121-4.593 3.1772-5.4554 0.28605-4.3867-1.2375 0.45742-2.8125 0.63378-3.5 0.39192s-1.25 0.07431-1.25 0.7026c0 0.65013 0.53067 0.81438 1.2316 0.38119 0.67737-0.41864 0.20579 0.54292-1.048 2.1368s-3.2359 3.0439-4.4048 3.2223c-2.0625 0.31476-2.0719 0.26538-0.3184-1.6722 0.99379-1.0981 2.1033-1.8134 2.4656-1.5894s0.72678-0.4957 0.8099-1.5992c0.11509-1.5279-0.1554-1.7519-1.1344-0.9394-0.70706 0.5868-1.5175 0.83495-1.801 0.55143s-1.0847 0.17039-1.7804 1.0087c-1.0003 1.2052-1.0045 1.5242-0.02006 1.5242 0.92805 0 0.96142 0.34156 0.13112 1.342-0.61257 0.73811-0.82855 1.6272-0.47994 1.9758 0.88969 0.88969-1.6824 3.7809-2.7672 3.1105-0.50175-0.3101-0.42211-1.4228 0.1827-2.5529 0.78172-1.4607 0.74929-2.3922-0.11974-3.4393-0.65551-0.78984-0.91174-1.4923-0.56939-1.5611s1.0349-0.18125 1.5391-0.25c1.8454-0.25165 2.4875-1.7572 1.1119-2.6073-0.93661-0.57886-1.8822-0.30748-2.8027 0.80437-1.2927 1.5614-1.351 1.5564-0.83894-0.07205 0.30264-0.9625 0.16686-1.75-0.30173-1.75s-1.0875 0.90062-1.3754 2.0014-0.16249 1.7783 0.27858 1.5057c1.5178-0.93803 1.891 2.348 0.40658 3.58-0.81734 0.67833-1.2794 1.7719-1.0268 2.4302 0.65335 1.7026-2.621 6.2648-4.1238 5.7459-0.90646-0.313-0.69792-1.1425 0.75-2.9832 1.1031-1.4023 2.0056-2.864 2.0056-3.2481 0-1.0934-3.4227-0.84797-4.17 0.29907-0.36852 0.56561-1.3751 1.1318-2.2368 1.2583-1.2763 0.18733-1.3654-0.14639-0.4802-1.8003 0.5976-1.1166 0.67263-1.7744 0.16672-1.4618s-2.1248 0.78699-3.5974 1.054c-2.2644 0.41061-2.7686 0.07143-3.2674-2.1978-1.0261-4.6684-1.2557-4.7886-1.3045-0.68336-0.03722 3.1331 0.4875 4.3894 2.421 5.7967 2.1297 1.55 2.4686 1.5832 2.4686 0.24153 0-1.2776 0.33913-1.3434 1.9002-0.36845 1.1347 0.70866 1.663 1.8199 1.3113 2.7585-0.32389 0.86447 0.6496 0.22177 2.1633-1.4282l2.7522-3-1.7345 2.8353c-1.475 2.4112-1.5219 2.9699-0.31354 3.7347 2.315 1.4652 4.0734 1.0629 4.6282-1.0588zm1.857-6.3044c0.37553-0.98622 0.93469-1.5412 1.2426-1.2333s6.4e-4 1.1148-0.68278 1.7931c-0.98762 0.98027-1.1025 0.8654-0.5598-0.5598zm11.321-1.5457c1.1118-1.5614 2.8213-3.4738 3.7989-4.25s0.28583 0.50131-1.5373 2.8388c-3.7123 4.7595-5.3922 5.8078-2.2616 1.4112zm-118.89 7.2798c0-0.24254-0.45-0.44098-1-0.44098s-1 0.47656-1 1.059 0.45 0.7809 1 0.44098 1-0.81648 1-1.059zm87.03-9.941c0.78874 1.9027 0.83249 1.8906 0.89935-0.25 0.04263-1.3646-0.52-2.25-1.4297-2.25-0.825 0-1.5-0.64844-1.5-1.441 0-1.7918-1.6599-2.9183-2.4401-1.656-0.31806 0.51463 0.1043 1.6183 0.93857 2.4526 0.93941 0.93941 1.1333 1.7539 0.50919 2.1396-0.55422 0.34253-1.0077 1.2978-1.0077 2.1228s0.45 1.2219 1 0.88197c0.59825-0.36974 1.076 1.1131 1.1891 3.691 0.15278 3.4815 0.26813 3.1568 0.60065-1.691 0.30074-4.3842 0.63483-5.4614 1.2406-4zm-12.101 2.9264c1.1127-2.5155 2.4366-4.3181 2.942-4.0057 1.0996 0.67958 2.3784-2.2071 1.5626-3.5272-0.31479-0.50934-0.95515-0.68948-1.423-0.40032-1.2774 0.78947-6.0111 9.5565-6.0111 11.133 0 2.4226 0.85623 1.4875 2.9296-3.1996zm52.466 1.8236c-0.33876 0.97276-0.12276 1.75 0.48635 1.75 0.60268 0 1.0027-1.125 0.88888-2.5-0.23042-2.7841-0.79901-3.0717-2.5707-1.3-0.86437 0.86437-1.2 0.88087-1.2 0.05902 0-0.62754 0.45-1.4191 1-1.759s0.98503-1.154 0.96673-1.809-0.95824-0.0793-2.0888 1.2794c-1.225 1.4723-1.6156 2.617-0.96673 2.8333 0.59882 0.19961 1.0888 1.0864 1.0888 1.9707 0 1.3292 0.26038 1.2714 1.5024-0.33333 1.2524-1.6181 1.401-1.6499 0.89301-0.19113zm-27.919-8.5952c-1.8448-9.0833-2.4765-10.438-5.1842-11.118-2.1088-0.52927-2.3759-0.87193-1.24-1.5906 2.3909-1.5126 2.9623-1.1328 4.9397 3.2839 1.8617 4.1582 2.2718 4.0683 3.3336-0.73049 0.2434-1.1 0.49475-0.33906 0.55855 1.691s0.54652 3.9571 1.0727 4.2823c0.58185 0.35961 0.7911-1.4784 0.53404-4.691-0.34833-4.3532-0.25876-4.7546 0.50925-2.2823 0.75765 2.439 0.84975 1.9858 0.49253-2.4234-0.52005-6.4192-2.08-8.7251-3.0246-4.4712-1.0576 4.7624-1.306 5.0566-1.3889 1.6446-0.05811-2.3922-0.54082-3.254-1.829-3.2653-1.3018-0.01139-1.4177-0.22609-0.45267-0.83827 1.0207-0.64747 0.92745-1.124-0.43723-2.2347-1.536-1.2502-1.6595-1.2114-1.0787 0.33827 0.39851 1.0633 0.17769 1.7619-0.56276 1.7804-0.67024 0.01672-0.44445 0.48162 0.50175 1.0331 1.6562 0.96527 4.4055 8.6439 3.4405 9.6089-0.25881 0.25881-0.79035-1.0241-1.1812-2.8509-0.78435-3.666-2.1755-5.8215-3.7571-5.8215-0.5679 0-0.21806 0.9 0.77743 2 1.9625 2.1685 0.75566 2.7939-1.4472 0.75-1.098-1.0188-1.2369-0.9358-0.75093 0.44907 0.41114 1.1716 0.17017 1.5356-0.77613 1.1724-0.7548-0.28965-1.8591 0.38274-2.4539 1.4942-0.89062 1.6641-0.62052 2.5162 1.5302 4.8276 1.4365 1.5437 3.2997 2.6605 4.1406 2.4817 1.0248-0.21786 1.3336 0.1837 0.93674 1.218-0.32566 0.84865-0.16176 1.809 0.36422 2.134s0.95633 1.941 0.95633 3.591c0 1.856 0.40367 2.7505 1.0586 2.3458 0.61779-0.38182 0.79176-1.9678 0.41782-3.809zm2.6026-17.071c-0.04342-1.0542 0.19292-1.6448 0.52522-1.3125s0.36781 1.1948 0.07894 1.9167c-0.31922 0.79773-0.55618 0.56078-0.60416-0.60417zm-20.129 16.167c0.17528-5.3047 6.1e-4 -9.0208-0.45896-9.7644-0.92516-1.4969-4.2447 0.17822-5.4066 2.7284-1.6236 3.5634-0.57026 4.0704 1.2972 0.62443 0.84603-1.5611 1.5562-2.4713 1.5783-2.0227s-0.44642 1.7247-1.041 2.8356-0.85478 2.2462-0.57826 2.5227 1.179-0.77452 2.0055-2.3356l1.5028-2.8384-0.30372 3.983c-0.27725 3.6358 0.16465 6.517 0.99952 6.517 0.18197 0 0.36432-1.0125 0.40521-2.25zm21.05-0.80902c0-0.51754-0.45-0.94098-1-0.94098s-1 0.70156-1 1.559 0.45 1.2809 1 0.94098 1-1.0415 1-1.559zm-10.612-0.50922c0.67358-1.7553-1.0052-1.9282-1.7648-0.18176-0.29901 0.6875-0.27088-0.05462 0.06251-1.6492 0.42674-2.041 0.267-2.6895-0.53969-2.191-0.63021 0.38949-1.1458 1.3832-1.1458 2.2082s-0.45165 1.2209-1.0037 0.8797-0.72696-1.7228-0.38876-3.0703c0.49415-1.9688 0.29961-2.329-0.99058-1.8339-0.88303 0.33885-1.4744 0.90644-1.3141 1.2613 1.9265 4.2655 3.1093 5.7507 4.6737 5.8685 1.024 0.07713 2.109-0.50405 2.4112-1.2915zm23.648-1.8729c0.03077 1.6858 0.23355 1.6123 1.5417-0.55887l1.5063-2.5-0.57825 2.5c-0.55077 2.3812-0.50165 2.3654 1.0336-0.33268 1.5764-2.7705 1.3952-5.6673-0.35453-5.6673-0.48321 0-1.3854 1.0125-2.0048 2.25-1.036 2.0697-1.0818 2.0096-0.57193-0.75 0.3073-1.6632 0.18406-2.5395-0.27658-1.9665s-1.7247 1.0184-2.8172 1c-1.2288-0.0207-2.1074 0.7293-2.3038 1.9665-0.26184 1.6496-0.13553 1.7372 0.72099 0.5 0.92306-1.3333 1.048-1.3333 1.124 0 0.05767 1.0105 0.36607 0.84731 0.94503-0.5 0.47269-1.1 0.89106-1.4743 0.92971-0.83179 0.12304 2.0449-1.1072 4.3401-2.023 3.7741-0.48607-0.30041-0.59154 0.21531-0.23439 1.146 0.59926 1.5616 0.75272 1.5509 1.9886-0.13919 1.2882-1.7617 1.3405-1.7576 1.3746 0.1097zm6.3461-1.1108c0.34149-0.88992 0.17385-1.2913-0.39301-0.94098-0.5437 0.33602-0.98855 1.0344-0.98855 1.5519 0 1.4384 0.71677 1.1215 1.3816-0.61095zm-37.02-4.9481c0.72973-1.9016-0.28659-4.6644-1.4511-3.9447-1.0042 0.6206-0.82641 5.4447 0.2006 5.4447 0.3712 0 0.93392-0.675 1.2505-1.5zm40.908-0.10282c0.33155-0.33155 0.19201-1.6833-0.31009-3.004-0.58779-1.546-0.52338-3.2561 0.18086-4.8017 0.896-1.9665 0.63861-3.3671-1.4236-7.746-2.8691-6.0924-10.713-15.356-10.715-12.654-7.6e-4 0.93004 0.44862 1.9691 0.99862 2.309 1.261 0.77936 1.3074 2.5 0.06739 2.5-0.96093 0-1.2039-0.61472-3.0106-7.6171-1.039-4.0268-1.1478-4.1098-4.9664-3.7861-2.7362 0.23198-4.0722-0.10695-4.4659-1.1329-0.30897-0.80516-1.1215-1.4639-1.8056-1.4639s-2.2013-1.2008-3.3715-2.6684c-1.41-1.7683-2.6876-2.4535-3.7876-2.0314-2.5688 0.98572-1.9828 3.3102 1.784 7.077 2.8212 2.8212 3.5331 3.1437 3.9372 1.7833 0.2713-0.91331 0.28017 1.2644 0.01971 4.8394-0.51547 7.0752-0.0557 8.37 3.3492 9.4326 1.7569 0.54828 2.2624 0.30387 2.3064-1.1152 0.03105-0.99956 0.60042-0.24239 1.2653 1.6826 0.97989 2.8371 0.95817 3.5634-0.11471 3.8345-0.78897 0.19942-1.199 1.4111-1.0153 3 0.26435 2.2858 1.163 2.9504 6.3083 4.6655 6.3753 2.1251 12.5 5.4156 12.5 6.7156 0 0.92747 1.4107 1.0403 2.2695 0.18157zm-6.2828-13.429c-1.7432-4.2085-0.84661-4.4862 1.1368-0.35197 0.89295 1.8612 1.285 3.384 0.87132 3.384s-1.3174-1.3644-2.0081-3.0321zm-3.8288-1.9679c0-1.375 0.22698-1.9375 0.50439-1.25s0.27741 1.8125 0 2.5-0.50439 0.125-0.50439-1.25zm-9.9057-10.5c-0.0111-2.2 0.18461-3.2178 0.4349-2.2617s0.25937 2.7561 0.02018 4-0.44398 0.46166-0.45508-1.7383zm-3.0943-0.5c0-1.375 0.22698-1.9375 0.50439-1.25s0.27741 1.8125 0 2.5-0.50439 0.125-0.50439-1.25zm-12.006 18.25c1.2352-2.6125 2.4187-5.0875 2.6301-5.5s-0.09708-0.75-0.68554-0.75c-0.99649 0-2.939 3.7769-4.545 8.8371-1.206 3.7999 0.27947 2.322 2.6005-2.5871zm9.3718-4.1746c-0.36228-1.1414-1.036-2.0754-1.4972-2.0754s-0.32309 1.0922 0.3069 2.4272c1.3497 2.8601 2.136 2.6277 1.1903-0.35179zm2.4761-1.0039c0-1.8634-2.4233-5.0714-3.8309-5.0714-0.37842 0-1.3186 1.0125-2.0892 2.25-1.2642 2.03-1.2454 2.1212 0.19255 0.93308 1.3625-1.1258 1.8378-0.94441 3.2757 1.25 2.0135 3.073 2.4519 3.1871 2.4519 0.63835zm5.4351-29.53c-1.6981-2.5917-5.5538-3.9558-8.5201-3.0143-4.1032 1.3023-0.50845 7.1849 5.1091 8.3607 2.8662 0.59991 3.6054 0.40097 4.2137-1.134 0.44764-1.1296 0.13204-2.786-0.80263-4.2124zm-99.894 272.39c0.72093-1.1665 4.16-1.2265 4.8655-0.08483 0.28852 0.46684-0.81802 0.88697-2.459 0.93363s-2.7239-0.33531-2.4066-0.8488zm-14.291-9.7257c-1.2375-0.19084-2.25-0.81384-2.25-1.3844s0.7118-0.76429 1.5818-0.43045 4.5825 0.64252 8.25 0.68594 6.2182 0.23275 5.6682 0.42074c-1.706 0.5831-10.881 1.0735-13.25 0.7082zm-9.25-3.2079c0-0.55-1.89-1-4.2-1-2.3858 0-3.7896-0.36738-3.25-0.85048 1.5297-1.3695 9.45-0.14957 9.45 1.4555 0 0.76723-0.45 1.395-1 1.395s-1-0.45-1-1zm39-3-4.5-0.69961 4.5-0.06259c2.475-0.03442 6.75 0.28786 9.5 0.71619l5 0.77878-5-0.01658c-2.75-0.00912-7.025-0.3314-9.5-0.71619zm42 0c0-0.55 0.45-1 1-1s1 0.45 1 1-0.45 1-1 1-1-0.45-1-1zm-74.5-7c0.33992-0.55 1.4915-1 2.559-1s1.941 0.45 1.941 1-1.1516 1-2.559 1c-1.4514 0-2.2915-0.43284-1.941-1zm-12.5-5c0-0.55 0.42344-1 0.94098-1s1.2191 0.45 1.559 1-0.08352 1-0.94098 1-1.559-0.45-1.559-1zm-2.5248-4.9599c0.35354-0.57204 1.8162-1.0401 3.2505-1.0401 3.1346 0 2.7719 0.47899-1.0595 1.3994-1.8587 0.44651-2.6126 0.32286-2.191-0.35933zm1.5248-6.0401c0.825-0.53316 2.625-0.93141 4-0.88501l2.5 0.08437-2.5 0.80064c-1.375 0.44035-3.175 0.83861-4 0.88501-1.3333 0.07499-1.3333-0.02334 0-0.88501zm159.34-10.217c0.36783-1.4656-0.01374-3.3002-0.97049-4.6661-0.86716-1.238-1.3653-3.3565-1.107-4.7077s0.07876-2.6983-0.39896-2.9935-0.41742-1.3798 0.13411-2.4104c1.1786-2.2023 1.325-4.3223 0.2527-3.6595-0.4125 0.25496-0.75-4.6457-0.75-10.89 0-14.304 1.7909-13.654 2.2083 0.80113 0.25126 8.7028 2.0222 23.653 3.3978 28.684 0.22015 0.80519-0.43677 1.6207-1.4894 1.849-1.5524 0.33662-1.7768-0.01597-1.2771-2.0068zm-149.57 0.04873c0.5811-0.5811 1.6468-0.85979 2.3683-0.61931 0.74895 0.24965 0.29565 0.70294-1.0566 1.0566-1.6633 0.43497-2.0538 0.30483-1.3117-0.43724zm5.4699-0.51863c0.95609-0.25029 2.7561-0.25937 4-0.02018s0.46166 0.44398-1.7383 0.45508-3.2178-0.18461-2.2617-0.4349zm20.512-3.0451c2.3375-0.21053 6.1625-0.21053 8.5 0s0.425 0.3828-4.25 0.3828-6.5875-0.17226-4.25-0.3828zm165.97-22.999c2.3209-0.20972 6.3709-0.21222 9-0.00554s0.73017 0.37827-4.2198 0.38131-7.1011-0.16605-4.7802-0.37577zm15.53 0.0414c0.9625-0.25152 2.5375-0.25152 3.5 0s0.175 0.45733-1.75 0.45733-2.7125-0.2058-1.75-0.45733zm11.75-2.8107c-3.266-1.867-2.1232-1.8879 2.1352-0.03914 1.8506 0.80347 2.6898 1.4625 1.8648 1.4646s-2.625-0.6394-4-1.4254zm-194-0.5-4.5-0.69961 4.691-0.1502c2.58-0.0826 4.9691 0.29981 5.309 0.84981s0.25398 0.93241-0.19098 0.84981-2.834-0.46502-5.309-0.84981zm23 0-9.5-0.61717 9-0.09252c4.95-0.05088 11.475 0.24962 14.5 0.66779l5.5 0.7603-5-0.05061c-2.75-0.02784-9.275-0.32835-14.5-0.66779zm142-3c0.825-0.53316 2.175-0.94464 3-0.9144 0.98906 0.03625 0.81874 0.34772-0.5 0.9144-2.7491 1.1813-4.328 1.1813-2.5 0zm-128.5-1.6572c-1.65-0.19664-5.475-0.9999-8.5-1.785s-8.7625-1.9477-12.75-2.5835-7.25-1.499-7.25-1.9182c0-0.76295 8.0878 0.65793 19.664 3.4546 3.3903 0.81906 7.3012 1.4892 8.691 1.4892s2.805 0.45 3.1449 1 0.47898 0.93258 0.30902 0.85017-1.659-0.31072-3.309-0.50735zm142.77 0.05301c0.3323-0.33229 1.1948-0.36781 1.9167-0.07894 0.79773 0.31922 0.56078 0.55618-0.60417 0.60416-1.0542 0.04342-1.6448-0.19292-1.3125-0.52522zm-5.5399-1.0518c0.67703-0.27392 2.027-0.29059 3-0.03705s0.41903 0.47766-1.231 0.49804-2.4461-0.18706-1.769-0.46099zm-176.46-2.9482c0.33229-0.33229 1.1948-0.36781 1.9167-0.07894 0.79773 0.31922 0.56078 0.55618-0.60417 0.60416-1.0542 0.04342-1.6448-0.19292-1.3125-0.52522zm119.73-2.6458c-0.00205-1.7875-0.90205-4.7234-2-6.5242-2.0443-3.353-2.6398-7.7101-1.1772-8.614 0.45048-0.27841 0.6244 0.82003 0.3865 2.441s-0.00351 2.9472 0.52088 2.9472 1.4532 1.6875 2.0641 3.75c1.9262 6.5037 2.2909 9.25 1.2285 9.25-0.56048 0-1.0207-1.4625-1.0228-3.25zm-112.73 0.64583c0.33229-0.33229 1.1948-0.36781 1.9167-0.07894 0.79773 0.31922 0.56078 0.55618-0.60417 0.60416-1.0542 0.04342-1.6448-0.19292-1.3125-0.52522zm121.17-9.552c0.06679-1.8391 0.47237-3.9064 0.9013-4.5939 0.46859-0.75106 0.27733-1.25-0.47914-1.25-0.97924 0-0.99235-0.26667-0.05902-1.2 1.7328-1.7328 1.4741-2.8424-0.48732-2.0897-1.1918 0.45733-0.87049-0.42345 1.0941-2.9991 1.5298-2.0056 2.6-4.1908 2.3783-4.8559s-1.4258 0.44536-2.6756 2.4677-2.4975 3.677-2.7725 3.677 0.41895-1.4869 1.5421-3.3042 2.5377-6.4981 3.1433-10.402c1.0544-6.7957 1.3538-7.3501 7.0394-13.036 7.5002-7.5002 7.7987-6.6136 0.39014 1.1586-7.1242 7.4739-6.2328 8.6684 1.0408 1.3948 3.029-3.029 5.5072-5.197 5.5072-4.8179s-2.8344 3.4111-6.2987 6.7376c-5.3497 5.137-6.3141 6.5922-6.401 9.6585-0.10932 3.8567 0.45851 4.3489 2.7232 2.3602 0.7829-0.6875 0.6479-0.31457-0.3 0.82874-2.1975 2.6505-2.235 4.0881-0.05975 2.2937 1.4907-1.2297 1.5505-1.1644 0.57529 0.62756-0.59864 1.1-2.0223 2.7831-3.1637 3.7402-2.0344 1.706-2.9787 4.4362-1.1416 3.3008 1.146-0.70825 0.78605 3.4925-0.47136 5.5013-0.50183 0.80174-0.78425 2.2371-0.62758 3.1896s-0.1211 2.4573-0.61724 3.3439c-0.66708 1.192-0.87045 0.74082-0.78066-1.7319zm-15.366-12.344c-0.00404-1.1 0.65335-2.8735 1.4608-3.9411 1.8585-2.4572 1.8607-1.6926 0.00734 2.5763-1.0114 2.3295-1.4631 2.7495-1.4682 1.3648zm23.929-10.755c0-0.275 0.675-1.0602 1.5-1.7449s1.5-1.0199 1.5-0.74489-0.675 1.0602-1.5 1.7449-1.5 1.0199-1.5 0.74489zm-1.5-3.7449c0.99549-1.1 2.035-2 2.31-2s-0.31449 0.9-1.31 2-2.035 2-2.31 2 0.31449-0.9 1.31-2zm-41.454-3.0856c0.61391-1.1471 1.3153-1.8865 1.5587-1.6431 0.6999 0.69989-0.71897 3.7288-1.7467 3.7288-0.51083 0-0.42629-0.93781 0.18801-2.0856zm47.454-2.9144c1.5808-1.65 3.0992-3 3.3742-3s-0.79338 1.35-2.3742 3-3.0992 3-3.3742 3 0.79338-1.35 2.3742-3zm-43.548 0.94933c-0.79874-0.50529-1.063-0.9256-0.58724-0.93402s0.08716-1.2025-0.86354-2.6534c-1.3936-2.1269-1.5948-3.8202-1.0384-8.7383 0.66471-5.8753 1.6215-7.5755 4.2815-7.6082 0.85605-0.01053 1.0987 1.1553 0.77724 3.7347-0.25703 2.0625-0.21708 3.1875 0.08877 2.5 0.9151-2.057 2.5699-1.4116 1.9552 0.76254-0.31293 1.1069-0.84146 2.9632-1.1745 4.1252-0.36955 1.2893-0.2149 1.8712 0.39678 1.4932 1.7034-1.0528 2.1598 2.0687 0.58807 4.0218-1.3696 1.702-1.3992 1.6507-0.37615-0.6528s0.99348-2.3548-0.37615-0.6528c-0.81757 1.016-1.2617 2.4329-0.98699 3.1488 0.67086 1.7482-0.88604 2.5911-2.6846 1.4533zm2.2294-8.3792c0.22023-1.8864 0.09635-3.2419-0.27529-3.0122-0.94978 0.58699-1.7155 6.4421-0.84252 6.4421 0.39457 0 0.89759-1.5434 1.1178-3.4298zm-2.5193-5.8202c-0.27741-0.6875-0.50439-0.125-0.50439 1.25s0.22698 1.9375 0.50439 1.25 0.27741-1.8125 0-2.5zm-69.967 9.7626c0.91468-1.9181 1.8406-3.3099 2.0576-3.0929 0.45746 0.45746-2.5782 6.5804-3.2625 6.5804-0.25198 0 0.29023-1.5694 1.2049-3.4874zm102.3 1.6055c0-0.55 0.45-1.2781 1-1.618s1-0.16803 1 0.38197-0.45 1.2781-1 1.618-1 0.16803-1-0.38197zm-104.96-0.69816c-0.02209-0.59407 1.0658-3.7441 2.4176-7s2.4587-5.2449 2.4598-4.4199c0.00245 1.7455-4.8175 13.031-4.8774 11.42zm58.96-0.41987c-1.375-0.44035-4.8359-0.8455-7.691-0.90032s-5.4494-0.51788-5.7653-1.029c-0.67048-1.0848 8.6607-0.4395 15.659 1.083 2.5864 0.56268 5.2434 0.68877 5.9045 0.28019 0.76165-0.47072 0.94059-0.31992 0.48845 0.41165-0.79931 1.2933-4.8142 1.3655-8.5955 0.15451zm54.5-5c1.5808-1.65 3.0992-3 3.3742-3s-0.79338 1.35-2.3742 3-3.0992 3-3.3742 3 0.79338-1.35 2.3742-3zm-68.305-5.5c-0.02038-1.65 0.18706-2.4461 0.46099-1.769s0.29059 2.027 0.03705 3-0.47766 0.41903-0.49804-1.231zm-37.464-2.5802c0.35361-1.3522 0.8069-1.8055 1.0566-1.0566 0.24048 0.72144-0.03821 1.7872-0.61931 2.3683-0.74207 0.74207-0.87221 0.35164-0.43724-1.3117zm95.833 0.78703c0.37553-0.98622 0.93469-1.5412 1.2426-1.2333s6.4e-4 1.1148-0.68278 1.7931c-0.98762 0.98026-1.1025 0.8654-0.5598-0.5598zm-4.5337-4.2069c0-0.55 0.43621-1.675 0.96937-2.5s0.96937-1.05 0.96937-0.5-0.43621 1.675-0.96937 2.5-0.96937 1.05-0.96937 0.5zm-20.128-10.25c0.64208-1.2375 0.89594-2.25 0.56414-2.25s0.41376-1.4283 1.6568-3.174c1.4006-1.967 2.4234-2.6841 2.6895-1.8858 0.2795 0.83849 1.2472 0.28832 2.772-1.576 1.2884-1.5753 2.3385-2.4142 2.3335-1.8642s-2.5233 3.7-5.5963 7-5.0618 4.9875-4.4197 3.75zm3.597-4.25c0.99549-1.1 1.585-2 1.31-2s-1.3145 0.9-2.31 2-1.585 2-1.31 2 1.3145-0.9 2.31-2zm-97.494 0.94113c-0.00339-0.85738 0.65453-2.4324 1.462-3.5 1.9102-2.5254 1.9291-1.4315 0.03796 2.1946-0.82161 1.5754-1.4966 2.1628-1.5 1.3054zm10.994-0.57646c0-0.80038 4.8824-5.3647 5.7386-5.3647 0.34956 0-0.65781 1.35-2.2386 3-2.9621 3.0918-3.5 3.4552-3.5 2.3647zm-35.748-5.8647c-0.0111-2.2 0.18461-3.2178 0.4349-2.2617s0.25937 2.7561 0.02018 4-0.44398 0.46166-0.45508-1.7383zm23.748 3.1728c0-1.0531 2.9428-6.6728 3.4943-6.6728 0.24361 0 0.15729 0.7875-0.19184 1.75-0.80756 2.2263-3.3024 5.9454-3.3024 4.9228zm-12.164-29.89c-3.3274-1.114-4.6005-3.7826-1.8046-3.7826 1.0827 0 1.8561 0.5625 1.7186 1.25-0.16348 0.81741 0.87473 1.199 3 1.1026 1.7875-0.0811 3.25 0.20392 3.25 0.63337 0 1.3084-3.3445 1.7406-6.164 0.79666zm17.914-1.4449c0.6875-0.27741 1.8125-0.27741 2.5 0s0.125 0.50439-1.25 0.50439-1.9375-0.22697-1.25-0.50439zm-17.676-2.7487c-0.87557-1.055-0.88241-1.5893-0.02709-2.118 1.2501-0.77261 5.9532 1.3588 5.9532 2.6979 0 1.3864-4.6738 0.92895-5.9261-0.57995z"/>
</svg>
