<?xml version="1.0" encoding="UTF-8"?>
<svg width="210mm" height="297mm" version="1.1" viewBox="0 0 744.09448819 1052.3622047" xmlns="http://www.w3.org/2000/svg">
 <defs>
  <filter id="a" x="-.012" y="-.012" width="1.024" height="1.024" color-interpolation-filters="sRGB">
   <feGaussianBlur stdDeviation="0.072604713"/>
  </filter>
 </defs>
 <path d="m299.09 640.96s15.876 42.107 16.567 71.788-13.115 83.523-6.9027 110.44c6.2124 26.921 73.169 60.744 102.85 60.744s60.744-4.1416 75.93-49.009c15.186-44.868 21.398-102.16-2.0708-151.17-23.469-49.009-46.248-95.257-46.248-95.257l-144.27 13.805z" fill="#532900" fill-rule="evenodd"/>
 <g transform="matrix(5.4667 0 0 5.4667 -1330 -3042.4)" fill-rule="evenodd">
  <path d="m325.85 708.06s0.81868 14.685 5.4296 19.698c5.3157 5.7789 14.436 9.8002 22.108 8.1309 6.596-1.4351 13.855-7.5254 14.384-14.255 0.50702-6.4539-5.0917-14.675-11.49-15.657-5.134-0.78835-11.92 4.0636-12.564 9.2176-0.48017 3.8422 3.8868 10.621 7.3867 8.9651 2.9472-1.3947-3.0895-6.563-1.894-9.5964 0.92302-2.3421 3.6575-4.9226 6.124-4.4194 5.1065 1.0418 9.4397 8.353 8.0812 13.385-1.5441 5.719-9.7472 9.4741-15.594 8.5232-8.3799-1.3628-16.541-4.2932-17.327-18.668-0.13967-2.5556-0.54019-7.6591-0.54019-7.6591z" fill="#532900"/>
  <path d="m355.02 706.5c-4.6312 0.38057-9.1823 3.635-10.495 8.1321-0.57731 3.2066 1.2484 6.5139 3.7033 8.5132 0.87327 0.80943 3.2424 1.2408 3.3709-0.35652-0.53251-2.8276-3.4435-5.1636-2.7395-8.22 1.0553-2.6421 3.7054-5.3178 6.796-4.8667 4.5786 1.1307 7.6724 5.5346 8.5838 9.9363 0.90491 3.79-1.2553 7.605-4.3728 9.7123-4.137 2.9937-9.6294 4.0764-14.575 2.6441-5.184-0.97658-10.402-3.6987-12.773-8.5897-2.7308-5.1541-2.3277-11.137-2.8862-16.745-0.92678 0.90682-3.3852 1.0319-3.0571 2.5807 0.65381 5.8315 1.3246 12.005 4.4522 17.147 4.01 4.9365 9.9914 8.1496 16.296 9.0927 7.5797 1.1734 15.456-3.2585 18.987-9.8248 2.7202-5.0191 0.45298-11.179-3.1383-15.099-2.0773-2.2545-4.9514-4.1674-8.1516-4.0557z" fill="#a66524"/>
  <path d="m354.51 706.73c-4.7392 0.4178-10.02 4.2136-9.8157 9.3524 0.47398 2.6594 2.1355 5.8092 4.9377 6.4431 1.3837-0.0271-0.13808-1.8286-0.30914-2.4638-1.5945-2.3677-2.9241-5.7368-0.76549-8.2119 1.7867-2.9578 5.8394-4.6827 8.9495-2.6505 4.7086 2.5354 7.8486 8.2498 6.9668 13.584-1.6321 6.4862-8.7555 9.9375-15.004 10.085-6.8084-0.26284-14.419-2.8033-17.934-9.0802-2.8463-4.953-2.7704-10.839-3.1602-16.359-1.1101 0.30435-2.2296 0.98482-1.4563 2.3431 0.81689 5.946 1.3138 12.719 5.6959 17.284 5.9931 5.878 15.646 9.3813 23.555 5.769 4.7994-2.2386 9.5988-6.5557 9.99-12.18-9e-3 -5.9885-4.1517-12.249-10.083-13.789-0.51579-0.0993-1.0422-0.14406-1.5674-0.12629z" fill="#ce8842"/>
 </g>
 <g transform="matrix(5.4392 -.5474 .5474 5.4392 -1434.2 -2807.6)" fill-rule="evenodd">
  <path d="m266.58 656.06s-0.50508-2.3991 2.7779-2.7779c3.283-0.37881 4.9245-0.12627 5.4296 3.0304 0.50508 3.1567 2.0573 13.522-2.9935 19.331-5.0508 5.8084-22.079 3.6872-26.958 2.336-2.5133-0.68155-2.6331 0.0503-4.2395 2.0612-1.651 1.7877-3.3105 7.2082-3.6893 8.5971s-4.4194 4.7982-5.8084-0.50507 6.6923-11.869 8.3338-12.501-1.5345-0.94859-4.1684 0.30141-5.2679 3.2589-7.0536 5.3571-7.4107-0.0446-4.1072-4.375c3.3036-4.3304 13.571-5.4018 13.571-5.4018s-4.5982-3.125-10.67-2.5c0 0-3.8393-0.66964-2.7679-2.7678 1.0714-2.0982 8.1657-3.2252 21.116 7.0982 6.6111-0.6587 13.838 0.27437 19.018 0.0893-0.2669-6.4351 2.2092-17.373 2.2092-17.373z" fill="#532900"/>
  <path d="m271.01 654.08c-1.4644-0.0344-4.0758 0.22018-3.6879 2.2725-1.2049 5.8992-2.3835 11.848-2.1596 17.866-6.6816 0.23718-13.352-0.75937-19.996-0.0408-5.1941-3.9239-10.967-8.3259-17.765-8.4552-0.95025-0.1496-3.3688 0.88787-1.915 1.9074 2.1203 1.2085 4.6946 0.14235 6.9698 0.96138 2.757 0.56564 5.3035 1.8589 7.5904 3.4704-5.1568 0.71042-11.147 1.266-15.045 5.1682-1.4426 1.2238-1.2615 3.9889 1.0204 4.0296 2.1377 0.22499 2.8888-2.397 4.5763-3.2508 2.7159-2.0206 6.1715-4.4252 9.7184-3.4503 1.4702 1.4884-1.4402 2.0605-2.1527 2.8895-3.033 2.6023-6.7838 6.039-6.1864 10.42 0.13331 1.6119 1.877 3.172 3.2966 1.6378 1.8011-1.7109 1.641-4.59 2.8898-6.6865 1.0368-2.1463 2.2643-4.6491 4.4683-5.7744 2.6605-0.32484 5.2225 1.1678 7.9038 1.1601 6.2997 0.58242 13.238 1.2572 19.076-1.8003 5.0512-3.6827 5.1994-10.799 4.7793-16.39-0.45483-1.9714 0.18485-5.5636-2.5595-5.9085-0.27299-0.0278-0.54786-0.032-0.82203-0.0262z" fill="#ce8842"/>
  <path d="m271.01 654.08c-1.4644-0.0344-4.0758 0.22018-3.6879 2.2725-1.2049 5.8992-2.3835 11.848-2.1596 17.866-6.6816 0.23718-13.352-0.75937-19.996-0.0408-5.1941-3.9239-10.967-8.3259-17.765-8.4552-0.95025-0.1496-3.3688 0.88787-1.915 1.9074 2.1203 1.2085 4.6946 0.14235 6.9698 0.96138 2.757 0.56564 5.3035 1.8589 7.5904 3.4704-5.1568 0.71042-11.147 1.266-15.045 5.1682-1.4426 1.2238-1.2615 3.9889 1.0204 4.0296 2.1377 0.22499 2.8888-2.397 4.5763-3.2508 2.7159-2.0206 6.1715-4.4252 9.7184-3.4503 1.4702 1.4884-1.4402 2.0605-2.1527 2.8895-3.033 2.6023-6.7838 6.039-6.1864 10.42 0.13331 1.6119 1.877 3.172 3.2966 1.6378 1.8011-1.7109 1.641-4.59 2.8898-6.6865 1.0368-2.1463 2.2643-4.6491 4.4683-5.7744 2.6605-0.32484 5.2225 1.1678 7.9038 1.1601 6.2997 0.58242 13.238 1.2572 19.076-1.8003 5.0512-3.6827 5.1994-10.799 4.7793-16.39-0.45483-1.9714 0.18485-5.5636-2.5595-5.9085-0.27299-0.0278-0.54786-0.032-0.82203-0.0262z" fill="#ce8842"/>
 </g>
 <path d="m299.18 608.55c0.23779 22.706 7.1605 43.846 13.814 65.284 11.049 33.013 5.3771 67.938 0.45044 101.29-1.8224 22.036-8.8773 50.151 12.365 65.715 31.705 25.246 74.021 46.186 115.8 35.533 31.363-6.2389 43.847-39.119 49.504-66.307 12.172-46.726 7.7805-98.684-17.625-140.89-12.074-24.563-24.24-49.083-36.486-73.564-45.941 4.3116-91.882 8.6232-137.82 12.935z" fill="#a66524" fill-rule="evenodd"/>
 <g transform="matrix(5.1108 1.9403 -1.9403 5.1108 92.897 -257.73)" fill-rule="evenodd">
  <path d="m133.25 167.6s-2.5893-11.071-13.393-15.982c-10.804-4.9107-18.482-5.5357-22.589 0.17857-4.1071 5.7143 3.6607 14.107 12.321 17.5 8.6607 3.3929 19.732 4.1964 21.964 3.0357 2.2321-1.1607 1.6964-4.7321 1.6964-4.7321z" fill="#e59f59"/>
  <path d="m134.12 167.24c-1.6215-6.1566-8.2145-10.609-14.038-13.454-6.71-3.2779-19.438-6.9018-22.17-3.2299-3.9478 5.3077 2.6921 15.432 11.072 18.891 8.3802 3.4592 19.355 4.7577 21.666 3.8503 2.3107-0.90737 3.9567-4.2092 3.47-6.057z" fill="#ce8842"/>
  <path d="m115.72 170.7c0.0396-0.12659 1.7202 0.27848 4.1568 0.97918 1.084 0.25621 2.4582 0.58092 3.7918 0.77219 1.2613 0.18092 2.3838 0.23104 3.4473 0.14463 2.9692-0.23594 1.7923-0.12353 3.8437-0.32478 2.7459-0.276-2.0206 0.20735 0.58251-0.0587 0.089-4e-3 0.0262-1.6e-4 0.0988-4e-3 0.0311 0.0147 0.0432 0.0118 0.0498 8e-3 3e-3 -1e-3 2e-3 -1e-3 2e-3 -1e-3s6e-4 -1.8e-4 -5.6e-4 3e-3c-3e-3 7e-3 -6e-3 0.0164-8e-3 0.0467-0.0204 0.023-0.052 0.0465-0.0993 0.0751-0.12689 0.0751-0.29592 0.1389-0.56978 0.21828-0.90783 0.26426-2.0009 0.44402-3.8364 0.66549-1.1171 0.13159-2.311 0.10403-3.6162-0.0804-1.4036-0.19831-2.7614-0.55508-3.8558-0.87292-2.4133-0.81755-4.0262-1.4434-3.9866-1.57z" fill="#532900"/>
  <path d="m102.04 151.7s2.0089 0 11.295 10.714c8.2208 9.4856 9.8214 13.929 9.5536 15.357-0.26785 1.4286-1.5178 3.3929-3.8393 1.9643s-12.768-6.6964-16.161-10.536c-3.3928-3.8393-8.2153-11.749-6.2946-15.804 1.2054-2.5446 5.4464-1.6964 5.4464-1.6964z" fill="#e59f59"/>
  <path d="m112.34 173.33c-3.4954-0.0697-8.3795 0.36168-14.693 2.1191-14.432 4.017-12.498 9.0038-12.433 9.1978 0.33605 0.99591 1.8026 2.4429 4.1776 0.79903 1.1604-0.80316 4.2099-2.4999 5.7476-3.1762-2.4489 1.4575-6.3073 3.4684-6.7968 4.3605-0.61695 1.1245-0.7422 2.5331-0.62283 2.848 0 0 1.3421 3.3609 3.2862 2.3983 1.8197-0.90107 5.8644-5.4353 8.5039-7.0994-2.3825 2.3209-6.7026 6.5782-7.0544 6.9586-0.57675 0.6237-0.82372 1.8788-0.68228 2.8431 0.075 0.51146 0.43237 1.0734 0.77967 1.3405 0.82075 0.63134 4.6458 0.7158 6.6661-1.4939s2.8404-5.8081 7.0073-8.3966 10.618-3.768 12.827-3.8942 3.7814-2.0926 3.9076-3.4816-2.8334-3.911-2.8334-3.911-0.38031-0.1409-0.99024-0.30859c-0.0196-0.017-0.10351-0.0937-0.10351-0.0937s-2.1993-0.92019-6.6934-1.0098z" fill="#532900"/>
  <path d="m104.18 149.68s2e-3 0.45997 9.3372 12.359c8.2651 10.534 9.1564 13.479 8.6965 14.908-0.45991 1.4289-3.5447 1.051-5.2487 0.60585-5.4698-1.4288-10.325-5.6656-13.745-9.9362-3.4194-4.2706-8.0105-12.842-5.3916-16.776 1.6436-2.469 6.3512-1.1601 6.3512-1.1601z" fill="#ce8842"/>
  <path d="m133.16 167.63c-0.013 4e-3 -0.0238-0.0139-0.063-0.10244-0.011-0.025-0.0235-0.0544-0.037-0.087-0.0343-0.0831-0.0797-0.19888-0.13177-0.33259-0.11894-0.30566-0.26849-0.69537-0.48534-1.2196-0.40437-0.97744-1.0265-2.3848-1.9476-3.9912-1.5173-2.6406-4.2985-6.5773-8.658-8.8115-3.8296-1.9741-8.3162-3.3418-13.479-4.0762-2.0391-0.28553-4.1855-0.4762-6.2728-0.19841-0.52014 0.0844-1.058 0.18362-1.5551 0.33045-0.82068 0.24244-1.5185 0.61137-1.8764 1.2484-1.4967 2.3577-1.8201 5.2807-1.3326 7.8615 0.59332 3.1504 2.2251 5.9513 3.999 8.1925 2.3925 3.0141 5.1846 5.1686 7.7133 6.6421 5.6921 3.3124 9.7345 3.0867 9.7166 3.3654 3e-3 -0.0522-4.0918 0.46925-10.042-2.788-2.6301-1.4377-5.5457-3.5945-8.0628-6.6755-1.8734-2.2868-3.6001-5.196-4.2689-8.5532-0.55327-2.7852-0.20639-5.9471 1.4331-8.5761 0.59057-0.87114 1.4703-1.3903 2.4194-1.6944 0.57537-0.18432 1.1697-0.28752 1.7273-0.34402 2.234-0.28732 4.4671-0.089 6.5422 0.21818 5.2505 0.76585 9.8354 2.2201 13.731 4.3015 4.5514 2.444 7.2943 6.5463 8.7338 9.3012 0.8757 1.6722 1.4293 3.1248 1.7619 4.1433 0.17516 0.53628 0.29145 0.96056 0.36457 1.2738 0.0335 0.14369 0.057 0.26025 0.0722 0.35277 6e-3 0.0355 0.0103 0.0667 0.0136 0.0943 0.0113 0.097 6.8e-4 0.12041-0.0148 0.1247z" fill="#532900"/>
  <path d="m107.32 158.58c6e-3 -0.01 0.0207-0.0136 0.0444-0.0123 0.0223 1e-3 0.0524 7e-3 0.0901 0.0183 0.0745 0.0216 0.17808 0.0617 0.30918 0.12012 0.25632 0.11415 0.61459 0.29635 1.0619 0.54469 0.82781 0.45953 1.9869 1.1597 3.3093 2.0636 1.1374 0.77718 2.4711 1.7529 3.7779 2.8961 0.94918 0.82651 1.9769 1.8001 2.7944 2.9763 0.0483 0.0695 0.0958 0.13953 0.14235 0.21012 2.4608 3.7152 3.9482 6.2077 4.3442 9.2592 0.30504 2.6665-1.1996 3.6838-0.97394 3.7684-0.49069-0.18401 0.81416-1.3357 0.29971-3.6584-0.5843-2.9375-2.0109-4.9899-4.5056-8.8203-0.0417-0.0638-0.0843-0.12729-0.12784-0.19039-0.73388-1.0642-1.7046-1.9965-2.6128-2.8287-1.2399-1.1312-2.5278-2.1478-3.602-2.9718-1.216-0.93247-2.3834-1.781-3.0979-2.3132-0.40626-0.30262-0.72714-0.54715-0.94072-0.72415-0.10996-0.0911-0.19271-0.16531-0.24561-0.22132-0.0268-0.0284-0.046-0.0522-0.0574-0.0713-0.0121-0.0204-0.0154-0.0351-9e-3 -0.0448z" fill="#532900"/>
  <path d="m120.89 174.84s-7.97-3.242-22.331 0.80762-12.284 9.0471-12.284 9.0471 0.60558 2.2402 3.3739 0.0862c2.7683-2.1541 8.5646-3.9635 8.8241-4.0497 0.25954-0.0862-8.9119 4.892-9.9518 6.5979s0.73407 5.4225 2.9363 3.4119c2.2022-2.0106 8.3194-6.8238 9.9099-7.5549 1.5905-0.73112-7.7077 7.8595-8.3194 8.5297-0.61173 0.67019-0.91759 2.9245-0.12235 3.5337 0.79524 0.60926 3.7315 0.85297 5.689-1.2795 1.9575-2.1324 3.548-6.3973 7.5854-8.8953s10.46-3.29 12.601-3.4119c2.141-0.12186 3.6265-2.3273 3.7489-3.6677 9.1e-4 -1.8454-7e-3 -2.4041-1.66-3.1554z" fill="#ce8842"/>
 </g>
 <path d="m301.25 608.4c0.21322 22.444 6.4133 43.339 12.373 64.53 9.896 32.631 4.816 67.153 0.40344 100.12-1.6322 21.781-7.9509 49.571 11.075 64.955 28.396 24.954 66.297 45.652 103.72 35.123 28.09-6.1668 39.271-38.667 44.338-65.54 10.902-46.186 6.9686-97.543-15.786-139.26-10.814-24.279-21.711-48.516-32.679-72.714-41.147 4.2618-82.294 8.5235-123.44 12.785z" fill="#e59f59" fill-rule="evenodd"/>
 <path d="m317.82 611.6c0.19843 21.988 5.9649 42.459 11.508 63.219 9.2042 31.968 4.4793 65.789 0.37556 98.086-1.5181 21.338-9.811 54.086 7.8845 69.158 26.411 24.447 62.697 46.105 97.501 35.79 26.127-6.0415 37.906-44.784 42.619-71.111 10.14-45.247 6.4814-95.562-14.682-136.43-10.058-23.786-20.193-47.53-30.394-71.237l-114.81 12.526z" fill="#ce8842" fill-rule="evenodd"/>
 <g transform="matrix(5.3084 1.306 -1.306 5.3084 -155.59 -3235.2)" fill-rule="evenodd">
  <path d="m266.58 656.06s-0.50508-2.3991 2.7779-2.7779c3.283-0.37881 4.9245-0.12627 5.4296 3.0304 0.50508 3.1567 2.0573 13.522-2.9935 19.331-5.0508 5.8084-22.079 3.6872-26.958 2.336-2.5133-0.68155-2.6331 0.0503-4.2395 2.0612-1.651 1.7877-3.3105 7.2082-3.6893 8.5971s-4.4194 4.7982-5.8084-0.50507 6.6923-11.869 8.3338-12.501-1.5345-0.94859-4.1684 0.30141-5.2679 3.2589-7.0536 5.3571-7.4107-0.0446-4.1072-4.375c3.3036-4.3304 13.571-5.4018 13.571-5.4018s-4.5982-3.125-10.67-2.5c0 0-3.8393-0.66964-2.7679-2.7678 1.0714-2.0982 8.1657-3.2252 21.116 7.0982 6.6111-0.6587 13.838 0.27437 19.018 0.0893-0.2669-6.4351 2.2092-17.373 2.2092-17.373z" fill="#532900"/>
  <path d="m271.01 654.08c-1.4644-0.0344-4.0758 0.22018-3.6879 2.2725-1.2049 5.8992-2.3835 11.848-2.1596 17.866-6.6816 0.23718-13.352-0.75937-19.996-0.0408-5.1941-3.9239-10.967-8.3259-17.765-8.4552-0.95025-0.1496-3.3688 0.88787-1.915 1.9074 2.1203 1.2085 4.6946 0.14235 6.9698 0.96138 2.757 0.56564 5.3035 1.8589 7.5904 3.4704-5.1568 0.71042-11.147 1.266-15.045 5.1682-1.4426 1.2238-1.2615 3.9889 1.0204 4.0296 2.1377 0.22499 2.8888-2.397 4.5763-3.2508 2.7159-2.0206 6.1715-4.4252 9.7184-3.4503 1.4702 1.4884-1.4402 2.0605-2.1527 2.8895-3.033 2.6023-6.7838 6.039-6.1864 10.42 0.13331 1.6119 1.877 3.172 3.2966 1.6378 1.8011-1.7109 1.641-4.59 2.8898-6.6865 1.0368-2.1463 2.2643-4.6491 4.4683-5.7744 2.6605-0.32484 5.2225 1.1678 7.9038 1.1601 6.2997 0.58242 13.238 1.2572 19.076-1.8003 5.0512-3.6827 5.1994-10.799 4.7793-16.39-0.45483-1.9714 0.18485-5.5636-2.5595-5.9085-0.27299-0.0278-0.54786-0.032-0.82203-0.0262z" fill="#ce8842"/>
  <path d="m271.01 654.08c-1.4644-0.0344-4.0758 0.22018-3.6879 2.2725-1.2049 5.8992-2.3835 11.848-2.1596 17.866-6.6816 0.23718-13.352-0.75937-19.996-0.0408-5.1941-3.9239-10.967-8.3259-17.765-8.4552-0.95025-0.1496-3.3688 0.88787-1.915 1.9074 2.1203 1.2085 4.6946 0.14235 6.9698 0.96138 2.757 0.56564 5.3035 1.8589 7.5904 3.4704-5.1568 0.71042-11.147 1.266-15.045 5.1682-1.4426 1.2238-1.2615 3.9889 1.0204 4.0296 2.1377 0.22499 2.8888-2.397 4.5763-3.2508 2.7159-2.0206 6.1715-4.4252 9.7184-3.4503 1.4702 1.4884-1.4402 2.0605-2.1527 2.8895-3.033 2.6023-6.7838 6.039-6.1864 10.42 0.13331 1.6119 1.877 3.172 3.2966 1.6378 1.8011-1.7109 1.641-4.59 2.8898-6.6865 1.0368-2.1463 2.2643-4.6491 4.4683-5.7744 2.6605-0.32484 5.2225 1.1678 7.9038 1.1601 6.2997 0.58242 13.238 1.2572 19.076-1.8003 5.0512-3.6827 5.1994-10.799 4.7793-16.39-0.45483-1.9714 0.18485-5.5636-2.5595-5.9085-0.27299-0.0278-0.54786-0.032-0.82203-0.0262z" fill="#ce8842"/>
 </g>
 <g transform="matrix(5.4667 0 0 5.4667 -1284.8 -2906.8)" fill-rule="evenodd">
  <path d="m331.25 580.11s12.501-21.213 16.794-24.244 11.192 2.516 13.471 7.0415c4.2202 8.3813 4.0802 19.601-4.3798 27.809s-25.254 4.4194-25.254 4.4194z" fill="#532900"/>
  <path d="m332.83 579.91s11.423-19.385 15.346-22.154 10.228 2.2992 12.31 6.4347c3.8565 7.659 3.7286 17.912-4.0024 25.412-7.7309 7.5002-23.077 4.0386-23.077 4.0386z" fill="#8d5824"/>
  <path d="m332.83 579.39s9.982-16.521 14.416-18.777c6.111-0.28876 4.413 2.5744 3.512 8.7836 2.7893-8.1693 11.218 6.252 4.2919 18.209-4.6869 8.0909-21.678 3.423-21.678 3.423z" fill="#6d4319"/>
  <path d="m332.83 579.91s8.7636-14.812 15.346-22.154c2.5422 7.5575-3.6032 19.611-1.3268 24.87 2.2763 5.2588 9.6347 6.9769 9.6347 6.9769-1.7723 5.1825-23.077 4.0386-23.077 4.0386z" fill="#e69c57"/>
  <path d="m332.83 580.51s8.7636-15.381 15.346-22.407c2.5422 7.2315-7.3912 15.624-5.3674 24.522 2.0238 8.8982 13.17 7.1592 13.17 7.1592-1.7723 4.959-22.572 3.8643-22.572 3.8643z" fill="#d08a45"/>
 </g>
 <g transform="matrix(5.4667 0 0 5.4667 -1278.9 -2912.6)" fill-rule="evenodd">
  <path d="m267.24 574.36s-8.8393-17.054-12.143-19.821-12.869 2.8175-12.679 16.875c0.0893 6.6072 0.98646 9.2394 3.4821 12.946 2.6694 3.965 11.429 8.6607 11.429 8.6607z" fill="#532900"/>
  <path d="m266.23 574.93s-8.0901-15.608-11.114-18.141c-3.0236-2.5333-11.778 2.5787-11.604 15.445 0.0818 6.0472 0.90286 8.4563 3.187 11.849 2.4431 3.629 10.46 7.9267 10.46 7.9267z" fill="#df9c58"/>
  <path d="m266.23 577.1s-7.0643-13.629-9.7045-15.841-10.284 2.2518-10.133 13.486c0.0714 5.2804 0.78838 7.3841 2.7829 10.347 2.1333 3.1688 9.1337 6.9216 9.1337 6.9216z" fill="#d18b46"/>
  <path d="m271.68 582.76s-4.6759-7.9492-6.4234-9.2394c-1.7476-1.2902-6.8073 1.3133-6.7068 7.866 0.0473 3.0798 0.52183 4.3068 1.842 6.0347 1.412 1.8482 6.0456 4.037 6.0456 4.037z" fill="#8d5824"/>
 </g>
 <path d="m602.69 417.6c-1.6497 55.05-16.606 108.96-53.332 145.11-52.411 51.591-126.56 72.832-208.26 72.832-101.15 0-207.88-69.239-236.67-118.39-28.792-49.149-18.324-115.07-14.184-142.51 16.021-106.16 107.04-194.52 250.85-200.37 143.93-5.8572 265.5 113.02 261.59 243.32z" fill="#532900"/>
 <path d="m346.14 179.66c-83.951 0.61894-171.95 36.857-218.65 109.83-32.087 48.946-40.439 109.68-36.541 167.29 2.6535 35.362 19.442 69.509 47.348 91.925 63.663 54.717 148.66 88.527 233.1 79.852 70.351-4.7954 144.45-30.963 187.85-89.427 30.801-45.606 39.405-103.9 33.08-157.16-15.856-110.41-121.01-198.66-232.29-202.11-4.5531-0.20554-9.2075-0.26786-13.895-0.20882z" fill="#a66524"/>
 <g transform="matrix(5.4667 0 0 5.4667 -279.95 -70.904)" fill-rule="evenodd">
  <path d="m133.25 167.6s-2.5893-11.071-13.393-15.982c-10.804-4.9107-18.482-5.5357-22.589 0.17857-4.1071 5.7143 3.6607 14.107 12.321 17.5 8.6607 3.3929 19.732 4.1964 21.964 3.0357 2.2321-1.1607 1.6964-4.7321 1.6964-4.7321z" fill="#e59f59"/>
  <path d="m134.12 167.24c-1.6215-6.1566-8.2145-10.609-14.038-13.454-6.71-3.2779-19.438-6.9018-22.17-3.2299-3.9478 5.3077 2.6921 15.432 11.072 18.891 8.3802 3.4592 19.355 4.7577 21.666 3.8503 2.3107-0.90737 3.9567-4.2092 3.47-6.057z" fill="#ce8842"/>
  <path d="m115.72 170.7c0.0396-0.12659 1.7202 0.27848 4.1568 0.97918 1.084 0.25621 2.4582 0.58092 3.7918 0.77219 1.2613 0.18092 2.3838 0.23104 3.4473 0.14463 2.9692-0.23594 1.7923-0.12353 3.8437-0.32478 2.7459-0.276-2.0206 0.20735 0.58251-0.0587 0.089-4e-3 0.0262-1.6e-4 0.0988-4e-3 0.0311 0.0147 0.0432 0.0118 0.0498 8e-3 3e-3 -1e-3 2e-3 -1e-3 2e-3 -1e-3s6e-4 -1.8e-4 -5.6e-4 3e-3c-3e-3 7e-3 -6e-3 0.0164-8e-3 0.0467-0.0204 0.023-0.052 0.0465-0.0993 0.0751-0.12689 0.0751-0.29592 0.1389-0.56978 0.21828-0.90783 0.26426-2.0009 0.44402-3.8364 0.66549-1.1171 0.13159-2.311 0.10403-3.6162-0.0804-1.4036-0.19831-2.7614-0.55508-3.8558-0.87292-2.4133-0.81755-4.0262-1.4434-3.9866-1.57z" fill="#532900"/>
  <path d="m102.04 151.7s2.0089 0 11.295 10.714c8.2208 9.4856 9.8214 13.929 9.5536 15.357-0.26785 1.4286-1.5178 3.3929-3.8393 1.9643s-12.768-6.6964-16.161-10.536c-3.3928-3.8393-8.2153-11.749-6.2946-15.804 1.2054-2.5446 5.4464-1.6964 5.4464-1.6964z" fill="#e59f59"/>
  <path d="m112.34 173.33c-3.4954-0.0697-8.3795 0.36168-14.693 2.1191-14.432 4.017-12.498 9.0038-12.433 9.1978 0.33605 0.99591 1.8026 2.4429 4.1776 0.79903 1.1604-0.80316 4.2099-2.4999 5.7476-3.1762-2.4489 1.4575-6.3073 3.4684-6.7968 4.3605-0.61695 1.1245-0.7422 2.5331-0.62283 2.848 0 0 1.3421 3.3609 3.2862 2.3983 1.8197-0.90107 5.8644-5.4353 8.5039-7.0994-2.3825 2.3209-6.7026 6.5782-7.0544 6.9586-0.57675 0.6237-0.82372 1.8788-0.68228 2.8431 0.075 0.51146 0.43237 1.0734 0.77967 1.3405 0.82075 0.63134 4.6458 0.7158 6.6661-1.4939s2.8404-5.8081 7.0073-8.3966 10.618-3.768 12.827-3.8942 3.7814-2.0926 3.9076-3.4816-2.8334-3.911-2.8334-3.911-0.38031-0.1409-0.99024-0.30859c-0.0196-0.017-0.10351-0.0937-0.10351-0.0937s-2.1993-0.92019-6.6934-1.0098z" fill="#532900"/>
  <path d="m104.18 149.68s2e-3 0.45997 9.3372 12.359c8.2651 10.534 9.1564 13.479 8.6965 14.908-0.45991 1.4289-3.5447 1.051-5.2487 0.60585-5.4698-1.4288-10.325-5.6656-13.745-9.9362-3.4194-4.2706-8.0105-12.842-5.3916-16.776 1.6436-2.469 6.3512-1.1601 6.3512-1.1601z" fill="#ce8842"/>
  <path d="m133.16 167.63c-0.013 4e-3 -0.0238-0.0139-0.063-0.10244-0.011-0.025-0.0235-0.0544-0.037-0.087-0.0343-0.0831-0.0797-0.19888-0.13177-0.33259-0.11894-0.30566-0.26849-0.69537-0.48534-1.2196-0.40437-0.97744-1.0265-2.3848-1.9476-3.9912-1.5173-2.6406-4.2985-6.5773-8.658-8.8115-3.8296-1.9741-8.3162-3.3418-13.479-4.0762-2.0391-0.28553-4.1855-0.4762-6.2728-0.19841-0.52014 0.0844-1.058 0.18362-1.5551 0.33045-0.82068 0.24244-1.5185 0.61137-1.8764 1.2484-1.4967 2.3577-1.8201 5.2807-1.3326 7.8615 0.59332 3.1504 2.2251 5.9513 3.999 8.1925 2.3925 3.0141 5.1846 5.1686 7.7133 6.6421 5.6921 3.3124 9.7345 3.0867 9.7166 3.3654 3e-3 -0.0522-4.0918 0.46925-10.042-2.788-2.6301-1.4377-5.5457-3.5945-8.0628-6.6755-1.8734-2.2868-3.6001-5.196-4.2689-8.5532-0.55327-2.7852-0.20639-5.9471 1.4331-8.5761 0.59057-0.87114 1.4703-1.3903 2.4194-1.6944 0.57537-0.18432 1.1697-0.28752 1.7273-0.34402 2.234-0.28732 4.4671-0.089 6.5422 0.21818 5.2505 0.76585 9.8354 2.2201 13.731 4.3015 4.5514 2.444 7.2943 6.5463 8.7338 9.3012 0.8757 1.6722 1.4293 3.1248 1.7619 4.1433 0.17516 0.53628 0.29145 0.96056 0.36457 1.2738 0.0335 0.14369 0.057 0.26025 0.0722 0.35277 6e-3 0.0355 0.0103 0.0667 0.0136 0.0943 0.0113 0.097 6.8e-4 0.12041-0.0148 0.1247z" fill="#532900"/>
  <path d="m107.32 158.58c6e-3 -0.01 0.0207-0.0136 0.0444-0.0123 0.0223 1e-3 0.0524 7e-3 0.0901 0.0183 0.0745 0.0216 0.17808 0.0617 0.30918 0.12012 0.25632 0.11415 0.61459 0.29635 1.0619 0.54469 0.82781 0.45953 1.9869 1.1597 3.3093 2.0636 1.1374 0.77718 2.4711 1.7529 3.7779 2.8961 0.94918 0.82651 1.9769 1.8001 2.7944 2.9763 0.0483 0.0695 0.0958 0.13953 0.14235 0.21012 2.4608 3.7152 3.9482 6.2077 4.3442 9.2592 0.30504 2.6665-1.1996 3.6838-0.97394 3.7684-0.49069-0.18401 0.81416-1.3357 0.29971-3.6584-0.5843-2.9375-2.0109-4.9899-4.5056-8.8203-0.0417-0.0638-0.0843-0.12729-0.12784-0.19039-0.73388-1.0642-1.7046-1.9965-2.6128-2.8287-1.2399-1.1312-2.5278-2.1478-3.602-2.9718-1.216-0.93247-2.3834-1.781-3.0979-2.3132-0.40626-0.30262-0.72714-0.54715-0.94072-0.72415-0.10996-0.0911-0.19271-0.16531-0.24561-0.22132-0.0268-0.0284-0.046-0.0522-0.0574-0.0713-0.0121-0.0204-0.0154-0.0351-9e-3 -0.0448z" fill="#532900"/>
  <path d="m120.89 174.84s-7.97-3.242-22.331 0.80762-12.284 9.0471-12.284 9.0471 0.60558 2.2402 3.3739 0.0862c2.7683-2.1541 8.5646-3.9635 8.8241-4.0497 0.25954-0.0862-8.9119 4.892-9.9518 6.5979s0.73407 5.4225 2.9363 3.4119c2.2022-2.0106 8.3194-6.8238 9.9099-7.5549 1.5905-0.73112-7.7077 7.8595-8.3194 8.5297-0.61173 0.67019-0.91759 2.9245-0.12235 3.5337 0.79524 0.60926 3.7315 0.85297 5.689-1.2795 1.9575-2.1324 3.548-6.3973 7.5854-8.8953s10.46-3.29 12.601-3.4119c2.141-0.12186 3.6265-2.3273 3.7489-3.6677 9.1e-4 -1.8454-7e-3 -2.4041-1.66-3.1554z" fill="#ce8842"/>
 </g>
 <path d="m313.1 190.43c-72.143 0.59439-147.77 35.396-187.89 105.48-27.574 47.006-34.751 105.34-31.401 160.66 2.2803 33.96 16.707 66.754 40.688 88.283 54.709 52.549 127.75 85.019 200.31 76.688 60.456-4.6053 124.13-29.736 161.43-85.884 26.469-43.799 33.863-99.781 28.427-150.93-13.626-106.04-103.99-190.79-199.62-194.1-3.9128-0.1979-7.9124-0.25694-11.941-0.20063z" fill="#e59f59"/>
 <path d="m342.59 181.16c-75.902 0.60467-155.47 36.009-197.68 107.31-29.01 47.82-36.562 107.16-33.037 163.45 2.3991 34.549 20.339 85.858 45.57 107.76 57.559 53.459 131.65 68.545 207.99 60.069 63.606-4.6851 130.6-30.251 169.84-87.371 27.848-44.558 35.627-101.51 29.908-153.54-14.336-107.87-109.41-194.1-210.02-197.46-4.1166-0.20118-8.3247-0.26131-12.563-0.20446z" fill="#cf8741"/>
 <path d="m275.24 479.2s-36.607-7.8095-46.369 11.714c-9.762 19.524 15.131 41.488 36.119 46.369s45.881 2.4405 55.155-8.2976c9.2738-10.738 15.619-25.381 12.69-34.167-2.9286-8.7857-57.595-15.619-57.595-15.619z" fill="#835120" fill-rule="evenodd"/>
 <path d="m193.95 514.8c0.0785-0.0939 4.1108 3.1282 11.198 8.9232 2.5847 2.2613 5.8009 5.1901 8.9534 8.5029 2.2819 2.3953 4.9134 5.3048 6.9029 8.6671 2.6489 4.4881 4.6168 8.9804 7.0501 14.374 1.9499 4.3143 4.1836 9.0892 7.1723 13.267 3.0288 4.2417 7.0571 8.0388 11.896 10.893 6.3084 3.729 13.573 5.908 21.398 7.3743 6.541 1.2169 13.46 1.8433 20.334 1.0716 0.92113-0.10256 1.8412-0.23228 2.7597-0.38796 4.2735-0.72437 8.4162-1.9947 12.34-3.6099 11.048-4.5517 18.399-9.5214 29.149-12.645 10.307-2.9828 20.3-4.6364 29.489-5.4292 8.6907-0.75071 13.618-0.60166 20.901-1.724 3.2397-0.49072 6.1826-2.0284 8.5863-3.6738 3.0304-2.0794 5.5433-4.5734 7.5132-6.7918 2.487-2.8023 4.3413-5.4416 5.6754-7.544 2.332-3.6806 3.18-5.8926 3.1995-5.8861 0.13022 0.0434-0.55825 2.3324-2.7949 6.1332-1.2726 2.1655-3.0753 4.8795-5.5356 7.77-1.9479 2.2898-4.4585 4.8698-7.5415 7.0579-2.4433 1.7382-5.4874 3.3728-8.9394 3.9527-7.3032 1.211-12.394 1.1312-20.953 1.9367-9.1128 0.85849-19.011 2.5564-29.205 5.553-10.52 3.0807-17.76 8.0363-28.975 12.67-4.0096 1.658-8.2581 2.9613-12.659 3.7078-0.94574 0.16042-1.8939 0.29435-2.844 0.40059-7.0749 0.78472-14.138 0.14362-20.772-1.1111-7.9233-1.4881-15.345-3.7555-21.842-7.6175-5.0022-2.9803-9.1471-6.9305-12.255-11.338-3.0503-4.3344-5.284-9.1895-7.1999-13.537-2.3976-5.4305-4.291-9.884-6.854-14.338-1.8727-3.2639-4.4281-6.1605-6.6561-8.5773-3.0642-3.3202-6.2214-6.3026-8.7389-8.6067-6.9479-5.9444-10.832-9.3435-10.753-9.4373z" fill="#e59f59" fill-rule="evenodd"/>
 <path d="m191.53 518.25c0.0523-0.0626 4.0598 3.189 11.124 9.0088 2.5735 2.2685 5.7798 5.2061 8.9176 8.5202 2.2729 2.3988 4.8918 5.3062 6.8618 8.6521 2.6345 4.4823 4.5901 8.9683 7.0174 14.368 1.9442 4.3198 4.1779 9.1081 7.1769 13.312 3.0419 4.2693 7.0897 8.092 11.956 10.967 6.3397 3.7512 13.63 5.9449 21.472 7.4148 6.5566 1.2232 13.5 1.8521 20.407 1.0782 0.92594-0.10317 1.8507-0.23359 2.7737-0.39005 4.2948-0.72806 8.455-2.0038 12.393-3.6262 11.075-4.5653 18.408-9.5328 29.12-12.649 10.288-2.9851 20.265-4.6461 29.441-5.4498 8.6678-0.75982 13.624-0.62237 20.91-1.7595 3.2751-0.50559 6.2348-2.0594 8.6451-3.7202 3.0391-2.0975 5.5516-4.6059 7.5179-6.8362 2.4826-2.817 4.3283-5.4688 5.6521-7.5817 2.3163-3.7006 3.1374-5.9255 3.1321-5.9273 0.10513 0.035-0.60964 2.3113-2.8624 6.092-1.2828 2.155-3.0941 4.8566-5.5589 7.7324-1.9515 2.2779-4.4626 4.8436-7.5368 7.0136-2.4367 1.7227-5.4639 3.3412-8.8805 3.9062-7.299 1.1962-12.364 1.1049-20.944 1.9012-9.1256 0.84755-19.039 2.5381-29.252 5.5324-10.558 3.0877-17.817 8.0458-29.004 12.666-3.9953 1.6509-8.2262 2.9487-12.606 3.6915-0.94118 0.15963-1.8847 0.29285-2.8299 0.39848-7.0414 0.78256-14.08 0.14391-20.699-1.1045-7.9069-1.4844-15.303-3.7371-21.768-7.577-4.975-2.9592-9.1005-6.8839-12.195-11.264-3.0401-4.3082-5.2738-9.15-7.1953-13.492-2.4035-5.4243-4.3094-9.8844-6.8867-14.344-1.8921-3.2803-4.4602-6.1791-6.6972-8.5922-3.079-3.3191-6.2459-6.2924-8.7746-8.5894-6.9712-5.9195-10.88-9.2891-10.827-9.3516z" fill-rule="evenodd"/>
 <path d="m213.68 557.66c4e-3 -2e-3 0.0102-6.2e-4 0.0181 5e-3 8e-3 5e-3 0.0169 0.0133 0.0279 0.025 0.022 0.0233 0.0508 0.0599 0.0864 0.10946 0.0704 0.0979 0.16898 0.24887 0.29391 0.44757v1e-5c0.2366 0.3763 0.61036 0.99374 1.0642 1.7384 0.9097 1.4927 2.1935 3.5868 3.9691 6.2768 3.1637 4.7926 8.0924 11.807 14.78 19.165 5.7797 6.3566 13.437 13.618 22.881 19.245 8.3388 4.9659 18.66 8.8215 29.718 8.9613 9.1834 0.12571 18.708-0.66929 28.36-2.5475 8.787-1.7099 17.147-4.2139 24.971-7.3366 5.1065-2.0372 12.838-5.5591 17.593-7.5184 4.9735-2.0596 9.8124-3.7771 14.919-4.2389 13.8-1.2173 24.499-2.5933 34.592-4.593 6.8641-1.3613 11.88-2.6909 16.439-4.3593 2.6387-0.96606 4.6148-1.8718 6.31-2.8224 3.1716-1.7823 4.4383-3.2999 4.5191-3.2303 0.0634 0.0546-1.0427 1.7459-4.2158 3.7399-1.6691 1.0509-3.6674 2.068-6.2996 3.1285-4.5344 1.8278-9.6363 3.3183-16.489 4.8084-10.072 2.1918-20.914 3.7346-34.694 5.0708-4.8095 0.45635-9.4431 2.1648-14.365 4.2181-4.8654 2.0399-12.225 5.4532-17.581 7.612-7.9259 3.1936-16.403 5.7482-25.317 7.4828-9.7921 1.9054-19.457 2.6938-28.772 2.5327-11.499-0.20993-22.095-4.2334-30.591-9.4086-9.6067-5.8491-17.275-13.302-23.005-19.827-6.6406-7.5586-11.414-14.716-14.421-19.66-1.677-2.7569-2.8739-4.9452-3.6666-6.4958-0.40931-0.80061-0.70045-1.412-0.8888-1.8422h-1e-5c-0.0949-0.21682-0.16137-0.38257-0.2009-0.49812-0.0198-0.058-0.0327-0.10275-0.0386-0.13433-3e-3 -0.0158-4e-3 -0.0283-4e-3 -0.0374 5e-4 -9e-3 3e-3 -0.0152 7e-3 -0.0174z" fill="#e59f59" fill-rule="evenodd"/>
 <path d="m221.06 579.75c0.10025-0.10501 7.458 6.738 19.106 17.732l1e-5 1e-5c5.4967 4.2929 12.403 9.046 20.436 12.95 7.2974 3.547 15.805 6.5114 24.934 7.3812 1.3776 0.13126 2.7674 0.25167 4.1668 0.35862 15.177 1.16 28.257 0.4631 40.154-2.5987 11.341-2.9113 20.864-8.0003 26.687-11.408 6.1204-3.5813 9.3908-5.9946 9.4802-5.867 0.0161 0.023-3.1536 2.5801-9.2194 6.3021-5.7842 3.5491-15.272 8.7738-26.729 11.81-11.988 3.169-25.206 3.9299-40.449 2.7602-1.4062-0.1079-2.8022-0.2299-4.1856-0.36339-9.2869-0.89623-17.894-3.9192-25.246-7.5432-8.1059-3.9962-15.028-8.8432-20.51-13.228-11.546-11.147-18.725-18.181-18.625-18.286z" fill-rule="evenodd"/>
 <path d="m393.06 189s-88.345-50.762-142.04-129.83c-53.691-79.072-69.432-17.967-66.381-0.97618 7.6446 42.567 35.631 67.357 82 100.55 51.505 36.867-62.964-24.893-101.04-23.917-38.071 0.97618-42.613 40.36-9.7619 38.071 47.153-3.2846 131.3 32.702 135.2 31.726 3.9047-0.97618-58.572 16.595-68.333 34.167-9.7619 17.571 40.532 27.469 70.286 9.762z" fill="#532900" fill-rule="evenodd"/>
 <path d="m209.79 30.708c-13.48 3.4553-16.459 20.416-15.853 32.136 5.9357 40.841 40.473 68.38 71.951 90.917 6.0237 5.8404 16.664 9.046 19.285 17.603-2.7607 7.9682-12.979 0.78463-18.217-0.32308-31.031-10.948-61.237-27.443-94.499-30.083-12.377-0.60931-30.958 8.63-25.867 23.333 8.3087 10.973 23.617 3.7555 35.193 6.6355 37.737 3.9461 76.691 18.806 110.24 29.952 13.93-1.2707 3.3668 7.4112-3.9803 8.5154-19.742 7.5824-42.677 12.72-57.568 28.727-4.1717 7.7106 8.1268 10.313 13.576 11.419 24.948 4.9454 49.24-4.8715 70.798-16.798l80.605-40.973c-58.759-25.451-114.14-78.313-152.12-135.81-8.8297-10.447-18.699-24.332-33.546-25.251z" fill="#cf8741" fill-rule="evenodd"/>
 <g transform="matrix(5.4667 0 0 5.4667 -1278.9 -2912.6)">
  <circle cx="273.53" cy="599.82" r="18.889" fill="#fff"/>
  <circle cx="274.05" cy="601.7" r="14.693" fill="#371b00"/>
  <circle cx="273.98" cy="603.13" r="11.899" fill="#110800"/>
  <circle transform="matrix(1.0794 0 0 1.0794 -20.211 -46.108)" cx="264.72" cy="594.32" r="7.2605" fill="#ffd2ad" filter="url(#a)" opacity=".273"/>
 </g>
 <g transform="matrix(5.4667 0 0 5.4667 -1278.9 -2912.6)">
  <circle cx="314.32" cy="609.29" r="19.268" fill="#fff"/>
  <circle cx="314.84" cy="611.21" r="14.988" fill="#371b00"/>
  <circle cx="314.77" cy="612.67" r="12.138" fill="#110800"/>
  <circle transform="matrix(1.101 0 0 1.101 -29.248 -61.826)" cx="304.62" cy="605.43" r="7.2605" fill="#ffdda8" filter="url(#a)" opacity=".273"/>
 </g>
 <path d="m273.81 482.52s-26.159-3.6382-33.134 5.4573c-6.9756 9.0955 10.812 19.328 25.81 21.602 14.997 2.2738 32.785 1.1369 39.412-3.8656 6.6268-5.0026 11.161-11.824 9.0682-15.917-2.0926-4.093-41.156-7.2764-41.156-7.2764z" fill="#ffc27f" fill-rule="evenodd"/>
</svg>
